<svg width="232" height="52" viewBox="0 0 232 52" fill="none" xmlns="http://www.w3.org/2000/svg">
<path d="M27.7866 27.1652C27.7866 27.1652 29.6838 27.2614 31.1823 27.0415L31.2922 30.5059C31.2922 30.5059 29.7251 30.6433 27.8279 30.6433L27.7866 27.1652Z" fill="#FC4739"/>
<path d="M27.8551 34.0804C27.8551 34.0804 29.3673 34.1079 31.3195 33.9705C31.3195 33.9705 31.347 36.3077 31.2508 37.215C31.2508 37.215 29.7386 37.3799 27.8002 37.3661L27.8551 34.0804Z" fill="#FC4739"/>
<path d="M27.7867 40.3223C27.7867 40.3223 29.5053 40.3636 31.1274 40.2124C31.1274 40.2124 31.0175 41.5597 30.8938 42.8932C30.8938 42.8932 29.134 43.0169 27.6768 43.0444L27.7867 40.3223Z" fill="#FC4739"/>
<path d="M27.4429 47.375C28.8451 47.375 30.1374 47.2788 30.1374 47.2788C30.3985 46.4402 30.5499 45.2441 30.5499 45.2441C29.0103 45.4091 27.5666 45.3678 27.5666 45.3678L27.4429 47.375Z" fill="#FC4739"/>
<path d="M27.2364 49.0111C27.2364 49.0111 28.46 49.0248 29.6973 48.9011C29.6973 48.9011 29.5187 49.616 29.1474 50.2347C29.1474 50.2347 28.1574 50.3034 27.099 50.2621L27.2364 49.0111Z" fill="#FC4739"/>
<path d="M26.8929 51.1557C26.8929 51.1557 27.7589 51.1282 28.5702 51.032C28.5702 51.032 28.474 51.2656 27.9378 51.527C27.9378 51.527 27.1398 51.5819 26.7072 51.527C26.7072 51.527 26.8382 51.3483 26.8931 51.1557H26.8929Z" fill="#FC4739"/>
<path d="M27.5942 20.3737C27.5942 20.3737 29.5602 20.4149 30.6463 20.25C30.6463 20.25 30.7975 21.6522 30.9487 23.5907C30.9487 23.5907 29.3401 23.7419 27.6904 23.7419C27.6904 23.7419 27.7317 22.2159 27.5942 20.3737Z" fill="#FC4739"/>
<path d="M27.3467 14.0497C27.3467 14.0497 28.5565 14.036 29.8076 13.926C29.8076 13.926 30.0687 15.3145 30.2751 17.0468C30.2751 17.0468 28.8591 17.1155 27.4981 17.1155C27.4981 17.1155 27.4568 15.5069 27.3469 14.0497H27.3467Z" fill="#FC4739"/>
<path d="M26.9622 8.50946C26.9622 8.50946 27.8282 8.49572 28.7357 8.427C28.7357 8.427 29.038 9.59561 29.2994 11.0666C29.2994 11.0666 28.2957 11.149 27.1548 11.1353C27.1548 11.1353 27.0861 9.77428 26.9624 8.50946H26.9622Z" fill="#FC4739"/>
<path d="M26.494 4.01392C26.494 4.01392 26.9721 4.0414 27.4206 4.01392C27.4206 4.01392 27.8001 4.93914 28.1301 6.0714C28.1301 6.0714 27.478 6.09401 26.7248 6.0714C26.7248 6.0714 26.6589 5.0451 26.494 4.01392Z" fill="#FC4739"/>
<path d="M26.0133 1.03589C26.0133 1.03589 26.1645 1.59648 26.2332 2.33772C26.2332 2.33772 26.6045 2.33661 26.7282 2.30913C26.7282 2.30913 26.4396 1.6049 26.0133 1.03589Z" fill="#FC4739"/>
<path d="M27.1682 2.25415C27.1682 2.25415 26.7144 1.6049 26.0133 1.03589C26.0133 1.03589 26.7969 1.42912 27.6082 2.18544C27.6082 2.18544 27.402 2.24041 27.1682 2.25415Z" fill="#FC4739"/>
<path d="M28.3229 3.87609C28.3229 3.87609 28.7629 3.86235 29.2026 3.80737C29.2026 3.80737 30.0137 4.7009 30.6324 5.78705C30.6324 5.78705 30.0687 5.86951 29.3813 5.92448C29.3813 5.92448 28.9001 4.94828 28.3226 3.87609H28.3229Z" fill="#FC4739"/>
<path d="M30.399 8.26188C30.399 8.26188 31.2101 8.17942 31.98 8.04199C31.98 8.04199 32.6811 9.18312 33.2997 10.6403C33.2997 10.6403 32.3512 10.8053 31.3475 10.9152C31.3475 10.9152 30.9075 9.60916 30.399 8.26188Z" fill="#FC4739"/>
<path d="M32.186 13.7062C32.186 13.7062 33.3272 13.5962 34.3993 13.4038C34.3993 13.4038 34.963 14.8335 35.4305 16.4696C35.4305 16.4696 34.2619 16.662 32.9284 16.7857C32.9284 16.7857 32.6535 15.2186 32.186 13.7062Z" fill="#FC4739"/>
<path d="M33.506 19.9891C33.506 19.9891 34.1308 19.9166 34.9082 19.8104C35.3316 19.7525 35.7862 19.7157 36.2417 19.6042C36.2417 19.6042 36.6268 20.6904 36.9291 22.9999C36.9291 22.9999 35.6093 23.2061 33.987 23.3575C33.987 23.3575 33.932 21.7076 33.5057 19.9893L33.506 19.9891Z" fill="#FC4739"/>
<path d="M34.3721 26.7389C34.3721 26.7389 35.898 26.5877 37.3829 26.3401C37.3829 26.3401 37.6303 27.9073 37.6853 29.8045C37.6853 29.8045 36.2418 30.0518 34.5507 30.2032C34.5507 30.2032 34.5645 28.5671 34.3721 26.7389Z" fill="#FC4739"/>
<path d="M34.6332 33.6543C34.6332 33.6543 36.2004 33.5031 37.7678 33.228C37.7678 33.228 37.7815 34.9054 37.6441 36.555C37.6441 36.555 36.2419 36.8161 34.5508 36.9538C34.5508 36.9538 34.6195 35.4278 34.6332 33.6543Z" fill="#FC4739"/>
<path d="M34.3172 39.9234C34.3172 39.9234 35.692 39.786 37.3006 39.5247C37.3006 39.5247 37.1219 40.9956 36.7781 42.2467C36.7781 42.2467 35.5271 42.4941 33.9185 42.618C33.9185 42.618 34.1658 41.257 34.3172 39.9234Z" fill="#FC4739"/>
<path d="M33.3683 44.9827C33.3683 44.9827 34.6743 44.8865 36.0628 44.6389C36.0628 44.6389 35.6503 45.7526 35.1418 46.7423C35.1418 46.7423 34.0556 46.9347 32.7084 47.0584C32.7084 47.0584 33.1071 46.0547 33.3683 44.9825V44.9827Z" fill="#FC4739"/>
<path d="M31.9663 48.7083C31.9663 48.7083 32.9975 48.6533 34.1109 48.4609C34.1109 48.4609 33.6159 49.1895 32.956 49.822C32.956 49.822 32.0487 49.9731 31.1138 50.0281C31.1138 50.0281 31.7324 49.3407 31.9661 48.7083H31.9663Z" fill="#FC4739"/>
<path d="M30.1925 50.9082C30.1925 50.9082 30.9211 50.8395 31.6497 50.7158C31.6497 50.7158 31.2372 50.9907 30.4948 51.2245C30.4948 51.2245 29.9174 51.3482 29.2025 51.4307C29.2025 51.4307 29.8624 51.1283 30.1925 50.9082Z" fill="#FC4739"/>
<path d="M26.0477 1.03746C27.3812 1.47747 28.3574 2.0549 28.3574 2.0549C28.1513 2.09613 27.9449 2.12362 27.9449 2.12362C27.1063 1.50495 26.0133 1.03613 26.0133 1.03613" fill="#FC4739"/>
<path d="M29.9246 3.63565C29.9246 3.63565 30.9008 4.48795 31.7256 5.54662C31.7256 5.54662 32.248 5.45042 32.7842 5.32673C32.7842 5.32673 31.7393 4.29688 30.6328 3.47827C30.6328 3.47827 30.3373 3.55319 29.9248 3.63587L29.9246 3.63565Z" fill="#FC4739"/>
<path d="M33.4713 7.77408C33.4713 7.77408 34.4061 9.05264 35.0662 10.3037C35.0662 10.3037 35.8635 10.125 36.6611 9.90493C36.6611 9.90493 35.7538 8.59889 34.8051 7.45776C34.8051 7.45776 34.1452 7.65017 33.4715 7.77386L33.4713 7.77408Z" fill="#FC4739"/>
<path d="M36.4547 13.0257C36.4547 13.0257 37.1696 14.5379 37.7058 15.9953C37.7058 15.9953 38.7782 15.7892 39.7954 15.4866C39.7954 15.4866 39.0943 13.9881 38.297 12.5444C38.297 12.5444 37.3897 12.8193 36.4547 13.0257Z" fill="#FC4739"/>
<path d="M38.7372 19.1434C38.7372 19.1434 39.3009 20.9169 39.6169 22.4428C39.6169 22.4428 40.8543 22.1817 42.0366 21.8242C42.0366 21.8242 41.5691 20.1468 41.0192 18.5659C41.0192 18.5659 39.8643 18.896 38.7369 19.1434H38.7372Z" fill="#FC4739"/>
<path d="M40.1946 25.825C40.1946 25.825 40.4832 27.5985 40.5796 29.2344C40.5796 29.2344 41.8994 28.9595 43.1917 28.6157C43.1917 28.6157 43.0268 26.8834 42.738 25.2063C42.738 25.2063 41.5006 25.5638 40.1946 25.825Z" fill="#FC4739"/>
<path d="M40.6615 32.7264C40.6615 32.7264 40.7027 34.3213 40.4966 35.9984C40.4966 35.9984 41.9126 35.7236 43.1224 35.3523C43.1224 35.3523 43.3423 33.5787 43.2873 32.0391C43.2873 32.0391 41.9813 32.4653 40.6615 32.7264Z" fill="#FC4739"/>
<path d="M40.0845 38.9955C40.0845 38.9955 39.8233 40.384 39.4246 41.7451C39.4246 41.7451 40.6344 41.4977 41.8168 41.1951C41.8168 41.1951 42.3117 39.7929 42.5591 38.3906C42.5591 38.3906 41.3768 38.7619 40.0845 38.9955Z" fill="#FC4739"/>
<path d="M38.5305 44.1649C38.5305 44.1649 38.0355 45.3748 37.4443 46.282C37.4443 46.282 38.4755 46.1034 39.424 45.8489C39.424 45.8489 40.2351 44.7971 40.7301 43.6147C40.7301 43.6147 39.6439 43.9585 38.5305 44.1647V44.1649Z" fill="#FC4739"/>
<path d="M36.1106 48.0692C36.1106 48.0692 35.5057 48.894 34.7358 49.4439C34.7358 49.4439 35.6706 49.3005 36.1106 49.1728C36.1106 49.1728 37.1143 48.4814 37.9528 47.6292C37.9528 47.6292 37.0593 47.8903 36.1106 48.0692Z" fill="#FC4739"/>
<path d="M33.0319 50.4478C33.0319 50.4478 32.4957 50.6677 31.932 50.8878C31.932 50.8878 32.427 50.8053 33.1968 50.6267C33.1968 50.6267 33.7468 50.4618 34.3379 50.1592C34.3379 50.1592 33.6918 50.3378 33.0319 50.4478Z" fill="#FC4739"/>
<path d="M39.5756 47.1343C39.5756 47.1343 38.6821 47.9316 37.6647 48.6602C37.6647 48.6602 38.3795 48.4403 38.7646 48.2202C38.7646 48.2202 40.0431 47.4091 40.8817 46.6116C40.8817 46.6116 40.208 46.9277 39.5756 47.134V47.1343Z" fill="#FC4739"/>
<path d="M42.7509 42.9824C42.7509 42.9824 42.091 44.2335 41.3212 45.1957C41.3212 45.1957 42.1418 44.9346 42.8314 44.6389C42.8314 44.6389 43.7134 43.5596 44.4832 42.2673C44.4832 42.2673 43.5484 42.7073 42.7509 42.9822V42.9824Z" fill="#FC4739"/>
<path d="M45.914 41.484C45.914 41.484 45.4053 42.4325 44.2229 43.8212C44.2229 43.8212 44.8141 43.4619 45.0683 43.2016C45.0683 43.2016 46.285 41.7041 46.7113 40.9478C46.7113 40.9478 46.3675 41.2501 45.914 41.484Z" fill="#FC4739"/>
<path d="M44.8269 37.6896C44.8269 37.6896 44.4968 39.1743 43.9608 40.5216C43.9608 40.5216 44.8681 40.1778 45.8168 39.738C45.8168 39.738 46.3654 38.4732 46.7855 36.9541C46.7855 36.9541 45.8443 37.3735 44.8271 37.6896H44.8269Z" fill="#FC4739"/>
<path d="M48.3943 35.9984C48.3943 35.9984 47.8931 37.8956 47.3569 38.8718C47.3569 38.8718 48.0168 38.4868 48.553 37.9233C48.553 37.9233 49.1442 36.631 49.6117 35.0913C49.6117 35.0913 49.0606 35.655 48.3943 35.9986V35.9984Z" fill="#FC4739"/>
<path d="M50.0105 34.9534C50.0105 34.9534 49.6944 36.0533 48.8419 37.7029L48.9656 37.6342C48.9656 37.6342 49.8591 36.2457 50.3129 34.6096C50.3129 34.6096 50.093 34.9397 50.0105 34.9534Z" fill="#FC4739"/>
<path d="M45.6251 31.3104C45.6251 31.3104 45.6258 33.0015 45.4467 34.6099C45.4467 34.6099 46.4911 34.2661 47.4536 33.8125C47.4536 33.8125 47.646 32.2039 47.6597 30.4856C47.6597 30.4856 46.7662 30.9668 45.6251 31.3104Z" fill="#FC4739"/>
<path d="M49.3367 29.5782C49.3367 29.5782 49.268 31.6541 49.0894 32.9051C49.0894 32.9051 49.6943 32.5891 50.3817 31.9152C50.3817 31.9152 50.5878 30.3343 50.6153 28.6157C50.6153 28.6157 50.0516 29.1382 49.3367 29.5782Z" fill="#FC4739"/>
<path d="M51.4679 27.5574C51.4679 27.5574 51.3854 30.0595 51.193 30.9118C51.193 30.9118 51.3167 30.8418 51.4679 30.4233C51.4679 30.4233 51.6465 29.3996 51.7152 27.1313C51.7152 27.1313 51.6053 27.3512 51.4679 27.5576V27.5574Z" fill="#FC4739"/>
<path d="M45.0059 24.4913C45.0059 24.4913 45.3634 26.0999 45.5146 27.9007C45.5146 27.9007 46.6694 27.5294 47.508 27.0897C47.508 27.0897 47.3568 25.3848 46.9581 23.6665C46.9581 23.6665 45.9681 24.189 45.0059 24.4913Z" fill="#FC4739"/>
<path d="M48.5806 22.8003C48.5806 22.8003 49.0068 24.5051 49.1717 26.196C49.1717 26.196 49.895 25.6872 50.4889 25.1442C50.4889 25.1442 50.2854 23.6801 49.8316 21.8516C49.8316 21.8516 49.2542 22.3465 48.5806 22.8001V22.8003Z" fill="#FC4739"/>
<path d="M50.6569 20.848C50.6569 20.848 51.1931 22.4429 51.2893 24.1612C51.2893 24.1612 51.5229 23.8174 51.688 23.2539C51.688 23.2539 51.688 21.8105 51.0556 19.7896C51.0556 19.7896 50.9319 20.312 50.6569 20.8482V20.848Z" fill="#FC4739"/>
<path d="M51.9076 26.7874L52.018 26.5254C52.018 26.5254 51.9905 28.3865 51.6742 29.9998L51.6465 30.0459C51.6465 30.0459 51.9626 28.5062 51.9076 26.7876V26.7874Z" fill="#FC4739"/>
<path d="M51.1715 19.4125L51.1943 19.1318C51.1943 19.1318 51.6913 20.918 51.8471 22.5878C51.8471 22.5878 51.838 22.649 51.8105 22.7177C51.8105 22.7177 51.6456 21.1505 51.1713 19.4125H51.1715Z" fill="#FC4739"/>
<path d="M43.0402 17.9613C43.0402 17.9613 43.755 19.6524 44.2225 21.1921C44.2225 21.1921 45.1573 20.8346 46.0785 20.4223C46.0785 20.4223 45.4736 18.6487 44.7725 17.219C44.7725 17.219 43.9889 17.6178 43.0402 17.9613Z" fill="#FC4739"/>
<path d="M46.2576 16.4647C46.2576 16.4647 47.0755 17.8718 47.6255 19.5489C47.6255 19.5489 48.2579 19.1364 48.8078 18.6279C48.8078 18.6279 48.2029 17.1019 47.3781 15.6033C47.3781 15.6033 46.8556 16.0475 46.2576 16.4647Z" fill="#FC4739"/>
<path d="M48.1198 14.7098C48.1198 14.7098 49.0408 16.2083 49.6045 17.7345C49.6045 17.7345 49.8381 17.3494 50.017 16.717C50.017 16.717 49.3846 15.301 48.4773 13.7336C48.4773 13.7336 48.3536 14.3111 48.1198 14.7098Z" fill="#FC4739"/>
<path d="M48.5869 13.1562C48.5869 13.1562 48.6339 13.0189 48.6035 12.7988C48.6035 12.7988 49.5321 14.2864 50.1525 15.9828C50.1525 15.9828 50.1406 16.0706 50.1268 16.1808C50.1268 16.1808 49.5219 14.5859 48.5871 13.1562H48.5869Z" fill="#FC4739"/>
<path d="M39.9878 12.0355C39.9878 12.0355 40.8951 13.424 41.6651 14.9365C41.6651 14.9365 42.5097 14.6341 43.2835 14.2697C43.2835 14.2697 42.325 12.5717 41.4177 11.4446C41.4177 11.4446 40.7716 11.7746 39.988 12.0358L39.9878 12.0355Z" fill="#FC4739"/>
<path d="M42.6002 10.8121C42.6002 10.8121 43.7688 12.1732 44.6074 13.5342C44.6074 13.5342 45.1848 13.1629 45.6111 12.7506C45.6111 12.7506 44.6901 11.3483 43.5352 10.1248C43.5352 10.1248 43.1502 10.4548 42.6004 10.8121H42.6002Z" fill="#FC4739"/>
<path d="M44.1676 9.40995C44.1676 9.40995 45.3637 10.5786 46.3122 11.9258C46.3122 11.9258 46.5458 11.5133 46.6283 11.0048C46.6283 11.0048 45.6109 9.75375 44.4562 8.59888C44.4562 8.59888 44.36 9.02514 44.1676 9.40995Z" fill="#FC4739"/>
<path d="M44.3734 7.80139C44.3734 7.80139 45.4733 8.73615 46.565 10.1249C46.565 10.1249 46.4154 9.68908 46.1436 9.24021C46.1436 9.24021 45.2129 8.06384 43.8583 6.79858C43.8583 6.79858 44.2083 7.30664 44.3734 7.80161V7.80139Z" fill="#FC4739"/>
<path d="M36.0285 7.1139C36.0285 7.1139 37.1697 8.15883 38.125 9.47861C38.125 9.47861 38.7368 9.23124 39.328 8.92866C39.328 8.92866 38.2556 7.70508 37.0183 6.66016C37.0183 6.66016 36.5645 6.89379 36.0283 7.1139H36.0285Z" fill="#FC4739"/>
<path d="M37.9124 6.2064C37.9124 6.2064 39.1909 7.19635 40.4008 8.37849C40.4008 8.37849 40.7995 8.10362 41.1568 7.75982C41.1568 7.75982 39.9195 6.68741 38.5448 5.71143C38.5448 5.71143 38.2699 5.9588 37.9124 6.2064Z" fill="#FC4739"/>
<path d="M38.9845 5.18894C38.9845 5.18894 40.3593 6.01375 41.7203 7.12739C41.7203 7.12739 41.8852 6.79733 41.9677 6.46749C41.9677 6.46749 40.6341 5.4638 39.2044 4.62524C39.2044 4.62524 39.2319 4.9553 38.9845 5.18894Z" fill="#FC4739"/>
<path d="M39.1628 4.062C39.1628 4.062 40.4139 4.66693 41.9123 5.78057C41.9123 5.78057 41.7886 5.42302 41.541 5.07944C41.541 5.07944 40.3587 4.22714 38.8602 3.49854C38.8602 3.49854 39.0939 3.81463 39.1626 4.06223L39.1628 4.062Z" fill="#FC4739"/>
<path d="M38.4342 3.03074C38.4342 3.03074 37.9383 2.64859 37.4988 2.39966C37.4988 2.39966 38.9848 3.10411 40.3316 4.01603C40.3316 4.01603 40.5101 4.14437 40.7162 4.32304C40.7162 4.32304 39.5751 3.60817 38.434 3.03074H38.4342Z" fill="#FC4739"/>
<path d="M50.5466 34.266L50.6382 34.092C50.6382 34.092 50.0845 35.7228 49.3669 37.1459C49.3669 37.1459 50.1204 35.6683 50.5466 34.266Z" fill="#FC4739"/>
<path d="M42.1736 45.9108C42.1736 45.9108 42.4857 45.7811 42.8109 45.5091C43.1361 45.2372 41.6901 46.4745 41.3683 46.6119C41.3683 46.6119 41.9125 46.2406 42.1738 45.9108H42.1736Z" fill="#FC4739"/>
<path d="M47.4669 40.3018L47.7105 40.02C47.7105 40.02 46.905 41.3216 45.8594 42.4752C45.8594 42.4752 46.9446 41.2228 47.4669 40.3018Z" fill="#FC4739"/>
<path d="M31.2997 3.29189C31.2997 3.29189 32.6266 4.03956 33.7298 5.04747C33.7298 5.04747 34.1179 4.88676 34.4892 4.68039C34.4892 4.68039 33.1282 3.75938 31.7947 3.07178C31.7947 3.07178 31.5748 3.19547 31.2997 3.29167V3.29189Z" fill="#FC4739"/>
<path d="M32.2894 2.811C32.2894 2.811 33.7879 3.52587 35.1629 4.36442C35.1629 4.36442 35.424 4.17202 35.6578 3.95191C35.6578 3.95191 34.1594 3.1271 32.6195 2.57715C32.6195 2.57715 32.5233 2.68709 32.2894 2.81078V2.811Z" fill="#FC4739"/>
<path d="M32.8254 2.28851C32.8254 2.28851 34.3651 2.74226 35.9737 3.53958C35.9737 3.53958 36.1249 3.34718 36.1112 3.11332C36.1112 3.11332 34.6265 2.48092 32.9629 2.01343C32.9629 2.01343 32.9354 2.13712 32.8254 2.28829V2.28851Z" fill="#FC4739"/>
<path d="M32.9491 1.6974C32.9491 1.6974 34.4906 2.04829 36.1121 2.6428C36.1121 2.6428 36.0424 2.45372 35.905 2.27483C35.905 2.27483 34.6127 1.77986 32.8254 1.43628C32.8254 1.43628 32.9491 1.57371 32.9491 1.6974Z" fill="#FC4739"/>
<path d="M32.5369 1.1473C32.5369 1.1473 33.9391 1.3397 35.4653 1.84842C35.4653 1.84842 35.2944 1.65602 34.9743 1.47713C34.9743 1.47713 33.8157 1.11959 32.0834 0.844727C32.0834 0.844727 32.4547 1.05087 32.5371 1.14708L32.5369 1.1473Z" fill="#FC4739"/>
<path d="M31.0793 0.405029C31.0793 0.405029 31.5194 0.514975 31.9042 0.679893C31.9042 0.679893 33.0315 0.817324 34.2002 1.10615L33.6841 0.895128C33.6841 0.895128 32.7427 0.638885 31.0793 0.405029Z" fill="#FC4739"/>
<path d="M30.2681 0.198659C30.2681 0.198659 30.2123 0.15078 29.5872 0.00292969C29.5872 0.00292969 30.7389 0.154991 31.6154 0.363577C31.6154 0.363577 30.7219 0.184916 30.2681 0.198659Z" fill="#FC4739"/>
<path d="M26.0135 1.03369C26.0135 1.03369 27.4089 1.38126 28.6462 1.94495C28.6462 1.94495 28.8524 1.88998 28.9417 1.84875C28.9417 1.84875 27.4226 1.34624 26.0133 1.03369H26.0135Z" fill="#FC4739"/>
<path d="M26.006 1.03735C26.006 1.03735 27.7039 1.31554 29.1818 1.69725C29.1818 1.69725 29.2505 1.65602 29.3467 1.54607C29.3467 1.54607 27.8345 1.27121 26.006 1.03735Z" fill="#FC4739"/>
<path d="M26.0133 1.03149C26.0133 1.03149 27.7536 1.2024 29.4509 1.43603C29.4509 1.43603 29.4983 1.36731 29.4983 1.27111C29.4983 1.27111 27.8759 1.13568 26.0133 1.03149Z" fill="#FC4739"/>
<path d="M26.0133 1.02927C26.0133 1.02927 27.78 1.05099 29.4777 1.10596C29.4777 1.10596 29.4708 1.04257 29.3471 0.971191C29.3471 0.971191 27.78 0.98028 26.0133 1.02927Z" fill="#FC4739"/>
<path d="M26.0133 1.02583C26.0133 1.02583 27.6538 0.899924 29.2429 0.844951C29.2429 0.844951 29.1685 0.762492 28.9898 0.70752C28.9898 0.70752 27.6838 0.821898 26.0133 1.02583Z" fill="#FC4739"/>
<path d="M26.0135 1.01973C26.0135 1.01973 27.3952 0.789867 28.7837 0.597462C28.7837 0.597462 28.7287 0.541381 28.3574 0.47998C28.3574 0.47998 27.3125 0.672163 26.0133 1.01973H26.0135Z" fill="#FC4739"/>
<path d="M26.0135 1.02134C26.0135 1.02134 27.1203 0.666231 28.1925 0.391368C28.1925 0.391368 27.9726 0.322652 27.7662 0.295166C27.7662 0.295166 26.9414 0.551409 26.0133 1.02134H26.0135Z" fill="#FC4739"/>
<path d="M26.0135 1.02241C26.0135 1.02241 26.694 0.501058 27.4364 0.239716C27.4364 0.239716 27.189 0.212229 26.9689 0.198486C26.9689 0.198486 26.5289 0.443868 26.0133 1.02241H26.0135Z" fill="#FC4739"/>
<path d="M26.0133 1.02731C26.0133 1.02731 26.2401 0.528789 26.5564 0.157724C26.5564 0.157724 26.309 0.130238 26.1164 0.157724C26.1164 0.157724 26.0614 0.384708 26.0133 1.02731Z" fill="#FC4739"/>
<path d="M24.2314 27.1625C24.2314 27.1625 22.3342 27.2587 20.8358 27.0388L20.7258 30.5032C20.7258 30.5032 22.293 30.6406 24.1902 30.6406L24.2314 27.1625Z" fill="#FC4739"/>
<path d="M24.1621 34.0777C24.1621 34.0777 22.6499 34.1052 20.6977 33.9678C20.6977 33.9678 20.6702 36.305 20.7664 37.2123C20.7664 37.2123 22.2786 37.3772 24.2171 37.3634L24.1621 34.0777Z" fill="#FC4739"/>
<path d="M24.2317 40.3192C24.2317 40.3192 22.5131 40.3604 20.891 40.2092C20.891 40.2092 21.0009 41.5565 21.1246 42.89C21.1246 42.89 22.8844 43.0137 24.3416 43.0412L24.2317 40.3192Z" fill="#FC4739"/>
<path d="M24.5748 47.3721C23.1726 47.3721 21.8803 47.2759 21.8803 47.2759C21.6192 46.4373 21.4678 45.2412 21.4678 45.2412C23.0075 45.4061 24.4511 45.3649 24.4511 45.3649L24.5748 47.3721Z" fill="#FC4739"/>
<path d="M24.7815 49.0079C24.7815 49.0079 23.5579 49.0216 22.3206 48.8979C22.3206 48.8979 22.4992 49.6128 22.8705 50.2315C22.8705 50.2315 23.8605 50.3002 24.9189 50.259L24.7815 49.0079Z" fill="#FC4739"/>
<path d="M25.1244 51.1525C25.1244 51.1525 24.2583 51.125 23.447 51.0288C23.447 51.0288 23.5432 51.2624 24.0794 51.5238C24.0794 51.5238 24.8774 51.5788 25.3101 51.5238C25.3101 51.5238 25.1791 51.3451 25.1241 51.1525H25.1244Z" fill="#FC4739"/>
<path d="M24.4232 20.371C24.4232 20.371 22.4572 20.4122 21.3711 20.2473C21.3711 20.2473 21.2199 21.6496 21.0687 23.588C21.0687 23.588 22.6773 23.7392 24.327 23.7392C24.327 23.7392 24.2857 22.2133 24.4232 20.371Z" fill="#FC4739"/>
<path d="M24.6711 14.0468C24.6711 14.0468 23.4612 14.033 22.2102 13.9231C22.2102 13.9231 21.949 15.3116 21.7427 17.0439C21.7427 17.0439 23.1587 17.1126 24.5197 17.1126C24.5197 17.1126 24.5609 15.504 24.6709 14.0468H24.6711Z" fill="#FC4739"/>
<path d="M25.056 8.50629C25.056 8.50629 24.1899 8.49254 23.2824 8.42383C23.2824 8.42383 22.9801 9.59244 22.7188 11.0634C22.7188 11.0634 23.7224 11.1459 24.8633 11.1321C24.8633 11.1321 24.9321 9.7711 25.0558 8.50629H25.056Z" fill="#FC4739"/>
<path d="M25.5232 4.01074C25.5232 4.01074 25.0451 4.03823 24.5966 4.01074C24.5966 4.01074 24.2171 4.93597 23.8871 6.06823C23.8871 6.06823 24.5392 6.09084 25.2924 6.06823C25.2924 6.06823 25.3583 5.04192 25.5232 4.01074Z" fill="#FC4739"/>
<path d="M26.0043 1.03271C26.0043 1.03271 25.8531 1.5933 25.7844 2.33455C25.7844 2.33455 25.4131 2.33344 25.2894 2.30595C25.2894 2.30595 25.578 1.60173 26.0043 1.03271Z" fill="#FC4739"/>
<path d="M24.8496 2.25098C24.8496 2.25098 25.3033 1.60173 26.0044 1.03271C26.0044 1.03271 25.2208 1.42595 24.4095 2.18226C24.4095 2.18226 24.6157 2.23724 24.8496 2.25098Z" fill="#FC4739"/>
<path d="M23.6948 3.8734C23.6948 3.8734 23.2548 3.85966 22.815 3.80469C22.815 3.80469 22.0039 4.69821 21.3853 5.78437C21.3853 5.78437 21.9489 5.86683 22.6363 5.9218C22.6363 5.9218 23.1176 4.94559 23.695 3.8734H23.6948Z" fill="#FC4739"/>
<path d="M21.6192 8.25895C21.6192 8.25895 20.8081 8.17649 20.0383 8.03906C20.0383 8.03906 19.3372 9.18019 18.7185 10.6374C18.7185 10.6374 19.667 10.8023 20.6707 10.9123C20.6707 10.9123 21.1107 9.60623 21.6192 8.25895Z" fill="#FC4739"/>
<path d="M19.8313 13.703C19.8313 13.703 18.6902 13.593 17.618 13.4006C17.618 13.4006 17.0543 14.8304 16.5868 16.4665C16.5868 16.4665 17.7554 16.6589 19.0889 16.7826C19.0889 16.7826 19.3638 15.2154 19.8313 13.703Z" fill="#FC4739"/>
<path d="M18.5124 19.9859C18.5124 19.9859 17.8875 19.9134 17.1101 19.8072C16.6868 19.7494 16.2321 19.7126 15.7766 19.6011C15.7766 19.6011 15.3916 20.6872 15.0892 22.9967C15.0892 22.9967 16.409 23.2029 18.0314 23.3543C18.0314 23.3543 18.0864 21.7044 18.5126 19.9861L18.5124 19.9859Z" fill="#FC4739"/>
<path d="M17.646 26.7362C17.646 26.7362 16.12 26.585 14.6351 26.3374C14.6351 26.3374 14.3877 27.9046 14.3328 29.8018C14.3328 29.8018 15.7762 30.0492 17.4673 30.2006C17.4673 30.2006 17.4536 28.5645 17.646 26.7362Z" fill="#FC4739"/>
<path d="M17.3852 33.6514C17.3852 33.6514 15.818 33.5002 14.2506 33.2251C14.2506 33.2251 14.2369 34.9024 14.3743 36.5521C14.3743 36.5521 15.7766 36.8132 17.4676 36.9508C17.4676 36.9508 17.3989 35.4249 17.3852 33.6514Z" fill="#FC4739"/>
<path d="M17.7008 39.9205C17.7008 39.9205 16.326 39.7831 14.7174 39.5217C14.7174 39.5217 14.8961 40.9927 15.2399 42.2438C15.2399 42.2438 16.4909 42.4911 18.0996 42.615C18.0996 42.615 17.8522 41.254 17.7008 39.9205Z" fill="#FC4739"/>
<path d="M18.6501 44.9798C18.6501 44.9798 17.3441 44.8836 15.9556 44.636C15.9556 44.636 16.3681 45.7496 16.8766 46.7394C16.8766 46.7394 17.9627 46.9318 19.31 47.0554C19.31 47.0554 18.9112 46.0518 18.6501 44.9796V44.9798Z" fill="#FC4739"/>
<path d="M20.0522 48.7056C20.0522 48.7056 19.021 48.6507 17.9076 48.4583C17.9076 48.4583 18.4026 49.1869 19.0625 49.8193C19.0625 49.8193 19.9697 49.9704 20.9047 50.0254C20.9047 50.0254 20.286 49.338 20.0524 48.7056H20.0522Z" fill="#FC4739"/>
<path d="M21.8256 50.905C21.8256 50.905 21.097 50.8363 20.3684 50.7126C20.3684 50.7126 20.7809 50.9875 21.5233 51.2214C21.5233 51.2214 22.1007 51.3451 22.8156 51.4275C22.8156 51.4275 22.1557 51.1252 21.8256 50.905Z" fill="#FC4739"/>
<path d="M25.9701 1.03404C24.6366 1.47405 23.6604 2.05148 23.6604 2.05148C23.8665 2.09271 24.0729 2.1202 24.0729 2.1202C24.9115 1.50153 26.0045 1.03271 26.0045 1.03271" fill="#FC4739"/>
<path d="M22.0935 3.63272C22.0935 3.63272 21.1172 4.48502 20.2924 5.54369C20.2924 5.54369 19.77 5.44749 19.2338 5.3238C19.2338 5.3238 20.2787 4.29395 21.3852 3.47534C21.3852 3.47534 21.6807 3.55026 22.0932 3.63294L22.0935 3.63272Z" fill="#FC4739"/>
<path d="M18.5466 7.7709C18.5466 7.7709 17.6118 9.04946 16.9517 10.3005C16.9517 10.3005 16.1544 10.1219 15.3568 9.90176C15.3568 9.90176 16.2641 8.59572 17.2128 7.45459C17.2128 7.45459 17.8727 7.64699 18.5463 7.77068L18.5466 7.7709Z" fill="#FC4739"/>
<path d="M15.5626 13.0227C15.5626 13.0227 14.8478 14.5349 14.3115 15.9924C14.3115 15.9924 13.2391 15.7862 12.2219 15.4836C12.2219 15.4836 12.923 13.9852 13.7204 12.5415C13.7204 12.5415 14.6276 12.8164 15.5626 13.0227Z" fill="#FC4739"/>
<path d="M13.281 19.1404C13.281 19.1404 12.7173 20.914 12.4013 22.4399C12.4013 22.4399 11.1639 22.1788 9.98157 21.8212C9.98157 21.8212 10.4491 20.1439 10.999 18.563C10.999 18.563 12.1539 18.893 13.2813 19.1404H13.281Z" fill="#FC4739"/>
<path d="M11.8239 25.822C11.8239 25.822 11.5353 27.5956 11.4389 29.2314C11.4389 29.2314 10.1191 28.9566 8.82678 28.6128C8.82678 28.6128 8.9917 26.8805 9.28053 25.2034C9.28053 25.2034 10.5179 25.5609 11.8239 25.822Z" fill="#FC4739"/>
<path d="M11.3562 32.7233C11.3562 32.7233 11.315 34.3181 11.5211 35.9952C11.5211 35.9952 10.1051 35.7204 8.8953 35.3491C8.8953 35.3491 8.67541 33.5756 8.73038 32.0359C8.73038 32.0359 10.0364 32.4621 11.3562 32.7233Z" fill="#FC4739"/>
<path d="M11.9336 38.9924C11.9336 38.9924 12.1948 40.3809 12.5935 41.7419C12.5935 41.7419 11.3837 41.4945 10.2013 41.1919C10.2013 41.1919 9.70636 39.7897 9.45898 38.3875C9.45898 38.3875 10.6413 38.7587 11.9336 38.9924Z" fill="#FC4739"/>
<path d="M13.4872 44.1617C13.4872 44.1617 13.9821 45.3716 14.5733 46.2789C14.5733 46.2789 13.5421 46.1002 12.5936 45.8457C12.5936 45.8457 11.7826 44.7939 11.2876 43.6116C11.2876 43.6116 12.3738 43.9554 13.4872 44.1615V44.1617Z" fill="#FC4739"/>
<path d="M15.9066 48.0662C15.9066 48.0662 16.5115 48.891 17.2813 49.441C17.2813 49.441 16.3466 49.2976 15.9066 49.1699C15.9066 49.1699 14.9029 48.4785 14.0643 47.6262C14.0643 47.6262 14.9579 47.8873 15.9066 48.0662Z" fill="#FC4739"/>
<path d="M18.9868 50.4444C18.9868 50.4444 19.523 50.6643 20.0867 50.8844C20.0867 50.8844 19.5918 50.8019 18.8219 50.6233C18.8219 50.6233 18.272 50.4583 17.6808 50.1558C17.6808 50.1558 18.3269 50.3344 18.9868 50.4444Z" fill="#FC4739"/>
<path d="M12.4423 47.1313C12.4423 47.1313 13.3358 47.9287 14.3532 48.6573C14.3532 48.6573 13.6384 48.4374 13.2533 48.2173C13.2533 48.2173 11.9748 47.4062 11.1362 46.6086C11.1362 46.6086 11.8099 46.9247 12.4423 47.1311V47.1313Z" fill="#FC4739"/>
<path d="M9.26648 42.9795C9.26648 42.9795 9.92638 44.2306 10.6962 45.1928C10.6962 45.1928 9.87562 44.9317 9.18602 44.636C9.18602 44.636 8.30402 43.5567 7.53418 42.2644C7.53418 42.2644 8.46894 42.7044 9.26648 42.9793V42.9795Z" fill="#FC4739"/>
<path d="M6.10458 41.4808C6.10458 41.4808 6.61329 42.4293 7.79565 43.818C7.79565 43.818 7.20447 43.4587 6.95022 43.1985C6.95022 43.1985 5.73351 41.7009 5.30725 40.9446C5.30725 40.9446 5.65105 41.2469 6.10458 41.4808Z" fill="#FC4739"/>
<path d="M7.19056 37.6862C7.19056 37.6862 7.52061 39.1709 8.0566 40.5181C8.0566 40.5181 7.14933 40.1743 6.2006 39.7346C6.2006 39.7346 5.65199 38.4697 5.23193 36.9507C5.23193 36.9507 6.17312 37.3701 7.19033 37.6862H7.19056Z" fill="#FC4739"/>
<path d="M3.62387 35.9954C3.62387 35.9954 4.12505 37.8926 4.66126 38.8689C4.66126 38.8689 4.00137 38.4838 3.46516 37.9204C3.46516 37.9204 2.87398 36.6281 2.40649 35.0884C2.40649 35.0884 2.95755 35.6521 3.62387 35.9957V35.9954Z" fill="#FC4739"/>
<path d="M2.00767 34.9507C2.00767 34.9507 2.32376 36.0506 3.17628 37.7003L3.0526 37.6315C3.0526 37.6315 2.15907 36.243 1.70532 34.6069C1.70532 34.6069 1.92521 34.937 2.00767 34.9507Z" fill="#FC4739"/>
<path d="M6.39317 31.3072C6.39317 31.3072 6.39251 32.9983 6.57161 34.6067C6.57161 34.6067 5.52713 34.2629 4.56467 33.8094C4.56467 33.8094 4.37226 32.2008 4.35852 30.4824C4.35852 30.4824 5.25205 30.9637 6.39317 31.3072Z" fill="#FC4739"/>
<path d="M2.6809 29.575C2.6809 29.575 2.74962 31.6509 2.92828 32.902C2.92828 32.902 2.32336 32.5859 1.63598 31.912C1.63598 31.912 1.42983 30.3311 1.40234 28.6125C1.40234 28.6125 1.96604 29.135 2.6809 29.575Z" fill="#FC4739"/>
<path d="M0.550355 27.5542C0.550355 27.5542 0.632814 30.0564 0.825219 30.9087C0.825219 30.9087 0.70153 30.8386 0.550355 30.4201C0.550355 30.4201 0.371694 29.3965 0.302979 27.1282C0.302979 27.1282 0.412924 27.3481 0.550355 27.5544V27.5542Z" fill="#FC4739"/>
<path d="M7.01215 24.4881C7.01215 24.4881 6.65461 26.0968 6.50343 27.8976C6.50343 27.8976 5.34856 27.5263 4.51001 27.0865C4.51001 27.0865 4.66118 25.3817 5.05996 23.6633C5.05996 23.6633 6.04991 24.1858 7.01215 24.4881Z" fill="#FC4739"/>
<path d="M3.4376 22.7976C3.4376 22.7976 3.01134 24.5024 2.84642 26.1933C2.84642 26.1933 2.12313 25.6845 1.5293 25.1415C1.5293 25.1415 1.73278 23.6774 2.18653 21.8489C2.18653 21.8489 2.76396 22.3439 3.4376 22.7974V22.7976Z" fill="#FC4739"/>
<path d="M1.36126 20.8453C1.36126 20.8453 0.825054 22.4402 0.728851 24.1585C0.728851 24.1585 0.495218 23.8147 0.330078 23.2512C0.330078 23.2512 0.330078 21.8078 0.962485 19.7869C0.962485 19.7869 1.08617 20.3093 1.36126 20.8455V20.8453Z" fill="#FC4739"/>
<path d="M0.110389 26.7845L0 26.5225C0 26.5225 0.0274863 28.3836 0.343801 29.9968L0.371509 30.0429C0.371509 30.0429 0.055416 28.5032 0.110389 26.7847V26.7845Z" fill="#FC4739"/>
<path d="M0.846164 19.4098L0.823332 19.1292C0.823332 19.1292 0.326362 20.9153 0.170532 22.5851C0.170532 22.5851 0.17962 22.6463 0.207107 22.715C0.207107 22.715 0.372025 21.1478 0.846385 19.4098H0.846164Z" fill="#FC4739"/>
<path d="M8.97792 17.9582C8.97792 17.9582 8.26306 19.6492 7.79557 21.1889C7.79557 21.1889 6.86081 20.8314 5.93958 20.4191C5.93958 20.4191 6.5445 18.6456 7.24562 17.2158C7.24562 17.2158 8.0292 17.6146 8.97792 17.9582Z" fill="#FC4739"/>
<path d="M5.7613 16.4617C5.7613 16.4617 4.94336 17.8688 4.39341 19.546C4.39341 19.546 3.76101 19.1334 3.21106 18.6249C3.21106 18.6249 3.81598 17.099 4.64079 15.6003C4.64079 15.6003 5.16325 16.0446 5.7613 16.4617Z" fill="#FC4739"/>
<path d="M3.8982 14.7067C3.8982 14.7067 2.97718 16.2051 2.41349 17.7313C2.41349 17.7313 2.17986 17.3463 2.00098 16.7138C2.00098 16.7138 2.63338 15.2979 3.54065 13.7305C3.54065 13.7305 3.66434 14.3079 3.8982 14.7067Z" fill="#FC4739"/>
<path d="M3.43048 13.1532C3.43048 13.1532 3.38349 13.016 3.41386 12.7959C3.41386 12.7959 2.48531 14.2835 1.86487 15.9799C1.86487 15.9799 1.87684 16.0677 1.89058 16.1778C1.89058 16.1778 2.4955 14.583 3.43026 13.1532H3.43048Z" fill="#FC4739"/>
<path d="M12.03 12.0329C12.03 12.0329 11.1227 13.4214 10.3526 14.9338C10.3526 14.9338 9.50808 14.6314 8.73425 14.267C8.73425 14.267 9.69273 12.5691 10.6 11.4419C10.6 11.4419 11.2461 11.772 12.0297 12.0331L12.03 12.0329Z" fill="#FC4739"/>
<path d="M9.41748 10.8092C9.41748 10.8092 8.24886 12.1702 7.41031 13.5312C7.41031 13.5312 6.83288 13.16 6.40662 12.7477C6.40662 12.7477 7.32763 11.3454 8.4825 10.1218C8.4825 10.1218 8.86753 10.4519 9.41725 10.8092H9.41748Z" fill="#FC4739"/>
<path d="M7.85046 9.40702C7.85046 9.40702 6.65436 10.5756 5.70586 11.9229C5.70586 11.9229 5.47223 11.5104 5.38977 11.0019C5.38977 11.0019 6.40721 9.75082 7.56186 8.59595C7.56186 8.59595 7.65806 9.02221 7.85046 9.40702Z" fill="#FC4739"/>
<path d="M7.64398 7.79822C7.64398 7.79822 6.54409 8.73297 5.45239 10.1217C5.45239 10.1217 5.60202 9.68591 5.87378 9.23704C5.87378 9.23704 6.80454 8.06067 8.15913 6.79541C8.15913 6.79541 7.80912 7.30346 7.64398 7.79844V7.79822Z" fill="#FC4739"/>
<path d="M15.9895 7.11097C15.9895 7.11097 14.8484 8.1559 13.893 9.47568C13.893 9.47568 13.2812 9.22831 12.6901 8.92574C12.6901 8.92574 13.7625 7.70215 14.9998 6.65723C14.9998 6.65723 15.4535 6.89086 15.9898 7.11097H15.9895Z" fill="#FC4739"/>
<path d="M14.1058 6.20372C14.1058 6.20372 12.8273 7.19367 11.6174 8.3758C11.6174 8.3758 11.2187 8.10094 10.8613 7.75714C10.8613 7.75714 12.0987 6.68473 13.4734 5.70874C13.4734 5.70874 13.7483 5.95612 14.1058 6.20372Z" fill="#FC4739"/>
<path d="M13.0336 5.18625C13.0336 5.18625 11.6588 6.01106 10.2978 7.1247C10.2978 7.1247 10.1329 6.79464 10.0504 6.46481C10.0504 6.46481 11.3839 5.46111 12.8137 4.62256C12.8137 4.62256 12.7862 4.95262 13.0336 5.18625Z" fill="#FC4739"/>
<path d="M12.8544 4.05883C12.8544 4.05883 11.6033 4.66375 10.1049 5.77739C10.1049 5.77739 10.2285 5.41985 10.4761 5.07627C10.4761 5.07627 11.6585 4.22397 13.1569 3.49536C13.1569 3.49536 12.9233 3.81145 12.8546 4.05905L12.8544 4.05883Z" fill="#FC4739"/>
<path d="M13.5833 3.02781C13.5833 3.02781 14.0792 2.64566 14.5187 2.39673C14.5187 2.39673 13.0327 3.10118 11.6859 4.0131C11.6859 4.0131 11.5074 4.14145 11.3013 4.32011C11.3013 4.32011 12.4424 3.60524 13.5835 3.02781H13.5833Z" fill="#FC4739"/>
<path d="M1.47119 34.2634L1.37964 34.0894C1.37964 34.0894 1.93336 35.7201 2.65088 37.1432C2.65088 37.1432 1.89745 35.6656 1.47119 34.2634Z" fill="#FC4739"/>
<path d="M9.84427 45.9079C9.84427 45.9079 9.53217 45.7782 9.20698 45.5062C8.8818 45.2342 10.3277 46.4716 10.6496 46.609C10.6496 46.609 10.1054 46.2377 9.84405 45.9079H9.84427Z" fill="#FC4739"/>
<path d="M4.55123 40.2986L4.30762 40.0168C4.30762 40.0168 5.11314 41.3185 6.15873 42.472C6.15873 42.472 5.07347 41.2196 4.55123 40.2986Z" fill="#FC4739"/>
<path d="M20.7188 3.28896C20.7188 3.28896 19.3919 4.03663 18.2887 5.04454C18.2887 5.04454 17.9006 4.88383 17.5293 4.67746C17.5293 4.67746 18.8903 3.75645 20.2238 3.06885C20.2238 3.06885 20.4437 3.19254 20.7188 3.28874V3.28896Z" fill="#FC4739"/>
<path d="M19.7285 2.80783C19.7285 2.80783 18.2301 3.5227 16.8551 4.36125C16.8551 4.36125 16.594 4.16885 16.3601 3.94873C16.3601 3.94873 17.8586 3.12392 19.3985 2.57397C19.3985 2.57397 19.4947 2.68392 19.7285 2.80761V2.80783Z" fill="#FC4739"/>
<path d="M19.1922 2.28534C19.1922 2.28534 17.6526 2.73908 16.044 3.53641C16.044 3.53641 15.8928 3.34401 15.9065 3.11015C15.9065 3.11015 17.3912 2.47774 19.0548 2.01025C19.0548 2.01025 19.0823 2.13394 19.1922 2.28512V2.28534Z" fill="#FC4739"/>
<path d="M19.0686 1.69398C19.0686 1.69398 17.5271 2.04488 15.9056 2.63938C15.9056 2.63938 15.9752 2.4503 16.1127 2.27142C16.1127 2.27142 17.405 1.77644 19.1923 1.43286C19.1923 1.43286 19.0686 1.57029 19.0686 1.69398Z" fill="#FC4739"/>
<path d="M19.4808 1.14461C19.4808 1.14461 18.0785 1.33702 16.5524 1.84574C16.5524 1.84574 16.7233 1.65333 17.0434 1.47445C17.0434 1.47445 18.202 1.1169 19.9343 0.842041C19.9343 0.842041 19.563 1.04819 19.4805 1.14439L19.4808 1.14461Z" fill="#FC4739"/>
<path d="M20.9386 0.401855C20.9386 0.401855 20.4986 0.511801 20.1137 0.676719C20.1137 0.676719 18.9864 0.81415 17.8177 1.10298L18.3338 0.891954C18.3338 0.891954 19.2752 0.635711 20.9386 0.401855Z" fill="#FC4739"/>
<path d="M21.7493 0.195729C21.7493 0.195729 21.8051 0.14785 22.4302 0C22.4302 0 21.2784 0.152061 20.402 0.360647C20.402 0.360647 21.2955 0.181986 21.7493 0.195729Z" fill="#FC4739"/>
<path d="M26.0042 1.03052C26.0042 1.03052 24.6089 1.37809 23.3715 1.94178C23.3715 1.94178 23.1654 1.88681 23.076 1.84558C23.076 1.84558 24.5951 1.34306 26.0045 1.03052H26.0042Z" fill="#FC4739"/>
<path d="M26.0114 1.03418C26.0114 1.03418 24.3134 1.31237 22.8356 1.69407C22.8356 1.69407 22.7669 1.65284 22.6707 1.5429C22.6707 1.5429 24.1828 1.26804 26.0114 1.03418Z" fill="#FC4739"/>
<path d="M26.0051 1.02832C26.0051 1.02832 24.2649 1.19922 22.5676 1.43286C22.5676 1.43286 22.5201 1.36414 22.5201 1.26794C22.5201 1.26794 24.1425 1.1325 26.0051 1.02832Z" fill="#FC4739"/>
<path d="M26.0044 1.02658C26.0044 1.02658 24.2378 1.0483 22.54 1.10328C22.54 1.10328 22.5469 1.03988 22.6706 0.968506C22.6706 0.968506 24.2378 0.977594 26.0044 1.02658Z" fill="#FC4739"/>
<path d="M26.0045 1.02266C26.0045 1.02266 24.364 0.89675 22.7749 0.841777C22.7749 0.841777 22.8494 0.759318 23.028 0.704346C23.028 0.704346 24.3341 0.818724 26.0045 1.02266Z" fill="#FC4739"/>
<path d="M26.005 1.0168C26.005 1.0168 24.6234 0.786937 23.2349 0.594533C23.2349 0.594533 23.2898 0.538452 23.6611 0.477051C23.6611 0.477051 24.706 0.669233 26.0052 1.0168H26.005Z" fill="#FC4739"/>
<path d="M26.0043 1.01792C26.0043 1.01792 24.8975 0.662813 23.8253 0.38795C23.8253 0.38795 24.0452 0.319234 24.2516 0.291748C24.2516 0.291748 25.0764 0.547992 26.0045 1.01792H26.0043Z" fill="#FC4739"/>
<path d="M26.0048 1.01973C26.0048 1.01973 25.3243 0.498372 24.5819 0.23703C24.5819 0.23703 24.8293 0.209544 25.0494 0.195801C25.0494 0.195801 25.4894 0.441183 26.005 1.01973H26.0048Z" fill="#FC4739"/>
<path d="M26.0047 1.02414C26.0047 1.02414 25.778 0.525615 25.4617 0.15455C25.4617 0.15455 25.709 0.127064 25.9017 0.15455C25.9017 0.15455 25.9566 0.381534 26.0047 1.02414Z" fill="#FC4739"/>
<path d="M61.4468 35.2114V23.8653H72.586V25.0472H62.865V28.8292H72.1798V30.0111H62.865V34.0295H72.7929V35.2114H61.4468Z" fill="white"/>
<path d="M79.7586 35.4477C78.6506 35.4477 77.7395 35.3714 77.0255 35.2188C76.3114 35.071 75.7525 34.7952 75.3487 34.3914C74.9498 33.9876 74.6691 33.4065 74.5066 32.6482C74.349 31.8898 74.2702 30.9024 74.2702 29.6861V23.8653H75.6885V29.6861C75.6885 30.5232 75.718 31.2176 75.7771 31.7691C75.8362 32.3207 75.947 32.7614 76.1095 33.0914C76.272 33.4213 76.5035 33.6675 76.8039 33.83C77.1092 33.9926 77.5032 34.0984 77.9858 34.1477C78.4684 34.1969 79.0593 34.2215 79.7586 34.2215H82.4326C83.1368 34.2215 83.7278 34.1969 84.2054 34.1477C84.688 34.0984 85.0795 33.9926 85.3799 33.83C85.6853 33.6675 85.9192 33.4213 86.0817 33.0914C86.2442 32.7614 86.355 32.3207 86.4141 31.7691C86.4732 31.2176 86.5027 30.5232 86.5027 29.6861V23.8653H87.921V29.6861C87.921 30.9024 87.8397 31.8898 87.6772 32.6482C87.5196 33.4065 87.2389 33.9876 86.8351 34.3914C86.4362 34.7952 85.8798 35.071 85.1657 35.2188C84.4517 35.3714 83.5406 35.4477 82.4326 35.4477H79.7586Z" fill="white"/>
<path d="M89.8711 29.6861V29.3906C89.8711 28.386 89.9203 27.5439 90.0188 26.8643C90.1173 26.1798 90.2872 25.6233 90.5285 25.1949C90.7698 24.7665 91.0973 24.439 91.511 24.2125C91.9295 23.9859 92.454 23.8333 93.0843 23.7545C93.7147 23.6708 94.4731 23.6289 95.3595 23.6289H98.3363C99.3508 23.6289 100.205 23.6782 100.9 23.7766C101.599 23.8702 102.16 24.0598 102.584 24.3454C103.012 24.6261 103.322 25.0422 103.514 25.5938C103.707 26.1404 103.803 26.8668 103.803 27.7729H102.384C102.384 27.0588 102.32 26.5048 102.192 26.1109C102.064 25.712 101.848 25.4239 101.542 25.2466C101.242 25.0693 100.831 24.961 100.309 24.9216C99.7866 24.8773 99.1292 24.8551 98.3363 24.8551H95.3595C94.6553 24.8551 94.0619 24.8773 93.5793 24.9216C93.0966 24.961 92.7027 25.057 92.3974 25.2097C92.097 25.3574 91.8655 25.5938 91.703 25.9188C91.5454 26.2438 91.4371 26.687 91.378 27.2484C91.3189 27.8098 91.2894 28.5239 91.2894 29.3906V29.6861C91.2894 30.5232 91.3189 31.2176 91.378 31.7691C91.4371 32.3207 91.5454 32.7614 91.703 33.0914C91.8655 33.4213 92.097 33.6675 92.3974 33.83C92.7027 33.9926 93.0966 34.0984 93.5793 34.1477C94.0619 34.1969 94.6553 34.2215 95.3595 34.2215H98.3363C99.1292 34.2215 99.7866 34.2043 100.309 34.1698C100.831 34.1354 101.242 34.0344 101.542 33.867C101.848 33.6995 102.064 33.4213 102.192 33.0323C102.32 32.6383 102.384 32.0868 102.384 31.3776H103.803C103.803 32.2837 103.707 33.0076 103.514 33.5493C103.322 34.091 103.012 34.4998 102.584 34.7756C102.16 35.0464 101.599 35.2261 100.9 35.3148C100.205 35.4034 99.3508 35.4477 98.3363 35.4477H95.3595C94.2514 35.4477 93.3404 35.3714 92.6264 35.2188C91.9123 35.071 91.3534 34.7952 90.9496 34.3914C90.5507 33.9876 90.27 33.4065 90.1075 32.6482C89.9499 31.8898 89.8711 30.9024 89.8711 29.6861Z" fill="white"/>
<path d="M105.25 35.2114L111.869 23.8653H113.76L120.378 35.2114H118.724L117.306 32.6112H108.323L106.905 35.2114H105.25ZM109.032 31.4293H116.596L112.814 24.8108L109.032 31.4293Z" fill="white"/>
<path d="M125.623 35.2114L132.242 23.8653H134.133L140.751 35.2114H139.097L137.678 32.6112H128.696L127.278 35.2114H125.623ZM129.405 31.4293H136.969L133.187 24.8108L129.405 31.4293Z" fill="white"/>
<path d="M142.642 35.2114V23.8653H144.06V34.0295H153.043V35.2114H142.642Z" fill="white"/>
<path d="M154.934 35.2114V23.8653H156.352V34.0295H165.334V35.2114H154.934Z" fill="white"/>
<path d="M167.225 35.2114V23.8653H168.644V35.2114H167.225Z" fill="white"/>
<path d="M170.535 35.2114L177.153 23.8653H179.044L185.663 35.2114H184.008L182.59 32.6112H173.608L172.189 35.2114H170.535ZM174.317 31.4293H181.881L178.099 24.8108L174.317 31.4293Z" fill="white"/>
<path d="M187.554 35.2114V23.8653H189.031L200.429 33.4607H200.444V23.8653H201.862V35.2114H200.385L188.987 25.5347H188.972V35.2114H187.554Z" fill="white"/>
<path d="M204.233 29.6861V29.3906C204.233 28.386 204.282 27.5439 204.381 26.8643C204.479 26.1798 204.649 25.6233 204.891 25.1949C205.132 24.7665 205.459 24.439 205.873 24.2125C206.292 23.9859 206.816 23.8333 207.446 23.7545C208.077 23.6708 208.835 23.6289 209.722 23.6289H212.698C213.713 23.6289 214.567 23.6782 215.262 23.7766C215.961 23.8702 216.522 24.0598 216.946 24.3454C217.374 24.6261 217.684 25.0422 217.877 25.5938C218.069 26.1404 218.165 26.8668 218.165 27.7729H216.746C216.746 27.0588 216.682 26.5048 216.554 26.1109C216.426 25.712 216.21 25.4239 215.904 25.2466C215.604 25.0693 215.193 24.961 214.671 24.9216C214.149 24.8773 213.491 24.8551 212.698 24.8551H209.722C209.017 24.8551 208.424 24.8773 207.941 24.9216C207.459 24.961 207.065 25.057 206.759 25.2097C206.459 25.3574 206.228 25.5938 206.065 25.9188C205.908 26.2438 205.799 26.687 205.74 27.2484C205.681 27.8098 205.651 28.5239 205.651 29.3906V29.6861C205.651 30.5232 205.681 31.2176 205.74 31.7691C205.799 32.3207 205.908 32.7614 206.065 33.0914C206.228 33.4213 206.459 33.6675 206.759 33.83C207.065 33.9926 207.459 34.0984 207.941 34.1477C208.424 34.1969 209.017 34.2215 209.722 34.2215H212.698C213.491 34.2215 214.149 34.2043 214.671 34.1698C215.193 34.1354 215.604 34.0344 215.904 33.867C216.21 33.6995 216.426 33.4213 216.554 33.0323C216.682 32.6383 216.746 32.0868 216.746 31.3776H218.165C218.165 32.2837 218.069 33.0076 217.877 33.5493C217.684 34.091 217.374 34.4998 216.946 34.7756C216.522 35.0464 215.961 35.2261 215.262 35.3148C214.567 35.4034 213.713 35.4477 212.698 35.4477H209.722C208.614 35.4477 207.702 35.3714 206.988 35.2188C206.274 35.071 205.715 34.7952 205.312 34.3914C204.913 33.9876 204.632 33.4065 204.47 32.6482C204.312 31.8898 204.233 30.9024 204.233 29.6861Z" fill="white"/>
<path d="M220.558 35.2114V23.8653H231.697V25.0472H221.976V28.8292H231.291V30.0111H221.976V34.0295H231.904V35.2114H220.558Z" fill="white"/>
<path d="M162.664 43.5556V43.3652C162.664 42.7179 162.695 42.1754 162.759 41.7375C162.822 41.2964 162.932 40.9379 163.087 40.6618C163.243 40.3858 163.454 40.1748 163.72 40.0288C163.99 39.8829 164.328 39.7845 164.734 39.7337C165.14 39.6798 165.629 39.6528 166.2 39.6528H168.118C168.772 39.6528 169.322 39.6846 169.77 39.748C170.22 39.8083 170.582 39.9305 170.855 40.1145C171.131 40.2954 171.331 40.5635 171.454 40.9189C171.578 41.2711 171.64 41.7391 171.64 42.3229H170.726C170.726 41.8628 170.685 41.5059 170.602 41.252C170.52 40.995 170.38 40.8094 170.184 40.6952C169.99 40.5809 169.725 40.5111 169.389 40.4857C169.052 40.4572 168.629 40.4429 168.118 40.4429H166.2C165.746 40.4429 165.364 40.4572 165.053 40.4857C164.742 40.5111 164.488 40.573 164.291 40.6714C164.098 40.7666 163.949 40.9189 163.844 41.1283C163.742 41.3377 163.673 41.6233 163.635 41.985C163.596 42.3467 163.577 42.8068 163.577 43.3652V43.5556C163.577 44.095 163.596 44.5424 163.635 44.8978C163.673 45.2532 163.742 45.5372 163.844 45.7497C163.949 45.9623 164.098 46.121 164.291 46.2257C164.488 46.3304 164.742 46.3986 165.053 46.4304C165.364 46.4621 165.746 46.4779 166.2 46.4779H168.118C168.629 46.4779 169.052 46.4668 169.389 46.4446C169.725 46.4224 169.99 46.3574 170.184 46.2495C170.38 46.1416 170.52 45.9623 170.602 45.7117C170.685 45.4578 170.726 45.1025 170.726 44.6455H171.64C171.64 45.2294 171.578 45.6958 171.454 46.0448C171.331 46.3939 171.131 46.6572 170.855 46.8349C170.582 47.0094 170.22 47.1252 169.77 47.1824C169.322 47.2395 168.772 47.268 168.118 47.268H166.2C165.486 47.268 164.899 47.2188 164.439 47.1205C163.979 47.0253 163.619 46.8476 163.358 46.5874C163.101 46.3272 162.921 45.9528 162.816 45.4642C162.714 44.9755 162.664 44.3393 162.664 43.5556Z" fill="#FC4739"/>
<path d="M176.414 47.268C175.7 47.268 175.113 47.2188 174.653 47.1205C174.193 47.0253 173.833 46.8476 173.572 46.5874C173.315 46.3272 173.134 45.9528 173.03 45.4642C172.928 44.9755 172.877 44.3393 172.877 43.5556V43.3652C172.877 42.7179 172.909 42.1754 172.973 41.7375C173.036 41.2964 173.146 40.9379 173.301 40.6618C173.457 40.3858 173.668 40.1748 173.934 40.0288C174.204 39.8829 174.542 39.7845 174.948 39.7337C175.354 39.6798 175.843 39.6528 176.414 39.6528H178.332C178.903 39.6528 179.392 39.6798 179.798 39.7337C180.204 39.7845 180.54 39.8829 180.807 40.0288C181.076 40.1748 181.289 40.3858 181.445 40.6618C181.6 40.9379 181.709 41.2964 181.773 41.7375C181.836 42.1754 181.868 42.7179 181.868 43.3652V43.5556C181.868 44.3393 181.816 44.9755 181.711 45.4642C181.61 45.9528 181.429 46.3272 181.168 46.5874C180.911 46.8476 180.553 47.0253 180.093 47.1205C179.633 47.2188 179.046 47.268 178.332 47.268H176.414ZM176.414 46.4779H178.332C178.786 46.4779 179.168 46.4621 179.479 46.4304C179.79 46.3986 180.042 46.3304 180.236 46.2257C180.432 46.121 180.581 45.9623 180.683 45.7497C180.788 45.5372 180.859 45.2532 180.897 44.8978C180.935 44.5424 180.954 44.095 180.954 43.5556V43.3652C180.954 42.8068 180.935 42.3467 180.897 41.985C180.859 41.6233 180.788 41.3377 180.683 41.1283C180.581 40.9189 180.432 40.7666 180.236 40.6714C180.042 40.573 179.79 40.5111 179.479 40.4857C179.168 40.4572 178.786 40.4429 178.332 40.4429H176.414C175.96 40.4429 175.578 40.4572 175.267 40.4857C174.956 40.5111 174.702 40.573 174.505 40.6714C174.312 40.7666 174.163 40.9189 174.058 41.1283C173.956 41.3377 173.886 41.6233 173.848 41.985C173.81 42.3467 173.791 42.8068 173.791 43.3652V43.5556C173.791 44.095 173.81 44.5424 173.848 44.8978C173.886 45.2532 173.956 45.5372 174.058 45.7497C174.163 45.9623 174.312 46.121 174.505 46.2257C174.702 46.3304 174.956 46.3986 175.267 46.4304C175.578 46.4621 175.96 46.4779 176.414 46.4779Z" fill="#FC4739"/>
<path d="M183.396 47.1157V39.8051H184.348L191.692 45.9877H191.701V39.8051H192.615V47.1157H191.663L184.319 40.8808H184.31V47.1157H183.396Z" fill="#FC4739"/>
<path d="M194.447 47.1157V39.8051H195.399L202.743 45.9877H202.753V39.8051H203.667V47.1157H202.715L195.371 40.8808H195.361V47.1157H194.447Z" fill="#FC4739"/>
<path d="M205.499 47.1157V39.8051H212.676V40.5667H206.413V43.0035H212.415V43.765H206.413V46.3542H212.81V47.1157H205.499Z" fill="#FC4739"/>
<path d="M213.723 43.5556V43.3652C213.723 42.7179 213.755 42.1754 213.819 41.7375C213.882 41.2964 213.992 40.9379 214.147 40.6618C214.303 40.3858 214.514 40.1748 214.78 40.0288C215.05 39.8829 215.388 39.7845 215.794 39.7337C216.2 39.6798 216.689 39.6528 217.26 39.6528H219.178C219.831 39.6528 220.382 39.6846 220.829 39.748C221.28 39.8083 221.642 39.9305 221.915 40.1145C222.191 40.2954 222.39 40.5635 222.514 40.9189C222.638 41.2711 222.7 41.7391 222.7 42.3229H221.786C221.786 41.8628 221.745 41.5059 221.662 41.252C221.58 40.995 221.44 40.8094 221.243 40.6952C221.05 40.5809 220.785 40.5111 220.449 40.4857C220.112 40.4572 219.689 40.4429 219.178 40.4429H217.26C216.806 40.4429 216.424 40.4572 216.113 40.4857C215.802 40.5111 215.548 40.573 215.351 40.6714C215.158 40.7666 215.009 40.9189 214.904 41.1283C214.802 41.3377 214.732 41.6233 214.694 41.985C214.656 42.3467 214.637 42.8068 214.637 43.3652V43.5556C214.637 44.095 214.656 44.5424 214.694 44.8978C214.732 45.2532 214.802 45.5372 214.904 45.7497C215.009 45.9623 215.158 46.121 215.351 46.2257C215.548 46.3304 215.802 46.3986 216.113 46.4304C216.424 46.4621 216.806 46.4779 217.26 46.4779H219.178C219.689 46.4779 220.112 46.4668 220.449 46.4446C220.785 46.4224 221.05 46.3574 221.243 46.2495C221.44 46.1416 221.58 45.9623 221.662 45.7117C221.745 45.4578 221.786 45.1025 221.786 44.6455H222.7C222.7 45.2294 222.638 45.6958 222.514 46.0448C222.39 46.3939 222.191 46.6572 221.915 46.8349C221.642 47.0094 221.28 47.1252 220.829 47.1824C220.382 47.2395 219.831 47.268 219.178 47.268H217.26C216.546 47.268 215.959 47.2188 215.499 47.1205C215.039 47.0253 214.679 46.8476 214.418 46.5874C214.161 46.3272 213.98 45.9528 213.876 45.4642C213.774 44.9755 213.723 44.3393 213.723 43.5556Z" fill="#FC4739"/>
<path d="M227.431 47.1157V40.5667H223.776V39.8051H232V40.5667H228.345V47.1157H227.431Z" fill="#FC4739"/>
</svg>
