<svg width="9" height="11" viewBox="0 0 9 11" fill="none" xmlns="http://www.w3.org/2000/svg">
<path d="M5 5.68937V0.896484C5 0.620344 4.77614 0.396484 4.5 0.396484C4.22386 0.396484 4 0.620344 4 0.896484V5.68937L2.35355 4.04293C2.15829 3.84766 1.84171 3.84766 1.64645 4.04293C1.45118 4.23819 1.45118 4.55477 1.64645 4.75003L4.5 7.60358L7.3536 4.75003C7.5488 4.55477 7.5488 4.23819 7.3536 4.04293C7.1583 3.84767 6.8417 3.84767 6.6464 4.04293L5 5.68937Z" fill="#2E3645"/>
<path d="M0.5 7.60352C0.77614 7.60352 1 7.82738 1 8.10352V8.90352C1 9.29012 1.3134 9.60352 1.7 9.60352H7.3C7.6866 9.60352 8 9.29012 8 8.90352V8.10352C8 7.82738 8.2239 7.60352 8.5 7.60352C8.7761 7.60352 9 7.82738 9 8.10352V8.90352C9 9.84242 8.2389 10.6035 7.3 10.6035H1.7C0.76112 10.6035 0 9.84242 0 8.90352V8.10352C0 7.82738 0.22386 7.60352 0.5 7.60352Z" fill="#2E3645"/>
</svg>
