<svg width="192" height="193" viewBox="0 0 192 193" fill="none" xmlns="http://www.w3.org/2000/svg">
<path d="M102.562 101.821C102.562 101.821 109.565 102.18 115.095 101.361L115.501 114.264C115.501 114.264 109.717 114.776 102.714 114.776L102.562 101.821Z" fill="#FC4739"/>
<path d="M102.814 127.576C102.814 127.576 108.396 127.679 115.602 127.167C115.602 127.167 115.704 135.871 115.348 139.251C115.348 139.251 109.766 139.865 102.612 139.814L102.814 127.576Z" fill="#FC4739"/>
<path d="M102.563 150.823C102.563 150.823 108.905 150.977 114.894 150.414C114.894 150.414 114.488 155.432 114.031 160.398C114.031 160.398 107.535 160.859 102.156 160.962L102.562 150.823H102.563Z" fill="#FC4739"/>
<path d="M101.291 177.089C106.467 177.089 111.236 176.73 111.236 176.73C112.2 173.607 112.759 169.152 112.759 169.152C107.075 169.767 101.747 169.613 101.747 169.613L101.291 177.088V177.089Z" fill="#FC4739"/>
<path d="M100.529 183.182C100.529 183.182 105.045 183.233 109.613 182.772C109.613 182.772 108.954 185.435 107.583 187.739C107.583 187.739 103.929 187.995 100.023 187.842L100.53 183.182L100.529 183.182Z" fill="#FC4739"/>
<path d="M99.2658 191.171C99.2658 191.171 102.463 191.068 105.457 190.71C105.457 190.71 105.101 191.581 103.122 192.554C103.122 192.554 100.177 192.758 98.5798 192.554C98.5798 192.554 99.063 191.888 99.2658 191.171Z" fill="#FC4739"/>
<path d="M101.852 76.5263C101.852 76.5263 109.108 76.6796 113.117 76.0657C113.117 76.0657 113.675 81.2886 114.233 88.5082C114.233 88.5082 108.296 89.0716 102.207 89.0716C102.207 89.0716 102.359 83.388 101.852 76.5271V76.5263Z" fill="#FC4739"/>
<path d="M100.937 52.9707C100.937 52.9707 105.403 52.9193 110.021 52.51C110.021 52.51 110.984 57.6816 111.746 64.1331C111.746 64.1331 106.519 64.3891 101.495 64.3891C101.495 64.3891 101.343 58.3982 100.937 52.9707Z" fill="#FC4739"/>
<path d="M99.5146 32.3379C99.5146 32.3379 102.712 32.2865 106.06 32.0305C106.06 32.0305 107.177 36.3827 108.141 41.8616C108.141 41.8616 104.436 42.169 100.225 42.1176C100.225 42.1176 99.9712 37.0488 99.5146 32.3379Z" fill="#FC4739"/>
<path d="M97.7915 15.5925C97.7915 15.5925 99.5562 15.6953 101.211 15.5925C101.211 15.5925 102.612 19.0389 103.83 23.2549C103.83 23.2549 101.423 23.3396 98.6431 23.2549C98.6431 23.2549 98.4007 19.4327 97.7915 15.5925Z" fill="#FC4739"/>
<path d="M96.0164 4.50146C96.0164 4.50146 96.5747 6.58949 96.8284 9.35014C96.8284 9.35014 98.1988 9.34607 98.6553 9.24334C98.6553 9.24334 97.5895 6.62047 96.0164 4.50146Z" fill="#FC4739"/>
<path d="M100.279 9.03869C100.279 9.03869 98.6044 6.62128 96.0164 4.50146C96.0164 4.50146 98.909 5.96659 101.903 8.78268C101.903 8.78268 101.141 8.98733 100.279 9.03869Z" fill="#FC4739"/>
<path d="M104.539 15.0812C104.539 15.0812 106.163 15.0298 107.786 14.8252C107.786 14.8252 110.78 18.1533 113.063 22.1981C113.063 22.1981 110.983 22.5055 108.446 22.7101C108.446 22.7101 106.67 19.0746 104.538 15.0812H104.539Z" fill="#FC4739"/>
<path d="M112.202 31.4149C112.202 31.4149 115.196 31.1075 118.037 30.5955C118.037 30.5955 120.625 34.8457 122.909 40.2732C122.909 40.2732 119.408 40.888 115.703 41.2973C115.703 41.2973 114.079 36.4331 112.202 31.4149Z" fill="#FC4739"/>
<path d="M118.799 51.6924C118.799 51.6924 123.011 51.2832 126.969 50.5657C126.969 50.5657 129.049 55.8905 130.774 61.9842C130.774 61.9842 126.461 62.7008 121.539 63.1615C121.539 63.1615 120.524 57.3246 118.799 51.6916V51.6924Z" fill="#FC4739"/>
<path d="M123.672 75.0927C123.672 75.0927 125.978 74.8221 128.848 74.4274C130.411 74.2122 132.089 74.0744 133.77 73.6594C133.77 73.6594 135.191 77.7042 136.307 86.3066C136.307 86.3066 131.436 87.0746 125.448 87.638C125.448 87.638 125.245 81.4938 123.672 75.0936V75.0927Z" fill="#FC4739"/>
<path d="M126.87 100.234C126.87 100.234 132.503 99.6708 137.984 98.7495C137.984 98.7495 138.897 104.586 139.1 111.653C139.1 111.653 133.772 112.574 127.53 113.137C127.53 113.137 127.581 107.045 126.871 100.234H126.87Z" fill="#FC4739"/>
<path d="M127.833 125.989C127.833 125.989 133.617 125.425 139.402 124.401C139.402 124.401 139.453 130.648 138.946 136.792C138.946 136.792 133.77 137.765 127.529 138.277C127.529 138.277 127.783 132.593 127.833 125.989H127.833Z" fill="#FC4739"/>
<path d="M126.663 149.336C126.663 149.336 131.737 148.824 137.675 147.851C137.675 147.851 137.015 153.33 135.747 157.99C135.747 157.99 131.129 158.911 125.192 159.373C125.192 159.373 126.105 154.304 126.663 149.337V149.336Z" fill="#FC4739"/>
<path d="M123.166 168.18C123.166 168.18 127.986 167.822 133.111 166.9C133.111 166.9 131.589 171.048 129.711 174.735C129.711 174.735 125.703 175.451 120.729 175.912C120.729 175.912 122.201 172.174 123.165 168.18H123.166Z" fill="#FC4739"/>
<path d="M117.987 182.056C117.987 182.056 121.793 181.851 125.903 181.134C125.903 181.134 124.076 183.848 121.641 186.203C121.641 186.203 118.292 186.766 114.842 186.971C114.842 186.971 117.125 184.411 117.988 182.056H117.987Z" fill="#FC4739"/>
<path d="M111.442 190.25C111.442 190.25 114.132 189.994 116.821 189.533C116.821 189.533 115.299 190.557 112.559 191.428C112.559 191.428 110.427 191.889 107.789 192.196C107.789 192.196 110.225 191.069 111.443 190.251L111.442 190.25Z" fill="#FC4739"/>
<path d="M96.1432 4.50717C101.066 6.14595 104.668 8.29594 104.668 8.29594C103.907 8.44922 103.146 8.55195 103.146 8.55195C100.051 6.24787 96.0164 4.50146 96.0164 4.50146" fill="#FC4739"/>
<path d="M110.451 14.1849C110.451 14.1849 114.054 17.3598 117.099 21.3018C117.099 21.3018 119.026 20.9431 121.006 20.4824C121.006 20.4824 117.149 16.6464 113.064 13.5979C113.064 13.5979 111.973 13.8776 110.451 14.1841V14.1849Z" fill="#FC4739"/>
<path d="M123.542 29.5975C123.542 29.5975 126.993 34.3597 129.428 39.0193C129.428 39.0193 132.372 38.354 135.315 37.5346C135.315 37.5346 131.965 32.6704 128.464 28.4202C128.464 28.4202 126.029 29.1368 123.542 29.5975Z" fill="#FC4739"/>
<path d="M134.556 49.1562C134.556 49.1562 137.195 54.7884 139.173 60.2159C139.173 60.2159 143.132 59.4479 146.887 58.3211C146.887 58.3211 144.299 52.7403 141.356 47.3633C141.356 47.3633 138.007 48.3873 134.556 49.1553L134.556 49.1562Z" fill="#FC4739"/>
<path d="M142.981 71.9418C142.981 71.9418 145.061 78.5467 146.228 84.2302C146.228 84.2302 150.795 83.2576 155.159 81.9262C155.159 81.9262 153.434 75.6792 151.404 69.791C151.404 69.791 147.142 71.0197 142.981 71.9418Z" fill="#FC4739"/>
<path d="M148.358 96.8265C148.358 96.8265 149.423 103.431 149.778 109.525C149.778 109.525 154.65 108.501 159.419 107.221C159.419 107.221 158.81 100.769 157.745 94.5225C157.745 94.5225 153.178 95.8539 148.358 96.8265Z" fill="#FC4739"/>
<path d="M150.084 122.531C150.084 122.531 150.236 128.471 149.475 134.718C149.475 134.718 154.702 133.694 159.167 132.311C159.167 132.311 159.979 125.706 159.776 119.971C159.776 119.971 154.956 121.559 150.084 122.531Z" fill="#FC4739"/>
<path d="M147.952 145.88C147.952 145.88 146.988 151.051 145.517 156.12C145.517 156.12 149.983 155.199 154.347 154.072C154.347 154.072 156.174 148.849 157.087 143.626C157.087 143.626 152.723 145.009 147.953 145.879L147.952 145.88Z" fill="#FC4739"/>
<path d="M142.219 165.132C142.219 165.132 140.392 169.639 138.21 173.018C138.21 173.018 142.016 172.353 145.517 171.405C145.517 171.405 148.511 167.489 150.338 163.085C150.338 163.085 146.329 164.365 142.219 165.133V165.132Z" fill="#FC4739"/>
<path d="M133.286 179.672C133.286 179.672 131.053 182.744 128.212 184.792C128.212 184.792 131.663 184.258 133.286 183.783C133.286 183.783 136.991 181.208 140.085 178.033C140.085 178.033 136.787 179.006 133.286 179.672Z" fill="#FC4739"/>
<path d="M121.921 188.533C121.921 188.533 119.942 189.352 117.861 190.172C117.861 190.172 119.688 189.864 122.53 189.199C122.53 189.199 124.56 188.584 126.742 187.458C126.742 187.458 124.357 188.124 121.922 188.534L121.921 188.533Z" fill="#FC4739"/>
<path d="M146.075 176.192C146.075 176.192 142.777 179.162 139.022 181.876C139.022 181.876 141.661 181.056 143.082 180.237C143.082 180.237 147.801 177.216 150.897 174.246C150.897 174.246 148.41 175.423 146.076 176.191L146.075 176.192Z" fill="#FC4739"/>
<path d="M157.796 160.73C157.796 160.73 155.361 165.389 152.519 168.974C152.519 168.974 155.548 168.001 158.094 166.9C158.094 166.9 161.349 162.881 164.191 158.068C164.191 158.068 160.74 159.707 157.797 160.731L157.796 160.73Z" fill="#FC4739"/>
<path d="M169.47 155.15C169.47 155.15 167.592 158.682 163.228 163.854C163.228 163.854 165.41 162.516 166.349 161.546C166.349 161.546 170.84 155.969 172.413 153.153C172.413 153.153 171.144 154.28 169.469 155.15H169.47Z" fill="#FC4739"/>
<path d="M165.458 141.018C165.458 141.018 164.241 146.548 162.261 151.566C162.261 151.566 165.61 150.285 169.111 148.647C169.111 148.647 171.137 143.936 172.687 138.278C172.687 138.278 169.213 139.84 165.457 141.018H165.458Z" fill="#FC4739"/>
<path d="M178.624 134.718C178.624 134.718 176.774 141.785 174.795 145.42C174.795 145.42 177.23 143.987 179.21 141.887C179.21 141.887 181.391 137.075 183.117 131.34C183.117 131.34 181.083 133.439 178.624 134.719V134.718Z" fill="#FC4739"/>
<path d="M184.59 130.826C184.59 130.826 183.424 134.922 180.277 141.067L180.734 140.811C180.734 140.811 184.032 135.639 185.707 129.546C185.707 129.546 184.895 130.775 184.59 130.826Z" fill="#FC4739"/>
<path d="M168.402 117.259C168.402 117.259 168.405 123.558 167.744 129.548C167.744 129.548 171.599 128.268 175.151 126.578C175.151 126.578 175.862 120.587 175.913 114.187C175.913 114.187 172.614 115.979 168.402 117.259V117.259Z" fill="#FC4739"/>
<path d="M182.104 110.806C182.104 110.806 181.85 118.537 181.191 123.197C181.191 123.197 183.423 122.02 185.961 119.51C185.961 119.51 186.722 113.622 186.823 107.222C186.823 107.222 184.743 109.167 182.104 110.806Z" fill="#FC4739"/>
<path d="M189.968 103.28C189.968 103.28 189.664 112.599 188.953 115.774C188.953 115.774 189.41 115.514 189.968 113.954C189.968 113.954 190.628 110.141 190.881 101.693C190.881 101.693 190.476 102.513 189.968 103.281V103.28Z" fill="#FC4739"/>
<path d="M166.122 91.8621C166.122 91.8621 167.442 97.8531 168 104.561C168 104.561 172.262 103.178 175.358 101.54C175.358 101.54 174.799 95.1911 173.328 88.79C173.328 88.79 169.674 90.7354 166.122 91.8621Z" fill="#FC4739"/>
<path d="M179.314 85.5638C179.314 85.5638 180.887 91.9126 181.496 98.2109C181.496 98.2109 184.165 96.3161 186.358 94.2942C186.358 94.2942 185.606 88.8413 183.932 82.031C183.932 82.031 181.8 83.8744 179.314 85.5638Z" fill="#FC4739"/>
<path d="M186.975 78.2893C186.975 78.2893 188.954 84.2289 189.309 90.6291C189.309 90.6291 190.172 89.349 190.781 87.2496C190.781 87.2496 190.781 81.8734 188.446 74.3464C188.446 74.3464 187.99 76.2918 186.975 78.2893Z" fill="#FC4739"/>
<path d="M191.592 100.412L192 99.4365C192 99.4365 191.899 106.368 190.73 112.376L190.628 112.548C190.628 112.548 191.794 106.813 191.592 100.412Z" fill="#FC4739"/>
<path d="M188.877 72.9468L188.962 71.9016C188.962 71.9016 190.796 78.5546 191.371 84.773C191.371 84.773 191.338 85.0005 191.237 85.2565C191.237 85.2565 190.627 79.4196 188.877 72.9468Z" fill="#FC4739"/>
<path d="M158.863 67.539C158.863 67.539 161.502 73.8373 163.227 79.5714C163.227 79.5714 166.678 78.24 170.078 76.7039C170.078 76.7039 167.845 70.0991 165.257 64.7734C165.257 64.7734 162.364 66.2581 158.863 67.5382V67.539Z" fill="#FC4739"/>
<path d="M170.735 61.9671C170.735 61.9671 173.754 67.2079 175.784 73.454C175.784 73.454 178.118 71.918 180.148 70.0232C180.148 70.0232 177.916 64.3396 174.871 58.7588C174.871 58.7588 172.943 60.4131 170.736 61.9671H170.735Z" fill="#FC4739"/>
<path d="M177.612 55.4294C177.612 55.4294 181.012 61.0103 183.093 66.6938C183.093 66.6938 183.956 65.2605 184.615 62.9051C184.615 62.9051 182.281 57.6308 178.932 51.7939C178.932 51.7939 178.475 53.9447 177.612 55.4294Z" fill="#FC4739"/>
<path d="M179.339 49.6448C179.339 49.6448 179.512 49.1336 179.4 48.3142C179.4 48.3142 182.828 53.8543 185.117 60.173C185.117 60.173 185.073 60.4999 185.022 60.91C185.022 60.91 182.79 54.9704 179.339 49.6456V49.6448Z" fill="#FC4739"/>
<path d="M147.598 45.4717C147.598 45.4717 150.947 50.6432 153.789 56.2754C153.789 56.2754 156.906 55.1487 159.762 53.792C159.762 53.792 156.225 47.4684 152.876 43.2695C152.876 43.2695 150.49 44.4982 147.598 45.4709L147.598 45.4717Z" fill="#FC4739"/>
<path d="M157.239 40.9146C157.239 40.9146 161.552 45.9834 164.647 51.053C164.647 51.053 166.779 49.6702 168.352 48.1342C168.352 48.1342 164.952 42.9113 160.69 38.3545C160.69 38.3545 159.269 39.5832 157.239 40.9146Z" fill="#FC4739"/>
<path d="M163.026 35.6892C163.026 35.6892 167.441 40.0414 170.942 45.0596C170.942 45.0596 171.805 43.5236 172.109 41.6288C172.109 41.6288 168.354 36.9692 164.091 32.6685C164.091 32.6685 163.735 34.2559 163.025 35.6892H163.026Z" fill="#FC4739"/>
<path d="M163.785 29.7005C163.785 29.7005 167.844 33.1827 171.874 38.3543C171.874 38.3543 171.322 36.731 170.319 35.0596C170.319 35.0596 166.883 30.6781 161.883 25.9656C161.883 25.9656 163.175 27.8579 163.784 29.7013L163.785 29.7005Z" fill="#FC4739"/>
<path d="M132.98 27.1388C132.98 27.1388 137.192 31.0303 140.718 35.9458C140.718 35.9458 142.976 35.0245 145.158 33.8978C145.158 33.8978 141.199 29.341 136.633 25.4495C136.633 25.4495 134.958 26.3202 132.979 27.1388H132.98Z" fill="#FC4739"/>
<path d="M139.934 23.762C139.934 23.762 144.653 27.4489 149.118 31.8524C149.118 31.8524 150.589 30.8284 151.909 29.5483C151.909 29.5483 147.342 25.5541 142.268 21.9194C142.268 21.9194 141.253 22.8407 139.934 23.7629V23.762Z" fill="#FC4739"/>
<path d="M143.891 19.9697C143.891 19.9697 148.965 23.0418 153.989 27.1893C153.989 27.1893 154.599 25.9606 154.903 24.732C154.903 24.732 149.98 20.9937 144.703 17.8711C144.703 17.8711 144.805 19.0998 143.891 19.9705V19.9697Z" fill="#FC4739"/>
<path d="M144.551 15.7728C144.551 15.7728 149.169 18.0255 154.7 22.173C154.7 22.173 154.243 20.8416 153.33 19.5615C153.33 19.5615 148.966 16.3867 143.435 13.6733C143.435 13.6733 144.298 14.8507 144.551 15.7728Z" fill="#FC4739"/>
<path d="M141.865 11.9321C141.865 11.9321 140.035 10.5086 138.413 9.58154C138.413 9.58154 143.897 12.2052 148.869 15.6018C148.869 15.6018 149.527 16.0796 150.289 16.7449C150.289 16.7449 146.076 14.0821 141.865 11.9321Z" fill="#FC4739"/>
<path d="M186.566 128.267L186.904 127.619C186.904 127.619 184.861 133.692 182.212 138.994C182.212 138.994 184.993 133.49 186.566 128.267Z" fill="#FC4739"/>
<path d="M155.667 171.638C155.667 171.638 156.818 171.154 158.019 170.142C159.219 169.129 153.882 173.737 152.694 174.249C152.694 174.249 154.703 172.867 155.667 171.638Z" fill="#FC4739"/>
<path d="M175.201 150.744L176.1 149.695C176.1 149.695 173.127 154.543 169.268 158.839C169.268 158.839 173.273 154.174 175.202 150.744L175.201 150.744Z" fill="#FC4739"/>
<path d="M115.527 12.9058C115.527 12.9058 120.425 15.6909 124.497 19.4438C124.497 19.4438 125.93 18.8454 127.3 18.0774C127.3 18.0774 122.277 14.6465 117.354 12.0864C117.354 12.0864 116.542 12.5471 115.527 12.9058Z" fill="#FC4739"/>
<path d="M119.181 11.1126C119.181 11.1126 124.712 13.7754 129.787 16.8989C129.787 16.8989 130.751 16.1822 131.614 15.3629C131.614 15.3629 126.083 12.2907 120.4 10.2427C120.4 10.2427 120.044 10.652 119.182 11.1134L119.181 11.1126Z" fill="#FC4739"/>
<path d="M121.16 9.16564C121.16 9.16564 126.844 10.855 132.781 13.8252C132.781 13.8252 133.339 13.1085 133.288 12.2377C133.288 12.2377 127.808 9.8823 121.668 8.1416C121.668 8.1416 121.566 8.60225 121.16 9.16564Z" fill="#FC4739"/>
<path d="M121.618 6.96592C121.618 6.96592 127.308 8.27287 133.292 10.4864C133.292 10.4864 133.035 9.78202 132.527 9.1159C132.527 9.1159 127.758 7.27248 121.16 5.99243C121.16 5.99243 121.617 6.50445 121.617 6.9651L121.618 6.96592Z" fill="#FC4739"/>
<path d="M120.091 4.91778C120.091 4.91778 125.267 5.63444 130.9 7.52923C130.9 7.52923 130.269 6.81257 129.087 6.14646C129.087 6.14646 124.811 4.81505 118.417 3.79102C118.417 3.79102 119.787 4.55904 120.091 4.91778Z" fill="#FC4739"/>
<path d="M114.716 2.15308C114.716 2.15308 116.34 2.56236 117.76 3.17711C117.76 3.17711 121.921 3.68913 126.234 4.76453L124.33 3.97857C124.33 3.97857 120.856 3.02383 114.716 2.15308Z" fill="#FC4739"/>
<path d="M111.72 1.3849C111.72 1.3849 111.514 1.20716 109.207 0.656006C109.207 0.656006 113.457 1.22183 116.693 1.99964C116.693 1.99964 113.394 1.33435 111.719 1.3849H111.72Z" fill="#FC4739"/>
<path d="M96.0164 4.49268C96.0164 4.49268 101.167 5.7874 105.734 7.88683C105.734 7.88683 106.495 7.68219 106.825 7.52809C106.825 7.52809 101.217 5.65613 96.0164 4.49268Z" fill="#FC4739"/>
<path d="M95.9922 4.50887C95.9922 4.50887 102.259 5.54514 107.714 6.96623C107.714 6.96623 107.968 6.81295 108.323 6.40285C108.323 6.40285 102.741 5.37881 95.9922 4.50806V4.50887Z" fill="#FC4739"/>
<path d="M96.0164 4.48584C96.0164 4.48584 102.44 5.12179 108.704 5.99254C108.704 5.99254 108.88 5.73653 108.88 5.37779C108.88 5.37779 102.892 4.87311 96.0164 4.48584Z" fill="#FC4739"/>
<path d="M96.0164 4.48035C96.0164 4.48035 102.537 4.56136 108.804 4.76674C108.804 4.76674 108.779 4.53027 108.321 4.2627C108.321 4.2627 102.537 4.29624 96.0164 4.48035Z" fill="#FC4739"/>
<path d="M96.0164 4.46623C96.0164 4.46623 102.072 3.99742 107.937 3.79278C107.937 3.79278 107.662 3.48541 107.003 3.28076C107.003 3.28076 102.182 3.70636 96.0164 4.46623Z" fill="#FC4739"/>
<path d="M96.0164 4.44294C96.0164 4.44294 101.116 3.58686 106.242 2.8702C106.242 2.8702 106.039 2.66066 104.668 2.43237C104.668 2.43237 100.812 3.14822 96.0164 4.44294Z" fill="#FC4739"/>
<path d="M96.0164 4.44765C96.0164 4.44765 100.102 3.12521 104.059 2.10117C104.059 2.10117 103.247 1.84516 102.486 1.74243C102.486 1.74243 99.4415 2.69717 96.0164 4.44683V4.44765Z" fill="#FC4739"/>
<path d="M96.0164 4.45377C96.0164 4.45377 98.5284 2.51169 101.268 1.53902C101.268 1.53902 100.355 1.43629 99.5433 1.38574C99.5433 1.38574 97.9192 2.29971 96.0164 4.45377Z" fill="#FC4739"/>
<path d="M96.0164 4.46972C96.0164 4.46972 96.8534 2.61325 98.021 1.23047C98.021 1.23047 97.108 1.12774 96.3969 1.23047C96.3969 1.23047 96.1941 2.07595 96.0164 4.46972Z" fill="#FC4739"/>
<path d="M89.4388 101.808C89.4388 101.808 82.4359 102.167 76.9051 101.347L76.4995 114.25C76.4995 114.25 82.284 114.762 89.2869 114.762L89.4388 101.808Z" fill="#FC4739"/>
<path d="M89.1866 127.565C89.1866 127.565 83.605 127.667 76.3992 127.155C76.3992 127.155 76.2974 135.86 76.653 139.239C76.653 139.239 82.2346 139.854 89.3895 139.802L89.1866 127.565Z" fill="#FC4739"/>
<path d="M89.44 150.81C89.44 150.81 83.0972 150.963 77.1091 150.4C77.1091 150.4 77.5147 155.419 77.9721 160.385C77.9721 160.385 84.4676 160.845 89.8464 160.948L89.4408 150.81H89.44Z" fill="#FC4739"/>
<path d="M90.7067 177.078C85.5307 177.078 80.761 176.719 80.761 176.719C79.7971 173.596 79.2388 169.141 79.2388 169.141C84.9222 169.755 90.2502 169.601 90.2502 169.601L90.7067 177.077V177.078Z" fill="#FC4739"/>
<path d="M91.4678 183.172C91.4678 183.172 86.9519 183.223 82.3843 182.763C82.3843 182.763 83.0436 185.426 84.414 187.73C84.414 187.73 88.0678 187.986 91.9744 187.832L91.467 183.173L91.4678 183.172Z" fill="#FC4739"/>
<path d="M92.7368 191.159C92.7368 191.159 89.5395 191.056 86.5459 190.698C86.5459 190.698 86.9014 191.569 88.8802 192.542C88.8802 192.542 91.8254 192.747 93.4228 192.542C93.4228 192.542 92.9396 191.877 92.7368 191.159Z" fill="#FC4739"/>
<path d="M90.1481 76.5156C90.1481 76.5156 82.8915 76.6689 78.883 76.0549C78.883 76.0549 78.3247 81.2778 77.7664 88.4975C77.7664 88.4975 83.7035 89.0608 89.7926 89.0608C89.7926 89.0608 89.6407 83.3773 90.1481 76.5164V76.5156Z" fill="#FC4739"/>
<path d="M91.0633 52.9592C91.0633 52.9592 86.5974 52.9078 81.9797 52.4985C81.9797 52.4985 81.0158 57.6701 80.2546 64.1217C80.2546 64.1217 85.4816 64.3777 90.5049 64.3777C90.5049 64.3777 90.6568 58.3867 91.0633 52.9592Z" fill="#FC4739"/>
<path d="M92.4827 32.3264C92.4827 32.3264 89.2854 32.2751 85.937 32.019C85.937 32.019 84.8204 36.3712 83.8564 41.8501C83.8564 41.8501 87.5611 42.1575 91.7724 42.1061C91.7724 42.1061 92.0261 37.0373 92.4827 32.3264Z" fill="#FC4739"/>
<path d="M94.2098 15.5828C94.2098 15.5828 92.4451 15.6855 90.7904 15.5828C90.7904 15.5828 89.3893 19.0291 88.1716 23.2451C88.1716 23.2451 90.5787 23.3299 93.3582 23.2451C93.3582 23.2451 93.6006 19.4229 94.2098 15.5828Z" fill="#FC4739"/>
<path d="M95.9841 4.49268C95.9841 4.49268 95.4258 6.5807 95.1721 9.34135C95.1721 9.34135 93.8017 9.33728 93.3452 9.23455C93.3452 9.23455 94.411 6.61168 95.9841 4.49268Z" fill="#FC4739"/>
<path d="M91.7222 9.0299C91.7222 9.0299 93.3964 6.61249 95.9844 4.49268C95.9844 4.49268 93.0918 5.9578 90.0981 8.77389C90.0981 8.77389 90.8593 8.97854 91.7222 9.0299Z" fill="#FC4739"/>
<path d="M87.4592 15.0705C87.4592 15.0705 85.8351 15.0191 84.2119 14.8145C84.2119 14.8145 81.2182 18.1426 78.9348 22.1873C78.9348 22.1873 81.0154 22.4947 83.5525 22.6994C83.5525 22.6994 85.3285 19.0639 87.46 15.0705H87.4592Z" fill="#FC4739"/>
<path d="M79.7974 31.4053C79.7974 31.4053 76.8037 31.098 73.962 30.5859C73.962 30.5859 71.374 34.8362 69.0906 40.2637C69.0906 40.2637 72.5916 40.8785 76.2963 41.2878C76.2963 41.2878 77.9204 36.4236 79.7974 31.4053Z" fill="#FC4739"/>
<path d="M73.2017 51.6819C73.2017 51.6819 68.9896 51.2727 65.032 50.5552C65.032 50.5552 62.9514 55.88 61.2263 61.9737C61.2263 61.9737 65.5394 62.6903 70.4618 63.151C70.4618 63.151 71.4766 57.3141 73.2017 51.6811V51.6819Z" fill="#FC4739"/>
<path d="M68.3296 75.082C68.3296 75.082 66.0236 74.8113 63.1535 74.4167C61.5909 74.2015 59.9127 74.0637 58.2312 73.6487C58.2312 73.6487 56.8107 77.6935 55.6941 86.2958C55.6941 86.2958 60.5655 87.0639 66.5536 87.6273C66.5536 87.6273 66.7564 81.483 68.3296 75.0828V75.082Z" fill="#FC4739"/>
<path d="M65.1317 100.221C65.1317 100.221 59.4992 99.6571 54.0185 98.7358C54.0185 98.7358 53.1055 104.573 52.9019 111.639C52.9019 111.639 58.2298 112.56 64.4716 113.124C64.4716 113.124 64.4207 107.031 65.1309 100.221H65.1317Z" fill="#FC4739"/>
<path d="M64.1683 125.977C64.1683 125.977 58.3839 125.413 52.5986 124.389C52.5986 124.389 52.5477 130.636 53.0551 136.781C53.0551 136.781 58.2312 137.753 64.4721 138.265C64.4721 138.265 64.2184 132.582 64.1675 125.977H64.1683Z" fill="#FC4739"/>
<path d="M65.3359 149.327C65.3359 149.327 60.2616 148.815 54.3245 147.843C54.3245 147.843 54.9838 153.321 56.2523 157.981C56.2523 157.981 60.8701 158.902 66.8073 159.364C66.8073 159.364 65.8942 154.295 65.3359 149.328V149.327Z" fill="#FC4739"/>
<path d="M68.8351 168.169C68.8351 168.169 64.0145 167.81 58.8894 166.889C58.8894 166.889 60.4117 171.036 62.2895 174.723C62.2895 174.723 66.298 175.44 71.2712 175.901C71.2712 175.901 69.7998 172.162 68.8359 168.169H68.8351Z" fill="#FC4739"/>
<path d="M74.0112 182.045C74.0112 182.045 70.2055 181.84 66.0952 181.124C66.0952 181.124 67.9221 183.838 70.3574 186.192C70.3574 186.192 73.7066 186.756 77.1567 186.96C77.1567 186.96 74.8733 184.4 74.0104 182.045H74.0112Z" fill="#FC4739"/>
<path d="M80.5573 190.238C80.5573 190.238 77.8675 189.982 75.1785 189.521C75.1785 189.521 76.7007 190.546 79.4407 191.416C79.4407 191.416 81.5722 191.877 84.2103 192.184C84.2103 192.184 81.775 191.058 80.5565 190.239L80.5573 190.238Z" fill="#FC4739"/>
<path d="M95.8587 4.49838C90.9364 6.13717 87.3335 8.28715 87.3335 8.28715C88.0946 8.44043 88.8558 8.54316 88.8558 8.54316C91.9512 6.23908 95.9856 4.49268 95.9856 4.49268" fill="#FC4739"/>
<path d="M81.5483 14.1752C81.5483 14.1752 77.9454 17.35 74.9009 21.292C74.9009 21.292 72.973 20.9333 70.9934 20.4727C70.9934 20.4727 74.85 16.6366 78.9352 13.5881C78.9352 13.5881 80.026 13.8678 81.5483 14.1743V14.1752Z" fill="#FC4739"/>
<path d="M68.4552 29.585C68.4552 29.585 65.0042 34.3473 62.5689 39.0068C62.5689 39.0068 59.6254 38.3415 56.6826 37.5221C56.6826 37.5221 60.0318 32.658 63.5328 28.4077C63.5328 28.4077 65.9681 29.1244 68.4552 29.585Z" fill="#FC4739"/>
<path d="M57.4429 49.1464C57.4429 49.1464 54.804 54.7786 52.8252 60.2061C52.8252 60.2061 48.8668 59.4381 45.1121 58.3113C45.1121 58.3113 47.7001 52.7305 50.6428 47.3535C50.6428 47.3535 53.992 48.3775 57.4421 49.1456L57.4429 49.1464Z" fill="#FC4739"/>
<path d="M49.0197 71.9321C49.0197 71.9321 46.9391 78.5369 45.7724 84.2205C45.7724 84.2205 41.2056 83.2478 36.8416 81.9164C36.8416 81.9164 38.5666 75.6695 40.5963 69.7812C40.5963 69.7812 44.8585 71.0099 49.0197 71.9321Z" fill="#FC4739"/>
<path d="M43.6396 96.817C43.6396 96.817 42.5739 103.422 42.2192 109.516C42.2192 109.516 37.3477 108.492 32.5781 107.211C32.5781 107.211 33.1874 100.76 34.2523 94.5129C34.2523 94.5129 38.8191 95.8443 43.6396 96.817Z" fill="#FC4739"/>
<path d="M41.9176 122.521C41.9176 122.521 41.7657 128.46 42.5268 134.707C42.5268 134.707 37.2999 133.683 32.8349 132.3C32.8349 132.3 32.0228 125.695 32.2256 119.96C32.2256 119.96 37.0462 121.548 41.9176 122.521Z" fill="#FC4739"/>
<path d="M44.0495 145.87C44.0495 145.87 45.0134 151.042 46.4848 156.11C46.4848 156.11 42.019 155.189 37.655 154.062C37.655 154.062 35.8281 148.839 34.915 143.616C34.915 143.616 39.279 144.999 44.0487 145.869L44.0495 145.87Z" fill="#FC4739"/>
<path d="M49.7804 165.121C49.7804 165.121 51.6073 169.627 53.7889 173.007C53.7889 173.007 49.9832 172.341 46.4821 171.394C46.4821 171.394 43.4885 167.477 41.6616 163.074C41.6616 163.074 45.6701 164.354 49.7804 165.122V165.121Z" fill="#FC4739"/>
<path d="M58.7146 179.664C58.7146 179.664 60.9471 182.736 63.7888 184.784C63.7888 184.784 60.3379 184.25 58.7146 183.775C58.7146 183.775 55.0099 181.2 51.9153 178.025C51.9153 178.025 55.2135 178.998 58.7146 179.664Z" fill="#FC4739"/>
<path d="M70.0794 188.522C70.0794 188.522 72.0582 189.342 74.1388 190.161C74.1388 190.161 72.3119 189.854 69.4702 189.188C69.4702 189.188 67.4405 188.574 65.2581 187.448C65.2581 187.448 67.6433 188.113 70.0786 188.523L70.0794 188.522Z" fill="#FC4739"/>
<path d="M45.9261 176.183C45.9261 176.183 49.2243 179.154 52.9791 181.867C52.9791 181.867 50.3402 181.048 48.9197 180.228C48.9197 180.228 44.2002 177.207 41.1047 174.237C41.1047 174.237 43.591 175.415 45.9253 176.183L45.9261 176.183Z" fill="#FC4739"/>
<path d="M34.2014 160.718C34.2014 160.718 36.6367 165.378 39.4784 168.962C39.4784 168.962 36.4493 167.989 33.9041 166.888C33.9041 166.888 30.6486 162.869 27.8069 158.056C27.8069 158.056 31.2579 159.695 34.2006 160.719L34.2014 160.718Z" fill="#FC4739"/>
<path d="M22.5318 155.136C22.5318 155.136 24.4096 158.669 28.7736 163.84C28.7736 163.84 26.592 162.502 25.6531 161.533C25.6531 161.533 21.1623 155.955 19.5891 153.139C19.5891 153.139 20.8577 154.266 22.5327 155.136H22.5318Z" fill="#FC4739"/>
<path d="M26.5411 141.004C26.5411 141.004 27.7588 146.534 29.7384 151.552C29.7384 151.552 26.3892 150.272 22.8881 148.633C22.8881 148.633 20.8625 143.922 19.3127 138.265C19.3127 138.265 22.7863 139.826 26.5419 141.004H26.5411Z" fill="#FC4739"/>
<path d="M13.3734 134.709C13.3734 134.709 15.2237 141.775 17.2025 145.411C17.2025 145.411 14.7672 143.977 12.7876 141.878C12.7876 141.878 10.606 137.065 8.88013 131.33C8.88013 131.33 10.9147 133.43 13.3734 134.71V134.709Z" fill="#FC4739"/>
<path d="M7.41207 130.816C7.41207 130.816 8.57882 134.913 11.7252 141.057L11.2686 140.801C11.2686 140.801 7.97039 135.629 6.29541 129.536C6.29541 129.536 7.10745 130.765 7.41207 130.816Z" fill="#FC4739"/>
<path d="M23.5973 117.246C23.5973 117.246 23.5948 123.544 24.2558 129.534C24.2558 129.534 20.4 128.254 16.848 126.564C16.848 126.564 16.1378 120.573 16.0869 114.173C16.0869 114.173 19.3852 115.965 23.5973 117.245V117.246Z" fill="#FC4739"/>
<path d="M9.89824 110.795C9.89824 110.795 10.152 118.527 10.8113 123.186C10.8113 123.186 8.57877 122.009 6.04165 119.5C6.04165 119.5 5.28052 113.611 5.17871 107.211C5.17871 107.211 7.25931 109.157 9.89824 110.795Z" fill="#FC4739"/>
<path d="M2.03072 103.268C2.03072 103.268 2.33533 112.587 3.04556 115.762C3.04556 115.762 2.58904 115.502 2.03072 113.942C2.03072 113.942 1.37139 110.13 1.11768 101.681C1.11768 101.681 1.52329 102.501 2.03072 103.269V103.268Z" fill="#FC4739"/>
<path d="M25.8812 91.8504C25.8812 91.8504 24.5617 97.8414 24.0034 104.549C24.0034 104.549 19.7412 103.166 16.6458 101.528C16.6458 101.528 17.2041 95.1794 18.6754 88.7783C18.6754 88.7783 22.3292 90.7237 25.8812 91.8504Z" fill="#FC4739"/>
<path d="M12.6884 85.5542C12.6884 85.5542 11.1152 91.9031 10.5068 98.2014C10.5068 98.2014 7.83712 96.3066 5.64502 94.2846C5.64502 94.2846 6.39646 88.8318 8.07063 82.0215C8.07063 82.0215 10.2021 83.8649 12.6884 85.5542Z" fill="#FC4739"/>
<path d="M5.02492 78.2815C5.02492 78.2815 3.04613 84.2211 2.69061 90.6213C2.69061 90.6213 1.82766 89.3412 1.21924 87.2418C1.21924 87.2418 1.21924 81.8656 3.55355 74.3386C3.55355 74.3386 4.01007 76.284 5.02492 78.2815Z" fill="#FC4739"/>
<path d="M0.40804 100.401L0 99.425C0 99.425 0.101 106.356 1.26937 112.365L1.37198 112.536C1.37198 112.536 0.205232 106.801 0.40804 100.401Z" fill="#FC4739"/>
<path d="M3.12418 72.9351L3.03934 71.8899C3.03934 71.8899 1.20518 78.5429 0.629883 84.7613C0.629883 84.7613 0.663011 84.9887 0.764819 85.2448C0.764819 85.2448 1.37405 79.4079 3.12418 72.9351Z" fill="#FC4739"/>
<path d="M33.1403 67.5275C33.1403 67.5275 30.5013 73.8258 28.7762 79.5599C28.7762 79.5599 25.3253 78.2285 21.926 76.6925C21.926 76.6925 24.1585 70.0876 26.7466 64.762C26.7466 64.762 29.6392 66.2467 33.1403 67.5267V67.5275Z" fill="#FC4739"/>
<path d="M21.2633 61.9553C21.2633 61.9553 18.2438 67.1962 16.2141 73.4423C16.2141 73.4423 13.8798 71.9062 11.8501 70.0115C11.8501 70.0115 14.0826 64.3279 17.1271 58.7471C17.1271 58.7471 19.055 60.4013 21.2625 61.9553H21.2633Z" fill="#FC4739"/>
<path d="M14.3865 55.418C14.3865 55.418 10.9864 60.9988 8.90582 66.6823C8.90582 66.6823 8.04287 65.249 7.38354 62.8936C7.38354 62.8936 9.71786 57.6193 13.067 51.7825C13.067 51.7825 13.5235 53.9333 14.3865 55.418Z" fill="#FC4739"/>
<path d="M12.6624 49.6311C12.6624 49.6311 12.4886 49.1199 12.601 48.3005C12.601 48.3005 9.17342 53.8406 6.88354 60.1593C6.88354 60.1593 6.92798 60.4862 6.97889 60.8963C6.97889 60.8963 9.21139 54.9568 12.6624 49.6319V49.6311Z" fill="#FC4739"/>
<path d="M44.4054 45.4602C44.4054 45.4602 41.0562 50.6318 38.2145 56.264C38.2145 56.264 35.0972 55.1372 32.241 53.7805C32.241 53.7805 35.7784 47.4569 39.1276 43.2581C39.1276 43.2581 41.5128 44.4867 44.4046 45.4594L44.4054 45.4602Z" fill="#FC4739"/>
<path d="M34.7624 40.9031C34.7624 40.9031 30.4493 45.9719 27.3538 51.0415C27.3538 51.0415 25.2223 49.6588 23.6492 48.1227C23.6492 48.1227 27.0492 42.8998 31.3114 38.343C31.3114 38.343 32.7319 39.5717 34.7624 40.9031Z" fill="#FC4739"/>
<path d="M28.9758 35.6804C28.9758 35.6804 24.5609 40.0326 21.0598 45.0508C21.0598 45.0508 20.1969 43.5148 19.8931 41.62C19.8931 41.62 23.6478 36.9605 27.9108 32.6597C27.9108 32.6597 28.2664 34.2471 28.9766 35.6804H28.9758Z" fill="#FC4739"/>
<path d="M28.2146 29.69C28.2146 29.69 24.1552 33.1722 20.1257 38.3438C20.1257 38.3438 20.6776 36.7205 21.6811 35.0491C21.6811 35.0491 25.1167 30.6676 30.1167 25.9551C30.1167 25.9551 28.8247 27.8474 28.2154 29.6909L28.2146 29.69Z" fill="#FC4739"/>
<path d="M59.0175 27.1283C59.0175 27.1283 54.8054 31.0198 51.2793 35.9353C51.2793 35.9353 49.021 35.014 46.8394 33.8873C46.8394 33.8873 50.7977 29.3305 55.3646 25.439C55.3646 25.439 57.0387 26.3097 59.0183 27.1283H59.0175Z" fill="#FC4739"/>
<path d="M52.064 23.7513C52.064 23.7513 47.3445 27.4382 42.8795 31.8417C42.8795 31.8417 41.4081 30.8176 40.0886 29.5376C40.0886 29.5376 44.6554 25.5434 49.7297 21.9087C49.7297 21.9087 50.7445 22.83 52.064 23.7521V23.7513Z" fill="#FC4739"/>
<path d="M48.1049 19.9621C48.1049 19.9621 43.0307 23.0343 38.0065 27.1818C38.0065 27.1818 37.3973 25.9531 37.0935 24.7244C37.0935 24.7244 42.0158 20.9862 47.2929 17.8635C47.2929 17.8635 47.1911 19.0922 48.1049 19.963V19.9621Z" fill="#FC4739"/>
<path d="M47.4451 15.7611C47.4451 15.7611 42.8274 18.0138 37.2966 22.1613C37.2966 22.1613 37.7532 20.8299 38.667 19.5498C38.667 19.5498 43.031 16.375 48.5618 13.6616C48.5618 13.6616 47.6988 14.8389 47.4451 15.7611Z" fill="#FC4739"/>
<path d="M50.1368 11.9216C50.1368 11.9216 51.9669 10.4981 53.5894 9.57104C53.5894 9.57104 48.1047 12.1947 43.133 15.5913C43.133 15.5913 42.4745 16.0691 41.7134 16.7344C41.7134 16.7344 45.9255 14.0716 50.1368 11.9216Z" fill="#FC4739"/>
<path d="M5.43418 128.256L5.09644 127.607C5.09644 127.607 7.13987 133.681 9.78849 138.982C9.78849 138.982 7.00736 133.479 5.43418 128.256Z" fill="#FC4739"/>
<path d="M36.3323 171.626C36.3323 171.626 35.1809 171.143 33.9802 170.13C32.7803 169.117 38.1172 173.726 39.3049 174.238C39.3049 174.238 37.2962 172.855 36.3323 171.626Z" fill="#FC4739"/>
<path d="M16.7973 150.733L15.8979 149.683C15.8979 149.683 18.8706 154.531 22.7304 158.827C22.7304 158.827 18.7251 154.163 16.7964 150.732L16.7973 150.733Z" fill="#FC4739"/>
<path d="M76.4747 12.8943C76.4747 12.8943 71.5766 15.6795 67.5051 19.4324C67.5051 19.4324 66.0725 18.8339 64.7021 18.0659C64.7021 18.0659 69.7255 14.635 74.6478 12.075C74.6478 12.075 75.4599 12.5356 76.4747 12.8943Z" fill="#FC4739"/>
<path d="M72.8187 11.1038C72.8187 11.1038 67.2879 13.7666 62.2129 16.8901C62.2129 16.8901 61.2489 16.1735 60.386 15.3541C60.386 15.3541 65.9167 12.282 71.6002 10.2339C71.6002 10.2339 71.9557 10.6432 72.8179 11.1046L72.8187 11.1038Z" fill="#FC4739"/>
<path d="M70.842 9.15807C70.842 9.15807 65.1586 10.8474 59.2214 13.8176C59.2214 13.8176 58.6631 13.1009 58.714 12.2302C58.714 12.2302 64.1946 9.87473 70.3346 8.13403C70.3346 8.13403 70.4364 8.59469 70.842 9.15807Z" fill="#FC4739"/>
<path d="M70.3847 6.95444C70.3847 6.95444 64.6947 8.26139 58.7107 10.475C58.7107 10.475 58.9676 9.77054 59.4751 9.10443C59.4751 9.10443 64.2447 7.261 70.842 5.98096C70.842 5.98096 70.3855 6.49297 70.3855 6.95363L70.3847 6.95444Z" fill="#FC4739"/>
<path d="M71.9048 4.90826C71.9048 4.90826 66.7288 5.62492 61.0962 7.51971C61.0962 7.51971 61.7272 6.80305 62.9085 6.13694C62.9085 6.13694 67.1853 4.80553 73.579 3.78149C73.579 3.78149 72.2086 4.54952 71.9048 4.90826Z" fill="#FC4739"/>
<path d="M77.285 2.14038C77.285 2.14038 75.6609 2.54967 74.2404 3.16442C74.2404 3.16442 70.0792 3.67643 65.7661 4.75183L67.6706 3.96587C67.6706 3.96587 71.145 3.01114 77.285 2.14038Z" fill="#FC4739"/>
<path d="M80.281 1.37342C80.281 1.37342 80.4871 1.19568 82.7947 0.644531C82.7947 0.644531 78.5438 1.21036 75.3086 1.98817C75.3086 1.98817 78.6068 1.32287 80.2818 1.37342H80.281Z" fill="#FC4739"/>
<path d="M95.9849 4.48291C95.9849 4.48291 90.8347 5.77763 86.2671 7.87707C86.2671 7.87707 85.5059 7.67242 85.1763 7.51833C85.1763 7.51833 90.7838 5.64636 95.9849 4.48291Z" fill="#FC4739"/>
<path d="M96.0086 4.49544C96.0086 4.49544 89.7418 5.53171 84.287 6.9528C84.287 6.9528 84.0333 6.79952 83.6777 6.38942C83.6777 6.38942 89.2594 5.36539 96.0086 4.49463V4.49544Z" fill="#FC4739"/>
<path d="M95.9832 4.47534C95.9832 4.47534 89.5596 5.11129 83.2952 5.98204C83.2952 5.98204 83.1199 5.72603 83.1199 5.3673C83.1199 5.3673 89.108 4.86262 95.9832 4.47534Z" fill="#FC4739"/>
<path d="M95.9844 4.46961C95.9844 4.46961 89.4639 4.55062 83.197 4.756C83.197 4.756 83.2221 4.51952 83.6794 4.25195C83.6794 4.25195 89.4639 4.2855 95.9844 4.46961Z" fill="#FC4739"/>
<path d="M95.9832 4.4528C95.9832 4.4528 89.928 3.984 84.0627 3.77935C84.0627 3.77935 84.3375 3.47198 84.9968 3.26733C84.9968 3.26733 89.8173 3.69293 95.9832 4.4528Z" fill="#FC4739"/>
<path d="M95.9828 4.43122C95.9828 4.43122 90.8827 3.57514 85.7576 2.85848C85.7576 2.85848 85.9604 2.64894 87.3307 2.42065C87.3307 2.42065 91.1873 3.1365 95.9828 4.43122Z" fill="#FC4739"/>
<path d="M95.9869 4.43593C95.9869 4.43593 91.9017 3.11349 87.9441 2.08945C87.9441 2.08945 88.7561 1.83344 89.5173 1.73071C89.5173 1.73071 92.5618 2.68545 95.9869 4.43511V4.43593Z" fill="#FC4739"/>
<path d="M95.9839 4.4423C95.9839 4.4423 93.4719 2.50022 90.7319 1.52755C90.7319 1.52755 91.645 1.42482 92.457 1.37427C92.457 1.37427 94.0811 2.28824 95.9839 4.4423Z" fill="#FC4739"/>
<path d="M95.9839 4.458C95.9839 4.458 95.1468 2.60153 93.9792 1.21875C93.9792 1.21875 94.8923 1.11602 95.6033 1.21875C95.6033 1.21875 95.8061 2.06423 95.9839 4.458Z" fill="#FC4739"/>
</svg>
