<svg width="16" height="17" viewBox="0 0 16 17" fill="none" xmlns="http://www.w3.org/2000/svg">
<path d="M4.32935 1.43969C4.32935 1.28989 4.26984 1.14623 4.16392 1.04031C4.05799 0.934385 3.91433 0.874878 3.76453 0.874878C3.61473 0.874878 3.47107 0.934385 3.36515 1.04031C3.25922 1.14623 3.19972 1.28989 3.19972 1.43969V2.62957C2.11527 2.71617 1.40436 2.92854 0.881717 3.45194C0.358322 3.97458 0.145952 4.68625 0.0585938 5.76994H15.0013C14.914 4.68549 14.7016 3.97458 14.1782 3.45194C13.6556 2.92854 12.9439 2.71617 11.8602 2.62882V1.43969C11.8602 1.28989 11.8007 1.14623 11.6948 1.04031C11.5889 0.934385 11.4452 0.874878 11.2954 0.874878C11.1456 0.874878 11.0019 0.934385 10.896 1.04031C10.7901 1.14623 10.7306 1.28989 10.7306 1.43969V2.57911C10.2298 2.56932 9.66798 2.56932 9.03614 2.56932H6.02379C5.39195 2.56932 4.83015 2.56932 4.32935 2.57911V1.43969Z" fill="#787B83"/>
<path fill-rule="evenodd" clip-rule="evenodd" d="M0 8.59422C0 7.96239 8.4164e-09 7.40058 0.00979013 6.89978H15.0519C15.0617 7.40058 15.0617 7.96239 15.0617 8.59422V10.1004C15.0617 12.9403 15.0617 14.3606 14.1791 15.2425C13.2965 16.1243 11.8769 16.1251 9.03704 16.1251H6.02469C3.1848 16.1251 1.76448 16.1251 0.882617 15.2425C0.000753032 14.3599 0 12.9403 0 10.1004V8.59422ZM11.2963 10.1004C11.496 10.1004 11.6876 10.0211 11.8288 9.87982C11.97 9.73859 12.0494 9.54704 12.0494 9.34731C12.0494 9.14758 11.97 8.95603 11.8288 8.8148C11.6876 8.67357 11.496 8.59422 11.2963 8.59422C11.0966 8.59422 10.905 8.67357 10.7638 8.8148C10.6226 8.95603 10.5432 9.14758 10.5432 9.34731C10.5432 9.54704 10.6226 9.73859 10.7638 9.87982C10.905 10.0211 11.0966 10.1004 11.2963 10.1004ZM11.2963 13.1127C11.496 13.1127 11.6876 13.0334 11.8288 12.8922C11.97 12.7509 12.0494 12.5594 12.0494 12.3597C12.0494 12.1599 11.97 11.9684 11.8288 11.8271C11.6876 11.6859 11.496 11.6066 11.2963 11.6066C11.0966 11.6066 10.905 11.6859 10.7638 11.8271C10.6226 11.9684 10.5432 12.1599 10.5432 12.3597C10.5432 12.5594 10.6226 12.7509 10.7638 12.8922C10.905 13.0334 11.0966 13.1127 11.2963 13.1127ZM8.28395 9.34731C8.28395 9.54704 8.20461 9.73859 8.06338 9.87982C7.92215 10.0211 7.7306 10.1004 7.53087 10.1004C7.33113 10.1004 7.13958 10.0211 6.99835 9.87982C6.85712 9.73859 6.77778 9.54704 6.77778 9.34731C6.77778 9.14758 6.85712 8.95603 6.99835 8.8148C7.13958 8.67357 7.33113 8.59422 7.53087 8.59422C7.7306 8.59422 7.92215 8.67357 8.06338 8.8148C8.20461 8.95603 8.28395 9.14758 8.28395 9.34731ZM8.28395 12.3597C8.28395 12.5594 8.20461 12.7509 8.06338 12.8922C7.92215 13.0334 7.7306 13.1127 7.53087 13.1127C7.33113 13.1127 7.13958 13.0334 6.99835 12.8922C6.85712 12.7509 6.77778 12.5594 6.77778 12.3597C6.77778 12.1599 6.85712 11.9684 6.99835 11.8271C7.13958 11.6859 7.33113 11.6066 7.53087 11.6066C7.7306 11.6066 7.92215 11.6859 8.06338 11.8271C8.20461 11.9684 8.28395 12.1599 8.28395 12.3597ZM3.76543 10.1004C3.96516 10.1004 4.15671 10.0211 4.29795 9.87982C4.43918 9.73859 4.51852 9.54704 4.51852 9.34731C4.51852 9.14758 4.43918 8.95603 4.29795 8.8148C4.15671 8.67357 3.96516 8.59422 3.76543 8.59422C3.5657 8.59422 3.37415 8.67357 3.23292 8.8148C3.09169 8.95603 3.01235 9.14758 3.01235 9.34731C3.01235 9.54704 3.09169 9.73859 3.23292 9.87982C3.37415 10.0211 3.5657 10.1004 3.76543 10.1004ZM3.76543 13.1127C3.96516 13.1127 4.15671 13.0334 4.29795 12.8922C4.43918 12.7509 4.51852 12.5594 4.51852 12.3597C4.51852 12.1599 4.43918 11.9684 4.29795 11.8271C4.15671 11.6859 3.96516 11.6066 3.76543 11.6066C3.5657 11.6066 3.37415 11.6859 3.23292 11.8271C3.09169 11.9684 3.01235 12.1599 3.01235 12.3597C3.01235 12.5594 3.09169 12.7509 3.23292 12.8922C3.37415 13.0334 3.5657 13.1127 3.76543 13.1127Z" fill="#787B83"/>
</svg>
