<svg width="16" height="15" viewBox="0 0 16 15" fill="none" xmlns="http://www.w3.org/2000/svg">
<path d="M11.2268 10.7268C11.7831 10.1705 12.2243 9.51008 12.5254 8.78325C12.8265 8.05643 12.9814 7.27742 12.9814 6.49071C12.9814 5.704 12.8265 4.92499 12.5254 4.19816C12.2243 3.47134 11.7831 2.81093 11.2268 2.25464C10.6705 1.69835 10.0101 1.25708 9.28325 0.956015C8.55643 0.654954 7.77742 0.5 6.99071 0.5C6.204 0.5 5.42499 0.654954 4.69816 0.956015C3.97134 1.25708 3.31093 1.69835 2.75464 2.25464C1.63116 3.37811 1 4.90187 1 6.49071C1 8.07954 1.63116 9.6033 2.75464 10.7268C3.87811 11.8503 5.40187 12.4814 6.99071 12.4814C8.57954 12.4814 10.1033 11.8503 11.2268 10.7268ZM11.2268 10.7268L15 14.5" stroke="#C8C8C8" stroke-linecap="round" stroke-linejoin="round"/>
</svg>
