<svg width="206" height="46" viewBox="0 0 206 46" fill="none" xmlns="http://www.w3.org/2000/svg">
<path d="M24.625 24.0735C24.625 24.0735 26.3063 24.1587 27.6342 23.9639L27.7316 27.034C27.7316 27.034 26.3428 27.1557 24.6615 27.1557L24.625 24.0735Z" fill="#FC4739"/>
<path d="M24.6815 30.2018C24.6815 30.2018 26.0216 30.2262 27.7516 30.1044C27.7516 30.1044 27.776 32.1756 27.6907 32.9796C27.6907 32.9796 26.3506 33.1257 24.6328 33.1136L24.6815 30.2018Z" fill="#FC4739"/>
<path d="M24.6287 35.7322C24.6287 35.7322 26.1516 35.7687 27.5892 35.6348C27.5892 35.6348 27.4917 36.8287 27.3821 38.0105C27.3821 38.0105 25.8226 38.1201 24.5312 38.1444L24.6287 35.7322Z" fill="#FC4739"/>
<path d="M24.3125 41.9831C25.5551 41.9831 26.7004 41.8978 26.7004 41.8978C26.9318 41.1547 27.0659 40.0947 27.0659 40.0947C25.7015 40.2409 24.4221 40.2043 24.4221 40.2043L24.3125 41.9831Z" fill="#FC4739"/>
<path d="M24.1374 43.4334C24.1374 43.4334 25.2217 43.4455 26.3182 43.3359C26.3182 43.3359 26.1599 43.9694 25.8309 44.5177C25.8309 44.5177 24.9536 44.5786 24.0156 44.542L24.1374 43.4334Z" fill="#FC4739"/>
<path d="M23.8365 45.3332C23.8365 45.3332 24.604 45.3089 25.3229 45.2236C25.3229 45.2236 25.2377 45.4307 24.7625 45.6623C24.7625 45.6623 24.0553 45.711 23.6719 45.6623C23.6719 45.6623 23.788 45.5039 23.8367 45.3332H23.8365Z" fill="#FC4739"/>
<path d="M24.4531 18.0549C24.4531 18.0549 26.1953 18.0915 27.1578 17.9453C27.1578 17.9453 27.2918 19.188 27.4258 20.9058C27.4258 20.9058 26.0002 21.0398 24.5384 21.0398C24.5384 21.0398 24.5749 19.6875 24.4531 18.0549Z" fill="#FC4739"/>
<path d="M24.2344 12.4504C24.2344 12.4504 25.3065 12.4383 26.4152 12.3408C26.4152 12.3408 26.6466 13.5713 26.8295 15.1064C26.8295 15.1064 25.5747 15.1673 24.3685 15.1673C24.3685 15.1673 24.332 13.7418 24.2346 12.4504H24.2344Z" fill="#FC4739"/>
<path d="M23.8906 7.54085C23.8906 7.54085 24.6581 7.52867 25.4623 7.46777C25.4623 7.46777 25.7302 8.50338 25.9618 9.80692C25.9618 9.80692 25.0724 9.88 24.0613 9.86782C24.0613 9.86782 24.0004 8.66171 23.8908 7.54085H23.8906Z" fill="#FC4739"/>
<path d="M23.4766 3.55664C23.4766 3.55664 23.9003 3.581 24.2977 3.55664C24.2977 3.55664 24.634 4.37656 24.9265 5.37995C24.9265 5.37995 24.3485 5.39999 23.6811 5.37995C23.6811 5.37995 23.6227 4.47046 23.4766 3.55664Z" fill="#FC4739"/>
<path d="M23.0469 0.917969C23.0469 0.917969 23.1808 1.41475 23.2417 2.07163C23.2417 2.07163 23.5708 2.07065 23.6804 2.04629C23.6804 2.04629 23.4246 1.42222 23.0469 0.917969Z" fill="#FC4739"/>
<path d="M24.0703 1.99758C24.0703 1.99758 23.6682 1.42222 23.0469 0.917969C23.0469 0.917969 23.7413 1.26644 24.4602 1.93668C24.4602 1.93668 24.2775 1.9854 24.0703 1.99758Z" fill="#FC4739"/>
<path d="M25.1018 3.43492C25.1018 3.43492 25.4917 3.42274 25.8814 3.37402C25.8814 3.37402 26.6002 4.16585 27.1484 5.12838C27.1484 5.12838 26.6489 5.20146 26.0397 5.25017C26.0397 5.25017 25.6133 4.38507 25.1016 3.43492H25.1018Z" fill="#FC4739"/>
<path d="M26.9375 7.32182C26.9375 7.32182 27.6563 7.24874 28.3385 7.12695C28.3385 7.12695 28.9598 8.1382 29.508 9.42957C29.508 9.42957 28.6675 9.57571 27.778 9.67315C27.778 9.67315 27.3881 8.51575 26.9375 7.32182Z" fill="#FC4739"/>
<path d="M28.5234 12.1468C28.5234 12.1468 29.5347 12.0494 30.4848 11.8789C30.4848 11.8789 30.9844 13.1459 31.3987 14.5958C31.3987 14.5958 30.3631 14.7663 29.1813 14.8759C29.1813 14.8759 28.9377 13.4871 28.5234 12.1468Z" fill="#FC4739"/>
<path d="M29.6877 17.7141C29.6877 17.7141 30.2414 17.6498 30.9303 17.5557C31.3055 17.5045 31.7084 17.4719 32.1121 17.373C32.1121 17.373 32.4533 18.3356 32.7212 20.3822C32.7212 20.3822 31.5517 20.5649 30.114 20.6991C30.114 20.6991 30.0652 19.237 29.6875 17.7143L29.6877 17.7141Z" fill="#FC4739"/>
<path d="M30.4609 23.6952C30.4609 23.6952 31.8132 23.5612 33.1291 23.3418C33.1291 23.3418 33.3483 24.7306 33.3971 26.4119C33.3971 26.4119 32.1179 26.6311 30.6193 26.7653C30.6193 26.7653 30.6314 25.3154 30.4609 23.6952Z" fill="#FC4739"/>
<path d="M30.6903 29.824C30.6903 29.824 32.0791 29.6901 33.4681 29.4463C33.4681 29.4463 33.4802 30.9327 33.3584 32.3946C33.3584 32.3946 32.1158 32.626 30.6172 32.748C30.6172 32.748 30.6781 31.3957 30.6903 29.824Z" fill="#FC4739"/>
<path d="M30.4159 35.3798C30.4159 35.3798 31.6342 35.258 33.0597 35.0264C33.0597 35.0264 32.9014 36.3299 32.5967 37.4386C32.5967 37.4386 31.488 37.6578 30.0625 37.7676C30.0625 37.7676 30.2817 36.5615 30.4159 35.3798Z" fill="#FC4739"/>
<path d="M29.5692 39.8633C29.5692 39.8633 30.7266 39.778 31.957 39.5586C31.957 39.5586 31.5915 40.5455 31.1408 41.4226C31.1408 41.4226 30.1783 41.5931 28.9844 41.7027C28.9844 41.7027 29.3378 40.8132 29.5692 39.8631V39.8633Z" fill="#FC4739"/>
<path d="M28.3258 43.1645C28.3258 43.1645 29.2396 43.1158 30.2263 42.9453C30.2263 42.9453 29.7877 43.591 29.2029 44.1514C29.2029 44.1514 28.3989 44.2854 27.5703 44.3341C27.5703 44.3341 28.1186 43.725 28.3256 43.1645H28.3258Z" fill="#FC4739"/>
<path d="M26.7523 45.1139C26.7523 45.1139 27.398 45.053 28.0436 44.9434C28.0436 44.9434 27.6781 45.1869 27.0202 45.3942C27.0202 45.3942 26.5085 45.5038 25.875 45.5769C25.875 45.5769 26.4598 45.3089 26.7523 45.1139Z" fill="#FC4739"/>
<path d="M23.0773 0.919147C24.2591 1.30907 25.1242 1.82078 25.1242 1.82078C24.9415 1.85732 24.7586 1.88168 24.7586 1.88168C24.0155 1.33343 23.0469 0.917969 23.0469 0.917969" fill="#FC4739"/>
<path d="M26.5156 3.22248C26.5156 3.22248 27.3807 3.97777 28.1117 4.91594C28.1117 4.91594 28.5747 4.83069 29.0498 4.72108C29.0498 4.72108 28.1238 3.80844 27.1432 3.08301C27.1432 3.08301 26.8814 3.1494 26.5158 3.22267L26.5156 3.22248Z" fill="#FC4739"/>
<path d="M29.6641 6.88969C29.6641 6.88969 30.4924 8.02273 31.0774 9.13141C31.0774 9.13141 31.784 8.97308 32.4908 8.77802C32.4908 8.77802 31.6868 7.62062 30.846 6.60938C30.846 6.60938 30.2612 6.77988 29.6643 6.88949L29.6641 6.88969Z" fill="#FC4739"/>
<path d="M32.3047 11.5427C32.3047 11.5427 32.9382 12.8828 33.4134 14.1743C33.4134 14.1743 34.3637 13.9916 35.2652 13.7235C35.2652 13.7235 34.6438 12.3956 33.9373 11.1162C33.9373 11.1162 33.1333 11.3598 32.3047 11.5427Z" fill="#FC4739"/>
<path d="M34.3283 16.9648C34.3283 16.9648 34.8279 18.5365 35.108 19.8888C35.108 19.8888 36.2045 19.6574 37.2523 19.3405C37.2523 19.3405 36.838 17.8541 36.3506 16.4531C36.3506 16.4531 35.3272 16.7456 34.3281 16.9648H34.3283Z" fill="#FC4739"/>
<path d="M35.625 22.8852C35.625 22.8852 35.8808 24.4568 35.9662 25.9065C35.9662 25.9065 37.1358 25.663 38.281 25.3583C38.281 25.3583 38.1349 23.8231 37.8789 22.3369C37.8789 22.3369 36.7824 22.6538 35.625 22.8852Z" fill="#FC4739"/>
<path d="M36.0368 29.0017C36.0368 29.0017 36.0733 30.4151 35.8906 31.9013C35.8906 31.9013 37.1455 31.6577 38.2176 31.3287C38.2176 31.3287 38.4125 29.757 38.3637 28.3926C38.3637 28.3926 37.2063 28.7703 36.0368 29.0017Z" fill="#FC4739"/>
<path d="M35.5223 34.5576C35.5223 34.5576 35.2909 35.788 34.9375 36.9941C34.9375 36.9941 36.0096 36.7749 37.0574 36.5068C37.0574 36.5068 37.4961 35.2641 37.7153 34.0215C37.7153 34.0215 36.6675 34.3505 35.5223 34.5576Z" fill="#FC4739"/>
<path d="M34.1422 39.1379C34.1422 39.1379 33.7036 40.2101 33.1797 41.0141C33.1797 41.0141 34.0935 40.8558 34.9341 40.6303C34.9341 40.6303 35.6528 39.6982 36.0914 38.6504C36.0914 38.6504 35.1289 38.9551 34.1422 39.1377V39.1379Z" fill="#FC4739"/>
<path d="M31.9995 42.598C31.9995 42.598 31.4635 43.3289 30.7812 43.8163C30.7812 43.8163 31.6096 43.6892 31.9995 43.576C31.9995 43.576 32.889 42.9634 33.6321 42.2081C33.6321 42.2081 32.8403 42.4395 31.9995 42.598Z" fill="#FC4739"/>
<path d="M29.2716 44.706C29.2716 44.706 28.7964 44.9008 28.2969 45.0959C28.2969 45.0959 28.7355 45.0228 29.4177 44.8645C29.4177 44.8645 29.9051 44.7183 30.429 44.4502C30.429 44.4502 29.8564 44.6085 29.2716 44.706Z" fill="#FC4739"/>
<path d="M35.0685 41.7698C35.0685 41.7698 34.2766 42.4764 33.375 43.1221C33.375 43.1221 34.0085 42.9272 34.3497 42.7322C34.3497 42.7322 35.4827 42.0134 36.2259 41.3066C36.2259 41.3066 35.6289 41.5868 35.0685 41.7696V41.7698Z" fill="#FC4739"/>
<path d="M37.8842 38.0907C37.8842 38.0907 37.2994 39.1994 36.6172 40.0521C36.6172 40.0521 37.3444 39.8207 37.9555 39.5586C37.9555 39.5586 38.7371 38.6022 39.4193 37.457C39.4193 37.457 38.591 37.8469 37.8842 38.0905V38.0907Z" fill="#FC4739"/>
<path d="M40.6861 36.7623C40.6861 36.7623 40.2353 37.6028 39.1875 38.8335C39.1875 38.8335 39.7114 38.5151 39.9367 38.2845C39.9367 38.2845 41.0149 36.9573 41.3927 36.2871C41.3927 36.2871 41.088 36.555 40.6861 36.7623Z" fill="#FC4739"/>
<path d="M39.7206 33.3998C39.7206 33.3998 39.4281 34.7155 38.9531 35.9095C38.9531 35.9095 39.7571 35.6048 40.5979 35.2151C40.5979 35.2151 41.0841 34.0942 41.4563 32.748C41.4563 32.748 40.6222 33.1197 39.7208 33.3998H39.7206Z" fill="#FC4739"/>
<path d="M42.8881 31.9005C42.8881 31.9005 42.4439 33.5818 41.9688 34.4469C41.9688 34.4469 42.5535 34.1057 43.0287 33.6063C43.0287 33.6063 43.5526 32.4611 43.9669 31.0967C43.9669 31.0967 43.4786 31.5962 42.8881 31.9007V31.9005Z" fill="#FC4739"/>
<path d="M44.3169 30.9746C44.3169 30.9746 44.0367 31.9493 43.2812 33.4112L43.3909 33.3503C43.3909 33.3503 44.1827 32.1198 44.5848 30.6699C44.5848 30.6699 44.3899 30.9624 44.3169 30.9746Z" fill="#FC4739"/>
<path d="M40.4316 27.7466C40.4316 27.7466 40.4322 29.2452 40.2734 30.6705C40.2734 30.6705 41.199 30.3658 42.052 29.9639C42.052 29.9639 42.2225 28.5384 42.2346 27.0156C42.2346 27.0156 41.4428 27.4421 40.4316 27.7466Z" fill="#FC4739"/>
<path d="M43.7192 26.2123C43.7192 26.2123 43.6583 28.0519 43.5 29.1606C43.5 29.1606 44.0361 28.8805 44.6452 28.2833C44.6452 28.2833 44.8279 26.8823 44.8523 25.3594C44.8523 25.3594 44.3527 25.8224 43.7192 26.2123Z" fill="#FC4739"/>
<path d="M45.603 24.4205C45.603 24.4205 45.5299 26.6379 45.3594 27.3932C45.3594 27.3932 45.469 27.3311 45.603 26.9602C45.603 26.9602 45.7613 26.0531 45.8222 24.043C45.8222 24.043 45.7247 24.2378 45.603 24.4207V24.4205Z" fill="#FC4739"/>
<path d="M39.8828 21.7046C39.8828 21.7046 40.1997 23.1301 40.3336 24.7259C40.3336 24.7259 41.3571 24.3969 42.1002 24.0072C42.1002 24.0072 41.9662 22.4964 41.6128 20.9736C41.6128 20.9736 40.7355 21.4366 39.8828 21.7046Z" fill="#FC4739"/>
<path d="M43.0469 20.205C43.0469 20.205 43.4246 21.7158 43.5708 23.2142C43.5708 23.2142 44.2117 22.7634 44.738 22.2821C44.738 22.2821 44.5577 20.9847 44.1556 19.3643C44.1556 19.3643 43.6438 19.8029 43.0469 20.2048V20.205Z" fill="#FC4739"/>
<path d="M44.8906 18.4761C44.8906 18.4761 45.3658 19.8894 45.4511 21.4122C45.4511 21.4122 45.6581 21.1075 45.8044 20.6082C45.8044 20.6082 45.8044 19.329 45.244 17.5381C45.244 17.5381 45.1344 18.0011 44.8906 18.4763V18.4761Z" fill="#FC4739"/>
<path d="M45.997 23.739L46.0949 23.5068C46.0949 23.5068 46.0705 25.1561 45.7902 26.5858L45.7656 26.6266C45.7656 26.6266 46.0457 25.2622 45.997 23.7392V23.739Z" fill="#FC4739"/>
<path d="M45.3439 17.2028L45.3642 16.9541C45.3642 16.9541 45.8046 18.537 45.9427 20.0167C45.9427 20.0167 45.9346 20.0709 45.9103 20.1318C45.9103 20.1318 45.7641 18.743 45.3438 17.2028H45.3439Z" fill="#FC4739"/>
<path d="M38.1406 15.9166C38.1406 15.9166 38.7741 17.4153 39.1884 18.7797C39.1884 18.7797 40.0168 18.4628 40.8332 18.0975C40.8332 18.0975 40.2971 16.5258 39.6758 15.2588C39.6758 15.2588 38.9814 15.6122 38.1406 15.9166Z" fill="#FC4739"/>
<path d="M40.9922 14.5915C40.9922 14.5915 41.717 15.8384 42.2044 17.3247C42.2044 17.3247 42.7648 16.9591 43.2522 16.5085C43.2522 16.5085 42.7161 15.1562 41.9852 13.8281C41.9852 13.8281 41.5222 14.2218 40.9922 14.5915Z" fill="#FC4739"/>
<path d="M42.6406 13.035C42.6406 13.035 43.4568 14.3629 43.9563 15.7154C43.9563 15.7154 44.1634 15.3742 44.3219 14.8137C44.3219 14.8137 43.7615 13.5589 42.9575 12.1699C42.9575 12.1699 42.8479 12.6816 42.6406 13.035Z" fill="#FC4739"/>
<path d="M43.0547 11.6585C43.0547 11.6585 43.0963 11.5369 43.0694 11.3418C43.0694 11.3418 43.8923 12.6601 44.4421 14.1634C44.4421 14.1634 44.4315 14.2412 44.4193 14.3388C44.4193 14.3388 43.8833 12.9255 43.0549 11.6585H43.0547Z" fill="#FC4739"/>
<path d="M35.4375 10.6653C35.4375 10.6653 36.2415 11.8958 36.9239 13.236C36.9239 13.236 37.6723 12.9681 38.3581 12.6452C38.3581 12.6452 37.5087 11.1405 36.7047 10.1416C36.7047 10.1416 36.1321 10.4341 35.4377 10.6655L35.4375 10.6653Z" fill="#FC4739"/>
<path d="M37.75 9.5818C37.75 9.5818 38.7856 10.7879 39.5287 11.994C39.5287 11.994 40.0404 11.665 40.4182 11.2996C40.4182 11.2996 39.602 10.057 38.5786 8.97266C38.5786 8.97266 38.2374 9.26515 37.7502 9.5818H37.75Z" fill="#FC4739"/>
<path d="M39.1406 8.33887C39.1406 8.33887 40.2006 9.37448 41.0411 10.5684C41.0411 10.5684 41.2482 10.2028 41.3213 9.75222C41.3213 9.75222 40.4196 8.64354 39.3964 7.62012C39.3964 7.62012 39.3111 7.99786 39.1406 8.33887Z" fill="#FC4739"/>
<path d="M39.3237 6.91406C39.3237 6.91406 40.2984 7.74243 41.2659 8.9731C41.2659 8.9731 41.1333 8.5869 40.8924 8.18912C40.8924 8.18912 40.0676 7.14664 38.8672 6.02539C38.8672 6.02539 39.1774 6.47562 39.3237 6.91426V6.91406Z" fill="#FC4739"/>
<path d="M31.9221 6.30445C31.9221 6.30445 32.9333 7.23044 33.78 8.40002C33.78 8.40002 34.3221 8.18079 34.846 7.91266C34.846 7.91266 33.8957 6.82834 32.7992 5.90234C32.7992 5.90234 32.3971 6.10939 31.9219 6.30445H31.9221Z" fill="#FC4739"/>
<path d="M33.5938 5.50016C33.5938 5.50016 34.7268 6.37744 35.7989 7.42503C35.7989 7.42503 36.1523 7.18145 36.469 6.87678C36.469 6.87678 35.3725 5.92643 34.1542 5.06152C34.1542 5.06152 33.9106 5.28074 33.5938 5.50016Z" fill="#FC4739"/>
<path d="M34.5469 4.59817C34.5469 4.59817 35.7652 5.3291 36.9713 6.31599C36.9713 6.31599 37.1174 6.0235 37.1905 5.7312C37.1905 5.7312 36.0087 4.84175 34.7417 4.09863C34.7417 4.09863 34.7661 4.39112 34.5469 4.59817Z" fill="#FC4739"/>
<path d="M34.7056 3.59895C34.7056 3.59895 35.8143 4.13502 37.1422 5.12191C37.1422 5.12191 37.0326 4.80506 36.8132 4.50058C36.8132 4.50058 35.7654 3.74529 34.4375 3.09961C34.4375 3.09961 34.6445 3.37973 34.7054 3.59914L34.7056 3.59895Z" fill="#FC4739"/>
<path d="M34.0633 2.68523C34.0633 2.68523 33.6239 2.34657 33.2344 2.12598C33.2344 2.12598 34.5513 2.75025 35.7448 3.55838C35.7448 3.55838 35.9029 3.67212 36.0856 3.83044C36.0856 3.83044 35.0744 3.19694 34.0631 2.68523H34.0633Z" fill="#FC4739"/>
<path d="M44.7954 30.3661L44.8766 30.2119C44.8766 30.2119 44.3859 31.6571 43.75 32.9182C43.75 32.9182 44.4177 31.6088 44.7954 30.3661Z" fill="#FC4739"/>
<path d="M37.3699 40.6854C37.3699 40.6854 37.6465 40.5704 37.9346 40.3294C38.2228 40.0884 36.9415 41.1849 36.6562 41.3067C36.6562 41.3067 37.1385 40.9777 37.3701 40.6854H37.3699Z" fill="#FC4739"/>
<path d="M42.0652 35.7145L42.281 35.4648C42.281 35.4648 41.5672 36.6183 40.6406 37.6406C40.6406 37.6406 41.6024 36.5307 42.0652 35.7145Z" fill="#FC4739"/>
<path d="M27.7344 2.91686C27.7344 2.91686 28.9102 3.57944 29.8879 4.47263C29.8879 4.47263 30.2319 4.33021 30.5609 4.14733C30.5609 4.14733 29.3548 3.33114 28.173 2.7218C28.173 2.7218 27.9782 2.83141 27.7344 2.91667V2.91686Z" fill="#FC4739"/>
<path d="M28.6094 2.49142C28.6094 2.49142 29.9373 3.12492 31.1558 3.86804C31.1558 3.86804 31.3872 3.69753 31.5944 3.50247C31.5944 3.50247 30.2665 2.77154 28.9019 2.28418C28.9019 2.28418 28.8166 2.38161 28.6094 2.49122V2.49142Z" fill="#FC4739"/>
<path d="M29.0938 2.02796C29.0938 2.02796 30.4582 2.43006 31.8837 3.13664C31.8837 3.13664 32.0177 2.96613 32.0055 2.75889C32.0055 2.75889 30.6898 2.19846 29.2155 1.78418C29.2155 1.78418 29.1912 1.89379 29.0938 2.02776V2.02796Z" fill="#FC4739"/>
<path d="M29.2034 1.50484C29.2034 1.50484 30.5694 1.81579 32.0063 2.34263C32.0063 2.34263 31.9446 2.17507 31.8228 2.01655C31.8228 2.01655 30.6776 1.57791 29.0938 1.27344C29.0938 1.27344 29.2034 1.39523 29.2034 1.50484Z" fill="#FC4739"/>
<path d="M28.8316 1.01716C28.8316 1.01716 30.0742 1.18766 31.4267 1.63848C31.4267 1.63848 31.2752 1.46798 30.9916 1.30945C30.9916 1.30945 29.9648 0.992603 28.4297 0.749023C28.4297 0.749023 28.7587 0.931708 28.8318 1.01696L28.8316 1.01716Z" fill="#FC4739"/>
<path d="M27.5391 0.359375C27.5391 0.359375 27.929 0.456807 28.27 0.602954C28.27 0.602954 29.2691 0.724744 30.3047 0.980699L29.8474 0.793693C29.8474 0.793693 29.0131 0.566614 27.5391 0.359375Z" fill="#FC4739"/>
<path d="M26.8222 0.176382C26.8222 0.176382 26.7727 0.133952 26.2188 0.00292969C26.2188 0.00292969 27.2394 0.137684 28.0161 0.32253C28.0161 0.32253 27.2243 0.164203 26.8222 0.176382Z" fill="#FC4739"/>
<path d="M23.0471 0.916016C23.0471 0.916016 24.2836 1.22403 25.3801 1.72356C25.3801 1.72356 25.5628 1.67484 25.642 1.63831C25.642 1.63831 24.2958 1.19299 23.0469 0.916016H23.0471Z" fill="#FC4739"/>
<path d="M23.0469 0.918945C23.0469 0.918945 24.5516 1.16547 25.8612 1.50373C25.8612 1.50373 25.9221 1.4672 26.0073 1.36976C26.0073 1.36976 24.6673 1.12618 23.0469 0.918945Z" fill="#FC4739"/>
<path d="M23.0469 0.914062C23.0469 0.914062 24.5891 1.06551 26.0932 1.27256C26.0932 1.27256 26.1352 1.21166 26.1352 1.12641C26.1352 1.12641 24.6975 1.00639 23.0469 0.914062Z" fill="#FC4739"/>
<path d="M23.0469 0.912794C23.0469 0.912794 24.6125 0.932045 26.117 0.980761C26.117 0.980761 26.1109 0.92458 26.0013 0.861328C26.0013 0.861328 24.6125 0.869382 23.0469 0.912794Z" fill="#FC4739"/>
<path d="M23.0469 0.91001C23.0469 0.91001 24.5007 0.798435 25.9089 0.749719C25.9089 0.749719 25.8429 0.676646 25.6846 0.62793C25.6846 0.62793 24.5272 0.72929 23.0469 0.91001Z" fill="#FC4739"/>
<path d="M23.0471 0.904101C23.0471 0.904101 24.2715 0.700398 25.5019 0.529892C25.5019 0.529892 25.4532 0.480194 25.1242 0.425781C25.1242 0.425781 24.1982 0.59609 23.0469 0.904101H23.0471Z" fill="#FC4739"/>
<path d="M23.0471 0.90524C23.0471 0.90524 24.0279 0.590551 24.978 0.346972C24.978 0.346972 24.7832 0.286077 24.6003 0.261719C24.6003 0.261719 23.8693 0.488798 23.0469 0.90524H23.0471Z" fill="#FC4739"/>
<path d="M23.0471 0.905931C23.0471 0.905931 23.6501 0.443915 24.308 0.212318C24.308 0.212318 24.0888 0.18796 23.8937 0.175781C23.8937 0.175781 23.5038 0.393235 23.0469 0.905931H23.0471Z" fill="#FC4739"/>
<path d="M23.0469 0.910347C23.0469 0.910347 23.2478 0.468564 23.5281 0.139732C23.5281 0.139732 23.3089 0.115374 23.1382 0.139732C23.1382 0.139732 23.0895 0.340882 23.0469 0.910347Z" fill="#FC4739"/>
<path d="M21.4738 24.0715C21.4738 24.0715 19.7925 24.1568 18.4646 23.9619L18.3672 27.032C18.3672 27.032 19.756 27.1538 21.4373 27.1538L21.4738 24.0715Z" fill="#FC4739"/>
<path d="M21.4171 30.1992C21.4171 30.1992 20.077 30.2236 18.347 30.1018C18.347 30.1018 18.3226 32.173 18.4079 32.977C18.4079 32.977 19.7479 33.1232 21.4658 33.111L21.4171 30.1992Z" fill="#FC4739"/>
<path d="M21.4761 35.7302C21.4761 35.7302 19.9531 35.7668 18.5156 35.6328C18.5156 35.6328 18.6131 36.8267 18.7227 38.0085C18.7227 38.0085 20.2822 38.1181 21.5735 38.1425L21.4761 35.7302Z" fill="#FC4739"/>
<path d="M21.7769 41.9801C20.5342 41.9801 19.389 41.8949 19.389 41.8949C19.1576 41.1518 19.0234 40.0918 19.0234 40.0918C20.3879 40.2379 21.6673 40.2014 21.6673 40.2014L21.7769 41.9801Z" fill="#FC4739"/>
<path d="M21.9621 43.4295C21.9621 43.4295 20.8778 43.4416 19.7812 43.332C19.7812 43.332 19.9396 43.9655 20.2686 44.5138C20.2686 44.5138 21.1459 44.5747 22.0839 44.5381L21.9621 43.4295Z" fill="#FC4739"/>
<path d="M22.2677 45.3313C22.2677 45.3313 21.5002 45.3069 20.7812 45.2217C20.7812 45.2217 20.8665 45.4287 21.3417 45.6603C21.3417 45.6603 22.0488 45.709 22.4323 45.6603C22.4323 45.6603 22.3162 45.502 22.2675 45.3313H22.2677Z" fill="#FC4739"/>
<path d="M21.6445 18.052C21.6445 18.052 19.9023 18.0885 18.9398 17.9424C18.9398 17.9424 18.8058 19.185 18.6719 20.9029C18.6719 20.9029 20.0974 21.0368 21.5593 21.0368C21.5593 21.0368 21.5227 19.6846 21.6445 18.052Z" fill="#FC4739"/>
<path d="M21.8607 12.4475C21.8607 12.4475 20.7886 12.4353 19.6799 12.3379C19.6799 12.3379 19.4485 13.5684 19.2656 15.1035C19.2656 15.1035 20.5205 15.1644 21.7266 15.1644C21.7266 15.1644 21.7631 13.7389 21.8605 12.4475H21.8607Z" fill="#FC4739"/>
<path d="M22.204 7.53792C22.204 7.53792 21.4366 7.52574 20.6323 7.46484C20.6323 7.46484 20.3644 8.50045 20.1328 9.80399C20.1328 9.80399 21.0223 9.87707 22.0333 9.86489C22.0333 9.86489 22.0942 8.65878 22.2038 7.53792H22.204Z" fill="#FC4739"/>
<path d="M22.6218 3.55469C22.6218 3.55469 22.1981 3.57905 21.8007 3.55469C21.8007 3.55469 21.4644 4.37461 21.1719 5.378C21.1719 5.378 21.7498 5.39803 22.4173 5.378C22.4173 5.378 22.4756 4.4685 22.6218 3.55469Z" fill="#FC4739"/>
<path d="M23.0398 0.916016C23.0398 0.916016 22.9058 1.4128 22.8449 2.06968C22.8449 2.06968 22.5159 2.0687 22.4062 2.04434C22.4062 2.04434 22.662 1.42026 23.0398 0.916016Z" fill="#FC4739"/>
<path d="M22.0227 1.99465C22.0227 1.99465 22.4248 1.41929 23.0462 0.915039C23.0462 0.915039 22.3518 1.26351 21.6328 1.93375C21.6328 1.93375 21.8155 1.98247 22.0227 1.99465Z" fill="#FC4739"/>
<path d="M20.9998 3.43297C20.9998 3.43297 20.6099 3.42079 20.2201 3.37207C20.2201 3.37207 19.5014 4.1639 18.9531 5.12643C18.9531 5.12643 19.4527 5.19951 20.0618 5.24822C20.0618 5.24822 20.4883 4.38312 21 3.43297H20.9998Z" fill="#FC4739"/>
<path d="M19.1643 7.31889C19.1643 7.31889 18.4455 7.24581 17.7633 7.12402C17.7633 7.12402 17.142 8.13527 16.5938 9.42664C16.5938 9.42664 17.4343 9.57278 18.3238 9.67021C18.3238 9.67021 18.7137 8.51282 19.1643 7.31889Z" fill="#FC4739"/>
<path d="M17.5783 12.1429C17.5783 12.1429 16.5671 12.0455 15.6169 11.875C15.6169 11.875 15.1174 13.142 14.7031 14.5919C14.7031 14.5919 15.7387 14.7624 16.9205 14.872C16.9205 14.872 17.1641 13.4832 17.5783 12.1429Z" fill="#FC4739"/>
<path d="M16.4085 17.7111C16.4085 17.7111 15.8548 17.6469 15.1659 17.5528C14.7907 17.5015 14.3878 17.4689 13.9841 17.3701C13.9841 17.3701 13.6429 18.3326 13.375 20.3793C13.375 20.3793 14.5446 20.562 15.9823 20.6962C15.9823 20.6962 16.031 19.2341 16.4087 17.7113L16.4085 17.7111Z" fill="#FC4739"/>
<path d="M15.6392 23.6932C15.6392 23.6932 14.287 23.5593 12.9711 23.3398C12.9711 23.3398 12.7518 24.7286 12.7031 26.4099C12.7031 26.4099 13.9823 26.6291 15.4809 26.7633C15.4809 26.7633 15.4687 25.3134 15.6392 23.6932Z" fill="#FC4739"/>
<path d="M15.4031 29.8221C15.4031 29.8221 14.0143 29.6881 12.6253 29.4443C12.6253 29.4443 12.6132 30.9308 12.7349 32.3926C12.7349 32.3926 13.9776 32.624 15.4762 32.746C15.4762 32.746 15.4153 31.3938 15.4031 29.8221Z" fill="#FC4739"/>
<path d="M15.6907 35.3768C15.6907 35.3768 14.4724 35.255 13.0469 35.0234C13.0469 35.0234 13.2052 36.327 13.5099 37.4357C13.5099 37.4357 14.6186 37.6549 16.0441 37.7647C16.0441 37.7647 15.8249 36.5586 15.6907 35.3768Z" fill="#FC4739"/>
<path d="M16.5285 39.8603C16.5285 39.8603 15.3711 39.7751 14.1406 39.5557C14.1406 39.5557 14.5062 40.5426 14.9568 41.4196C14.9568 41.4196 15.9193 41.5901 17.1133 41.6998C17.1133 41.6998 16.7599 40.8103 16.5285 39.8601V39.8603Z" fill="#FC4739"/>
<path d="M17.7677 43.1616C17.7677 43.1616 16.8539 43.1129 15.8672 42.9424C15.8672 42.9424 16.3058 43.5881 16.8906 44.1485C16.8906 44.1485 17.6946 44.2825 18.5232 44.3312C18.5232 44.3312 17.9749 43.722 17.7679 43.1616H17.7677Z" fill="#FC4739"/>
<path d="M19.3382 45.1119C19.3382 45.1119 18.6926 45.051 18.0469 44.9414C18.0469 44.9414 18.4124 45.185 19.0703 45.3922C19.0703 45.3922 19.582 45.5018 20.2155 45.5749C20.2155 45.5749 19.6307 45.307 19.3382 45.1119Z" fill="#FC4739"/>
<path d="M23.0156 0.917194C21.8338 1.30712 20.9688 1.81883 20.9688 1.81883C21.1514 1.85537 21.3343 1.87973 21.3343 1.87973C22.0774 1.33148 23.0461 0.916016 23.0461 0.916016" fill="#FC4739"/>
<path d="M19.5811 3.21955C19.5811 3.21955 18.716 3.97484 17.985 4.91301C17.985 4.91301 17.5221 4.82776 17.0469 4.71815C17.0469 4.71815 17.9729 3.80551 18.9535 3.08008C18.9535 3.08008 19.2153 3.14647 19.5809 3.21974L19.5811 3.21955Z" fill="#FC4739"/>
<path d="M16.4361 6.88578C16.4361 6.88578 15.6077 8.01882 15.0227 9.1275C15.0227 9.1275 14.3161 8.96917 13.6094 8.77411C13.6094 8.77411 14.4134 7.61672 15.2541 6.60547C15.2541 6.60547 15.8389 6.77597 16.4359 6.88559L16.4361 6.88578Z" fill="#FC4739"/>
<path d="M13.7886 11.5397C13.7886 11.5397 13.1551 12.8798 12.6799 14.1714C12.6799 14.1714 11.7296 13.9887 10.8281 13.7206C10.8281 13.7206 11.4494 12.3927 12.156 11.1133C12.156 11.1133 12.96 11.3569 13.7886 11.5397Z" fill="#FC4739"/>
<path d="M11.7677 16.9629C11.7677 16.9629 11.2682 18.5346 10.988 19.8868C10.988 19.8868 9.89153 19.6554 8.84375 19.3386C8.84375 19.3386 9.25803 17.8521 9.74539 16.4512C9.74539 16.4512 10.7688 16.7437 11.7679 16.9629H11.7677Z" fill="#FC4739"/>
<path d="M10.4841 22.8832C10.4841 22.8832 10.2284 24.4549 10.1429 25.9046C10.1429 25.9046 8.97334 25.661 7.82812 25.3563C7.82812 25.3563 7.97427 23.8212 8.23023 22.335C8.23023 22.335 9.32673 22.6518 10.4841 22.8832Z" fill="#FC4739"/>
<path d="M10.0692 28.9988C10.0692 28.9988 10.0326 30.4121 10.2153 31.8984C10.2153 31.8984 8.96048 31.6548 7.88834 31.3258C7.88834 31.3258 7.69348 29.7541 7.74219 28.3896C7.74219 28.3896 8.89959 28.7674 10.0692 28.9988Z" fill="#FC4739"/>
<path d="M10.5758 34.5546C10.5758 34.5546 10.8072 35.7851 11.1606 36.9912C11.1606 36.9912 10.0885 36.772 9.04067 36.5039C9.04067 36.5039 8.60203 35.2612 8.38281 34.0186C8.38281 34.0186 9.4306 34.3476 10.5758 34.5546Z" fill="#FC4739"/>
<path d="M11.9492 39.135C11.9492 39.135 12.3879 40.2072 12.9118 41.0112C12.9118 41.0112 11.9979 40.8528 11.1574 40.6273C11.1574 40.6273 10.4386 39.6952 10 38.6475C10 38.6475 10.9625 38.9521 11.9492 39.1348V39.135Z" fill="#FC4739"/>
<path d="M14.0935 42.595C14.0935 42.595 14.6296 43.3259 15.3118 43.8133C15.3118 43.8133 14.4834 43.6862 14.0935 43.573C14.0935 43.573 13.2041 42.9604 12.4609 42.2051C12.4609 42.2051 13.2528 42.4365 14.0935 42.595Z" fill="#FC4739"/>
<path d="M16.8293 44.704C16.8293 44.704 17.3044 44.8989 17.804 45.0939C17.804 45.0939 17.3653 45.0209 16.6831 44.8625C16.6831 44.8625 16.1958 44.7164 15.6719 44.4482C15.6719 44.4482 16.2445 44.6066 16.8293 44.704Z" fill="#FC4739"/>
<path d="M11.0324 41.7669C11.0324 41.7669 11.8242 42.4735 12.7259 43.1192C12.7259 43.1192 12.0924 42.9243 11.7512 42.7292C11.7512 42.7292 10.6181 42.0105 9.875 41.3037C9.875 41.3037 10.472 41.5838 11.0324 41.7667V41.7669Z" fill="#FC4739"/>
<path d="M8.20702 38.0878C8.20702 38.0878 8.7918 39.1965 9.47402 40.0492C9.47402 40.0492 8.74682 39.8178 8.13571 39.5558C8.13571 39.5558 7.35409 38.5993 6.67188 37.4541C6.67188 37.4541 7.50024 37.844 8.20702 38.0876V38.0878Z" fill="#FC4739"/>
<path d="M5.4097 36.7594C5.4097 36.7594 5.86052 37.5999 6.90831 38.8306C6.90831 38.8306 6.38441 38.5121 6.1591 38.2815C6.1591 38.2815 5.08087 36.9544 4.70312 36.2842C4.70312 36.2842 5.0078 36.5521 5.4097 36.7594Z" fill="#FC4739"/>
<path d="M6.37633 33.3979C6.37633 33.3979 6.66882 34.7136 7.1438 35.9075C7.1438 35.9075 6.33979 35.6028 5.49905 35.2131C5.49905 35.2131 5.01287 34.0923 4.64062 32.7461C4.64062 32.7461 5.47469 33.1178 6.37613 33.3979H6.37633Z" fill="#FC4739"/>
<path d="M3.21163 31.8995C3.21163 31.8995 3.65577 33.5808 4.13095 34.4459C4.13095 34.4459 3.54616 34.1047 3.07099 33.6054C3.07099 33.6054 2.54709 32.4601 2.13281 31.0957C2.13281 31.0957 2.62115 31.5952 3.21163 31.8997V31.8995Z" fill="#FC4739"/>
<path d="M1.78356 30.9726C1.78356 30.9726 2.06368 31.9474 2.81917 33.4092L2.70956 33.3483C2.70956 33.3483 1.91773 32.1179 1.51562 30.668C1.51562 30.668 1.71049 30.9605 1.78356 30.9726Z" fill="#FC4739"/>
<path d="M5.66245 27.7436C5.66245 27.7436 5.66186 29.2422 5.82058 30.6676C5.82058 30.6676 4.89498 30.3629 4.04206 29.961C4.04206 29.961 3.87155 28.5355 3.85938 27.0127C3.85938 27.0127 4.65121 27.4392 5.66245 27.7436Z" fill="#FC4739"/>
<path d="M2.37523 26.2084C2.37523 26.2084 2.43612 28.048 2.59445 29.1567C2.59445 29.1567 2.05838 28.8766 1.44923 28.2794C1.44923 28.2794 1.26655 26.8784 1.24219 25.3555C1.24219 25.3555 1.74172 25.8185 2.37523 26.2084Z" fill="#FC4739"/>
<path d="M0.484847 24.4176C0.484847 24.4176 0.55792 26.6349 0.728426 27.3902C0.728426 27.3902 0.618815 27.3282 0.484847 26.9573C0.484847 26.9573 0.32652 26.0502 0.265625 24.04C0.265625 24.04 0.363057 24.2349 0.484847 24.4178V24.4176Z" fill="#FC4739"/>
<path d="M6.21736 21.7007C6.21736 21.7007 5.90051 23.1262 5.76654 24.722C5.76654 24.722 4.74311 24.393 4 24.0033C4 24.0033 4.13397 22.4925 4.48736 20.9697C4.48736 20.9697 5.36463 21.4327 6.21736 21.7007Z" fill="#FC4739"/>
<path d="M3.04267 20.203C3.04267 20.203 2.66493 21.7138 2.51878 23.2122C2.51878 23.2122 1.87781 22.7614 1.35156 22.2802C1.35156 22.2802 1.53189 20.9827 1.93399 19.3623C1.93399 19.3623 2.44571 19.8009 3.04267 20.2029V20.203Z" fill="#FC4739"/>
<path d="M1.21069 18.4731C1.21069 18.4731 0.735515 19.8865 0.650262 21.4092C0.650262 21.4092 0.443219 21.1046 0.296875 20.6052C0.296875 20.6052 0.296875 19.3261 0.857304 17.5352C0.857304 17.5352 0.966915 17.9982 1.21069 18.4733V18.4731Z" fill="#FC4739"/>
<path d="M0.0978247 23.736L0 23.5038C0 23.5038 0.0243579 25.1531 0.304671 26.5828L0.329225 26.6236C0.329225 26.6236 0.0491088 25.2592 0.0978247 23.7362V23.736Z" fill="#FC4739"/>
<path d="M0.754984 17.2008L0.734751 16.9521C0.734751 16.9521 0.294344 18.535 0.15625 20.0148C0.15625 20.0148 0.164304 20.069 0.188662 20.1299C0.188662 20.1299 0.334809 18.7411 0.755181 17.2008H0.754984Z" fill="#FC4739"/>
<path d="M7.95816 15.9147C7.95816 15.9147 7.32466 17.4133 6.91038 18.7777C6.91038 18.7777 6.08201 18.4609 5.26562 18.0955C5.26562 18.0955 5.8017 16.5238 6.42302 15.2568C6.42302 15.2568 7.11742 15.6102 7.95816 15.9147Z" fill="#FC4739"/>
<path d="M5.10374 14.5885C5.10374 14.5885 4.37889 15.8355 3.89153 17.3217C3.89153 17.3217 3.33111 16.9562 2.84375 16.5056C2.84375 16.5056 3.37982 15.1533 4.11076 13.8252C4.11076 13.8252 4.57375 14.2189 5.10374 14.5885Z" fill="#FC4739"/>
<path d="M3.45473 13.0331C3.45473 13.0331 2.63854 14.361 2.139 15.7134C2.139 15.7134 1.93196 15.3722 1.77344 14.8118C1.77344 14.8118 2.33387 13.557 3.13788 12.168C3.13788 12.168 3.24749 12.6797 3.45473 13.0331Z" fill="#FC4739"/>
<path d="M3.04367 11.6565C3.04367 11.6565 3.00203 11.5349 3.02894 11.3398C3.02894 11.3398 2.20607 12.6581 1.65625 14.1614C1.65625 14.1614 1.66686 14.2392 1.67904 14.3369C1.67904 14.3369 2.21511 12.9235 3.04347 11.6565H3.04367Z" fill="#FC4739"/>
<path d="M10.6628 10.6633C10.6628 10.6633 9.85878 11.8938 9.17636 13.2341C9.17636 13.2341 8.42794 12.9662 7.74219 12.6432C7.74219 12.6432 8.59157 11.1385 9.39558 10.1396C9.39558 10.1396 9.96819 10.4321 10.6626 10.6635L10.6628 10.6633Z" fill="#FC4739"/>
<path d="M8.34005 9.57887C8.34005 9.57887 7.30445 10.785 6.56133 11.9911C6.56133 11.9911 6.04962 11.6621 5.67188 11.2967C5.67188 11.2967 6.48806 10.054 7.51149 8.96973C7.51149 8.96973 7.8527 9.26222 8.33986 9.57887H8.34005Z" fill="#FC4739"/>
<path d="M6.96188 8.33594C6.96188 8.33594 5.90191 9.37155 5.06137 10.5655C5.06137 10.5655 4.85432 10.1999 4.78125 9.74929C4.78125 9.74929 5.68289 8.64061 6.70612 7.61719C6.70612 7.61719 6.79137 7.99493 6.96188 8.33594Z" fill="#FC4739"/>
<path d="M6.77028 6.91113C6.77028 6.91113 5.79557 7.7395 4.82812 8.97017C4.82812 8.97017 4.96072 8.58397 5.20155 8.18619C5.20155 8.18619 6.02638 7.14371 7.22679 6.02246C7.22679 6.02246 6.91662 6.47269 6.77028 6.91133V6.91113Z" fill="#FC4739"/>
<path d="M14.1739 6.30152C14.1739 6.30152 13.1627 7.22751 12.3161 8.39709C12.3161 8.39709 11.7739 8.17787 11.25 7.90973C11.25 7.90973 12.2004 6.82541 13.2969 5.89941C13.2969 5.89941 13.699 6.10646 14.1741 6.30152H14.1739Z" fill="#FC4739"/>
<path d="M12.5002 5.49821C12.5002 5.49821 11.3672 6.37549 10.295 7.42308C10.295 7.42308 9.94165 7.1795 9.625 6.87483C9.625 6.87483 10.7215 5.92447 11.9398 5.05957C11.9398 5.05957 12.1834 5.27879 12.5002 5.49821Z" fill="#FC4739"/>
<path d="M11.5499 4.59524C11.5499 4.59524 10.3316 5.32617 9.12547 6.31306C9.12547 6.31306 8.97932 6.02057 8.90625 5.72828C8.90625 5.72828 10.088 4.83882 11.355 4.0957C11.355 4.0957 11.3307 4.3882 11.5499 4.59524Z" fill="#FC4739"/>
<path d="M11.3897 3.59699C11.3897 3.59699 10.281 4.13307 8.95312 5.11996C8.95312 5.11996 9.06274 4.80311 9.28215 4.49863C9.28215 4.49863 10.3299 3.74334 11.6578 3.09766C11.6578 3.09766 11.4508 3.37777 11.3899 3.59719L11.3897 3.59699Z" fill="#FC4739"/>
<path d="M12.0379 2.68327C12.0379 2.68327 12.4773 2.34462 12.8669 2.12402C12.8669 2.12402 11.55 2.74829 10.3564 3.55643C10.3564 3.55643 10.1983 3.67016 10.0156 3.82849C10.0156 3.82849 11.0269 3.19499 12.0381 2.68327H12.0379Z" fill="#FC4739"/>
<path d="M1.29988 30.3632L1.21875 30.209C1.21875 30.209 1.70944 31.6542 2.34531 32.9153C2.34531 32.9153 1.67762 31.6058 1.29988 30.3632Z" fill="#FC4739"/>
<path d="M8.72387 40.6824C8.72387 40.6824 8.44729 40.5675 8.15912 40.3265C7.87095 40.0855 9.15229 41.182 9.43752 41.3038C9.43752 41.3038 8.95527 40.9747 8.72367 40.6824H8.72387Z" fill="#FC4739"/>
<path d="M4.02838 35.7116L3.8125 35.4619C3.8125 35.4619 4.52634 36.6154 5.45293 37.6376C5.45293 37.6376 4.49118 36.5278 4.02838 35.7116Z" fill="#FC4739"/>
<path d="M18.3578 2.91479C18.3578 2.91479 17.1819 3.57736 16.2042 4.47055C16.2042 4.47055 15.8603 4.32814 15.5312 4.14526C15.5312 4.14526 16.7374 3.32907 17.9191 2.71973C17.9191 2.71973 18.114 2.82934 18.3578 2.91459V2.91479Z" fill="#FC4739"/>
<path d="M17.485 2.48849C17.485 2.48849 16.1571 3.12199 14.9386 3.86511C14.9386 3.86511 14.7072 3.6946 14.5 3.49954C14.5 3.49954 15.8279 2.76861 17.1925 2.28125C17.1925 2.28125 17.2778 2.37868 17.485 2.48829V2.48849Z" fill="#FC4739"/>
<path d="M17.0063 2.026C17.0063 2.026 15.6419 2.4281 14.2163 3.13468C14.2163 3.13468 14.0824 2.96418 14.0945 2.75694C14.0945 2.75694 15.4103 2.19651 16.8845 1.78223C16.8845 1.78223 16.9089 1.89184 17.0063 2.02581V2.026Z" fill="#FC4739"/>
<path d="M16.8967 1.50093C16.8967 1.50093 15.5307 1.81189 14.0938 2.33873C14.0938 2.33873 14.1554 2.17117 14.2772 2.01265C14.2772 2.01265 15.4224 1.57401 17.0063 1.26953C17.0063 1.26953 16.8967 1.39132 16.8967 1.50093Z" fill="#FC4739"/>
<path d="M17.267 1.01423C17.267 1.01423 16.0243 1.18473 14.6719 1.63555C14.6719 1.63555 14.8233 1.46505 15.107 1.30652C15.107 1.30652 16.1337 0.989673 17.6689 0.746094C17.6689 0.746094 17.3399 0.928778 17.2668 1.01403L17.267 1.01423Z" fill="#FC4739"/>
<path d="M18.5547 0.356445C18.5547 0.356445 18.1647 0.453877 17.8237 0.600025C17.8237 0.600025 16.8247 0.721815 15.7891 0.977769L16.2464 0.790763C16.2464 0.790763 17.0806 0.563684 18.5547 0.356445Z" fill="#FC4739"/>
<path d="M19.2721 0.173452C19.2721 0.173452 19.3216 0.131022 19.8755 0C19.8755 0 18.8548 0.134755 18.0781 0.3196C18.0781 0.3196 18.87 0.161273 19.2721 0.173452Z" fill="#FC4739"/>
<path d="M23.048 0.913086C23.048 0.913086 21.8115 1.2211 20.715 1.72063C20.715 1.72063 20.5323 1.67191 20.4531 1.63538C20.4531 1.63538 21.7993 1.19006 23.0482 0.913086H23.048Z" fill="#FC4739"/>
<path d="M23.0542 0.916992C23.0542 0.916992 21.5495 1.16352 20.2399 1.50178C20.2399 1.50178 20.179 1.46524 20.0938 1.36781C20.0938 1.36781 21.4338 1.12423 23.0542 0.916992Z" fill="#FC4739"/>
<path d="M23.0415 0.911133C23.0415 0.911133 21.4993 1.06258 19.9952 1.26963C19.9952 1.26963 19.9531 1.20873 19.9531 1.12348C19.9531 1.12348 21.3908 1.00346 23.0415 0.911133Z" fill="#FC4739"/>
<path d="M23.0388 0.909864C23.0388 0.909864 21.4732 0.929115 19.9688 0.977831C19.9688 0.977831 19.9748 0.921651 20.0845 0.858398C20.0845 0.858398 21.4732 0.866452 23.0388 0.909864Z" fill="#FC4739"/>
<path d="M23.0417 0.906104C23.0417 0.906104 21.5879 0.794529 20.1797 0.745813C20.1797 0.745813 20.2457 0.672739 20.404 0.624023C20.404 0.624023 21.5614 0.725384 23.0417 0.906104Z" fill="#FC4739"/>
<path d="M23.0486 0.901171C23.0486 0.901171 21.8242 0.697468 20.5938 0.526962C20.5938 0.526962 20.6425 0.477264 20.9715 0.422852C20.9715 0.422852 21.8975 0.593161 23.0488 0.901171H23.0486Z" fill="#FC4739"/>
<path d="M23.0403 0.90231C23.0403 0.90231 22.0595 0.587621 21.1094 0.344042C21.1094 0.344042 21.3042 0.283147 21.4871 0.258789C21.4871 0.258789 22.2181 0.485868 23.0405 0.90231H23.0403Z" fill="#FC4739"/>
<path d="M23.0422 0.903001C23.0422 0.903001 22.4391 0.440985 21.7812 0.209388C21.7812 0.209388 22.0005 0.185031 22.1955 0.172852C22.1955 0.172852 22.5855 0.390305 23.0424 0.903001H23.0422Z" fill="#FC4739"/>
<path d="M23.0438 0.907417C23.0438 0.907417 22.8428 0.465635 22.5625 0.136802C22.5625 0.136802 22.7817 0.112444 22.9524 0.136802C22.9524 0.136802 23.0011 0.337952 23.0438 0.907417Z" fill="#FC4739"/>
<path d="M54.9453 31.5328V21.478H64.8168V22.5254H56.2022V25.877H64.4567V26.9243H56.2022V30.4854H65V31.5328H54.9453Z" fill="#191919"/>
<path d="M71.173 31.7422C70.1911 31.7422 69.3837 31.6746 68.7509 31.5393C68.1181 31.4084 67.6228 31.164 67.265 30.8061C66.9115 30.4483 66.6627 29.9333 66.5187 29.2613C66.3791 28.5892 66.3092 27.7142 66.3092 26.6363V21.478H67.5661V26.6363C67.5661 27.3782 67.5923 27.9935 67.6446 28.4823C67.697 28.9711 67.7952 29.3616 67.9392 29.654C68.0832 29.9464 68.2883 30.1646 68.5545 30.3086C68.8251 30.4527 69.1742 30.5465 69.6019 30.5901C70.0296 30.6338 70.5533 30.6556 71.173 30.6556H73.5426C74.1667 30.6556 74.6904 30.6338 75.1137 30.5901C75.5414 30.5465 75.8883 30.4527 76.1545 30.3086C76.4251 30.1646 76.6324 29.9464 76.7764 29.654C76.9204 29.3616 77.0186 28.9711 77.0709 28.4823C77.1233 27.9935 77.1495 27.3782 77.1495 26.6363V21.478H78.4063V26.6363C78.4063 27.7142 78.3343 28.5892 78.1903 29.2613C78.0507 29.9333 77.8019 30.4483 77.4441 30.8061C77.0906 31.164 76.5975 31.4084 75.9647 31.5393C75.3319 31.6746 74.5245 31.7422 73.5426 31.7422H71.173Z" fill="#191919"/>
<path d="M80.1345 26.6363V26.3745C80.1345 25.4842 80.1781 24.738 80.2654 24.1357C80.3527 23.5291 80.5033 23.036 80.7171 22.6563C80.9309 22.2766 81.2211 21.9864 81.5877 21.7857C81.9587 21.5849 82.4234 21.4497 82.982 21.3798C83.5406 21.3056 84.2127 21.2686 84.9982 21.2686H87.6363C88.5353 21.2686 89.2924 21.3122 89.9077 21.3995C90.5274 21.4824 91.0249 21.6504 91.4002 21.9035C91.7799 22.1523 92.0548 22.521 92.225 23.0098C92.3952 23.4942 92.4803 24.1379 92.4803 24.9409H91.2235C91.2235 24.3081 91.1668 23.8171 91.0533 23.468C90.9398 23.1145 90.7478 22.8592 90.4773 22.7021C90.211 22.545 89.8466 22.449 89.3841 22.4141C88.9215 22.3748 88.3389 22.3552 87.6363 22.3552H84.9982C84.3742 22.3552 83.8483 22.3748 83.4206 22.4141C82.9929 22.449 82.6438 22.5341 82.3732 22.6694C82.107 22.8003 81.9019 23.0098 81.7579 23.2978C81.6183 23.5859 81.5223 23.9786 81.4699 24.4761C81.4175 24.9736 81.3913 25.6064 81.3913 26.3745V26.6363C81.3913 27.3782 81.4175 27.9935 81.4699 28.4823C81.5223 28.9711 81.6183 29.3616 81.7579 29.654C81.9019 29.9464 82.107 30.1646 82.3732 30.3086C82.6438 30.4527 82.9929 30.5465 83.4206 30.5901C83.8483 30.6338 84.3742 30.6556 84.9982 30.6556H87.6363C88.3389 30.6556 88.9215 30.6403 89.3841 30.6098C89.8466 30.5792 90.211 30.4898 90.4773 30.3414C90.7478 30.193 90.9398 29.9464 91.0533 29.6017C91.1668 29.2525 91.2235 28.7638 91.2235 28.1354H92.4803C92.4803 28.9383 92.3952 29.5799 92.225 30.0599C92.0548 30.5399 91.7799 30.9022 91.4002 31.1465C91.0249 31.3866 90.5274 31.5458 89.9077 31.6244C89.2924 31.703 88.5353 31.7422 87.6363 31.7422H84.9982C84.0163 31.7422 83.209 31.6746 82.5762 31.5393C81.9434 31.4084 81.4481 31.164 81.0902 30.8061C80.7367 30.4483 80.488 29.9333 80.344 29.2613C80.2043 28.5892 80.1345 27.7142 80.1345 26.6363Z" fill="#191919"/>
<path d="M93.7634 31.5328L99.6286 21.478H101.304L107.17 31.5328H105.703L104.447 29.2285H96.4865L95.2297 31.5328H93.7634ZM97.1149 28.1812H103.818L100.467 22.3159L97.1149 28.1812Z" fill="#191919"/>
<path d="M111.817 31.5328L117.683 21.478H119.358L125.224 31.5328H123.757L122.501 29.2285H114.541L113.284 31.5328H111.817ZM115.169 28.1812H121.872L118.521 22.3159L115.169 28.1812Z" fill="#191919"/>
<path d="M126.899 31.5328V21.478H128.156V30.4854H136.116V31.5328H126.899Z" fill="#191919"/>
<path d="M137.792 31.5328V21.478H139.049V30.4854H147.009V31.5328H137.792Z" fill="#191919"/>
<path d="M148.685 31.5328V21.478H149.942V31.5328H148.685Z" fill="#191919"/>
<path d="M151.617 31.5328L157.483 21.478H159.158L165.024 31.5328H163.557L162.3 29.2285H154.34L153.084 31.5328H151.617ZM154.969 28.1812H161.672L158.32 22.3159L154.969 28.1812Z" fill="#191919"/>
<path d="M166.699 31.5328V21.478H168.009L178.109 29.9813H178.122V21.478H179.379V31.5328H178.07L167.969 22.9574H167.956V31.5328H166.699Z" fill="#191919"/>
<path d="M181.48 26.6363V26.3745C181.48 25.4842 181.524 24.738 181.611 24.1357C181.699 23.5291 181.849 23.036 182.063 22.6563C182.277 22.2766 182.567 21.9864 182.934 21.7857C183.305 21.5849 183.769 21.4497 184.328 21.3798C184.887 21.3056 185.559 21.2686 186.344 21.2686H188.982C189.881 21.2686 190.638 21.3122 191.254 21.3995C191.873 21.4824 192.371 21.6504 192.746 21.9035C193.126 22.1523 193.401 22.521 193.571 23.0098C193.741 23.4942 193.826 24.1379 193.826 24.9409H192.569C192.569 24.3081 192.513 23.8171 192.399 23.468C192.286 23.1145 192.094 22.8592 191.823 22.7021C191.557 22.545 191.193 22.449 190.73 22.4141C190.267 22.3748 189.685 22.3552 188.982 22.3552H186.344C185.72 22.3552 185.194 22.3748 184.767 22.4141C184.339 22.449 183.99 22.5341 183.719 22.6694C183.453 22.8003 183.248 23.0098 183.104 23.2978C182.964 23.5859 182.868 23.9786 182.816 24.4761C182.763 24.9736 182.737 25.6064 182.737 26.3745V26.6363C182.737 27.3782 182.763 27.9935 182.816 28.4823C182.868 28.9711 182.964 29.3616 183.104 29.654C183.248 29.9464 183.453 30.1646 183.719 30.3086C183.99 30.4527 184.339 30.5465 184.767 30.5901C185.194 30.6338 185.72 30.6556 186.344 30.6556H188.982C189.685 30.6556 190.267 30.6403 190.73 30.6098C191.193 30.5792 191.557 30.4898 191.823 30.3414C192.094 30.193 192.286 29.9464 192.399 29.6017C192.513 29.2525 192.569 28.7638 192.569 28.1354H193.826C193.826 28.9383 193.741 29.5799 193.571 30.0599C193.401 30.5399 193.126 30.9022 192.746 31.1465C192.371 31.3866 191.873 31.5458 191.254 31.6244C190.638 31.703 189.881 31.7422 188.982 31.7422H186.344C185.362 31.7422 184.555 31.6746 183.922 31.5393C183.289 31.4084 182.794 31.164 182.436 30.8061C182.083 30.4483 181.834 29.9333 181.69 29.2613C181.55 28.5892 181.48 27.7142 181.48 26.6363Z" fill="#191919"/>
<path d="M195.947 31.5328V21.478H205.819V22.5254H197.204V25.877H205.459V26.9243H197.204V30.4854H206.002V31.5328H195.947Z" fill="#191919"/>
<path d="M144.148 38.5992V38.4305C144.148 37.8569 144.177 37.3761 144.233 36.988C144.289 36.5972 144.386 36.2794 144.524 36.0348C144.662 35.7902 144.849 35.6032 145.085 35.4738C145.324 35.3445 145.623 35.2573 145.983 35.2123C146.343 35.1645 146.776 35.1406 147.282 35.1406H148.982C149.561 35.1406 150.049 35.1687 150.446 35.225C150.845 35.2784 151.165 35.3867 151.407 35.5498C151.652 35.71 151.829 35.9476 151.939 36.2626C152.048 36.5747 152.103 36.9894 152.103 37.5068H151.293C151.293 37.0991 151.257 36.7828 151.184 36.5578C151.111 36.33 150.987 36.1655 150.813 36.0643C150.641 35.9631 150.406 35.9012 150.108 35.8787C149.81 35.8534 149.435 35.8408 148.982 35.8408H147.282C146.88 35.8408 146.541 35.8534 146.266 35.8787C145.99 35.9012 145.765 35.9561 145.591 36.0432C145.419 36.1276 145.287 36.2626 145.194 36.4481C145.104 36.6337 145.043 36.8868 145.009 37.2073C144.975 37.5279 144.958 37.9356 144.958 38.4305V38.5992C144.958 39.0772 144.975 39.4737 145.009 39.7886C145.043 40.1036 145.104 40.3552 145.194 40.5436C145.287 40.732 145.419 40.8726 145.591 40.9654C145.765 41.0582 145.99 41.1186 146.266 41.1468C146.541 41.1749 146.88 41.1889 147.282 41.1889H148.982C149.435 41.1889 149.81 41.1791 150.108 41.1594C150.406 41.1397 150.641 41.0821 150.813 40.9865C150.987 40.8909 151.111 40.732 151.184 40.5099C151.257 40.2849 151.293 39.97 151.293 39.5651H152.103C152.103 40.0825 152.048 40.4958 151.939 40.8051C151.829 41.1144 151.652 41.3478 151.407 41.5053C151.165 41.6599 150.845 41.7626 150.446 41.8132C150.049 41.8638 149.561 41.8891 148.982 41.8891H147.282C146.65 41.8891 146.129 41.8455 145.722 41.7583C145.314 41.674 144.995 41.5165 144.764 41.2859C144.536 41.0554 144.376 40.7236 144.283 40.2905C144.193 39.8575 144.148 39.2937 144.148 38.5992Z" fill="#FC4739"/>
<path d="M156.334 41.8891C155.701 41.8891 155.181 41.8455 154.773 41.7583C154.365 41.674 154.046 41.5165 153.816 41.2859C153.588 41.0554 153.428 40.7236 153.335 40.2905C153.245 39.8575 153.2 39.2937 153.2 38.5992V38.4305C153.2 37.8569 153.228 37.3761 153.284 36.988C153.34 36.5972 153.437 36.2794 153.575 36.0348C153.713 35.7902 153.9 35.6032 154.136 35.4738C154.375 35.3445 154.675 35.2573 155.035 35.2123C155.394 35.1645 155.828 35.1406 156.334 35.1406H158.033C158.54 35.1406 158.973 35.1645 159.332 35.2123C159.692 35.2573 159.99 35.3445 160.227 35.4738C160.466 35.6032 160.654 35.7902 160.792 36.0348C160.93 36.2794 161.027 36.5972 161.083 36.988C161.139 37.3761 161.167 37.8569 161.167 38.4305V38.5992C161.167 39.2937 161.121 39.8575 161.028 40.2905C160.938 40.7236 160.778 41.0554 160.547 41.2859C160.319 41.5165 160.002 41.674 159.594 41.7583C159.186 41.8455 158.666 41.8891 158.033 41.8891H156.334ZM156.334 41.1889H158.033C158.436 41.1889 158.774 41.1749 159.05 41.1468C159.325 41.1186 159.549 41.0582 159.721 40.9654C159.895 40.8726 160.027 40.732 160.117 40.5436C160.21 40.3552 160.273 40.1036 160.307 39.7886C160.341 39.4737 160.357 39.0772 160.357 38.5992V38.4305C160.357 37.9356 160.341 37.5279 160.307 37.2073C160.273 36.8868 160.21 36.6337 160.117 36.4481C160.027 36.2626 159.895 36.1276 159.721 36.0432C159.549 35.9561 159.325 35.9012 159.05 35.8787C158.774 35.8534 158.436 35.8408 158.033 35.8408H156.334C155.932 35.8408 155.593 35.8534 155.317 35.8787C155.042 35.9012 154.817 35.9561 154.642 36.0432C154.471 36.1276 154.339 36.2626 154.246 36.4481C154.156 36.6337 154.094 36.8868 154.06 37.2073C154.027 37.5279 154.01 37.9356 154.01 38.4305V38.5992C154.01 39.0772 154.027 39.4737 154.06 39.7886C154.094 40.1036 154.156 40.3552 154.246 40.5436C154.339 40.732 154.471 40.8726 154.642 40.9654C154.817 41.0582 155.042 41.1186 155.317 41.1468C155.593 41.1749 155.932 41.1889 156.334 41.1889Z" fill="#FC4739"/>
<path d="M162.521 41.7541V35.2756H163.365L169.873 40.7545H169.881V35.2756H170.691V41.7541H169.847L163.339 36.2288H163.331V41.7541H162.521Z" fill="#FC4739"/>
<path d="M172.315 41.7541V35.2756H173.158L179.666 40.7545H179.675V35.2756H180.485V41.7541H179.641L173.133 36.2288H173.125V41.7541H172.315Z" fill="#FC4739"/>
<path d="M182.109 41.7541V35.2756H188.469V35.9504H182.918V38.11H188.237V38.7848H182.918V41.0793H188.587V41.7541H182.109Z" fill="#FC4739"/>
<path d="M189.397 38.5992V38.4305C189.397 37.8569 189.425 37.3761 189.481 36.988C189.538 36.5972 189.635 36.2794 189.772 36.0348C189.91 35.7902 190.097 35.6032 190.333 35.4738C190.572 35.3445 190.872 35.2573 191.232 35.2123C191.592 35.1645 192.025 35.1406 192.531 35.1406H194.23C194.81 35.1406 195.298 35.1687 195.694 35.225C196.093 35.2784 196.414 35.3867 196.656 35.5498C196.9 35.71 197.078 35.9476 197.187 36.2626C197.297 36.5747 197.352 36.9894 197.352 37.5068H196.542C196.542 37.0991 196.505 36.7828 196.432 36.5578C196.359 36.33 196.235 36.1655 196.061 36.0643C195.889 35.9631 195.655 35.9012 195.357 35.8787C195.059 35.8534 194.683 35.8408 194.23 35.8408H192.531C192.129 35.8408 191.79 35.8534 191.514 35.8787C191.239 35.9012 191.014 35.9561 190.839 36.0432C190.668 36.1276 190.536 36.2626 190.443 36.4481C190.353 36.6337 190.291 36.8868 190.257 37.2073C190.224 37.5279 190.207 37.9356 190.207 38.4305V38.5992C190.207 39.0772 190.224 39.4737 190.257 39.7886C190.291 40.1036 190.353 40.3552 190.443 40.5436C190.536 40.732 190.668 40.8726 190.839 40.9654C191.014 41.0582 191.239 41.1186 191.514 41.1468C191.79 41.1749 192.129 41.1889 192.531 41.1889H194.23C194.683 41.1889 195.059 41.1791 195.357 41.1594C195.655 41.1397 195.889 41.0821 196.061 40.9865C196.235 40.8909 196.359 40.732 196.432 40.5099C196.505 40.2849 196.542 39.97 196.542 39.5651H197.352C197.352 40.0825 197.297 40.4958 197.187 40.8051C197.078 41.1144 196.9 41.3478 196.656 41.5053C196.414 41.6599 196.093 41.7626 195.694 41.8132C195.298 41.8638 194.81 41.8891 194.23 41.8891H192.531C191.898 41.8891 191.378 41.8455 190.97 41.7583C190.562 41.674 190.243 41.5165 190.013 41.2859C189.785 41.0554 189.625 40.7236 189.532 40.2905C189.442 39.8575 189.397 39.2937 189.397 38.5992Z" fill="#FC4739"/>
<path d="M201.544 41.7541V35.9504H198.305V35.2756H205.593V35.9504H202.354V41.7541H201.544Z" fill="#FC4739"/>
</svg>
