<svg width="9" height="7" viewBox="0 0 9 7" fill="none" xmlns="http://www.w3.org/2000/svg">
<path d="M2.93516 4.87022L7.63888 0.166503C7.74988 0.0555012 7.87938 0 8.02738 0C8.17539 0 8.30489 0.0555012 8.41589 0.166503C8.52689 0.277506 8.58239 0.409413 8.58239 0.562226C8.58239 0.715039 8.52689 0.846762 8.41589 0.957394L3.32366 6.0635C3.21266 6.1745 3.08316 6.23 2.93516 6.23C2.78715 6.23 2.65765 6.1745 2.54665 6.0635L0.160099 3.67695C0.0490972 3.56595 -0.00418393 3.43422 0.000256159 3.28178C0.00469625 3.12934 0.0626023 2.99743 0.173975 2.88606C0.285347 2.77469 0.417255 2.71918 0.569698 2.71955C0.722141 2.71992 0.853863 2.77543 0.964866 2.88606L2.93516 4.87022Z" fill="white"/>
</svg>
