<svg width="10" height="11" viewBox="0 0 10 11" fill="none" xmlns="http://www.w3.org/2000/svg">
<path d="M1.77107 10.1549H6.67556C7.65646 10.1549 8.44663 9.36472 8.44663 8.38382V5.38663C8.44663 5.15502 8.26953 4.97792 8.03792 4.97792C7.80632 4.97792 7.62922 5.15502 7.62922 5.38663V8.38382C7.62922 8.91514 7.20688 9.33747 6.67556 9.33747H1.77107C1.23975 9.33747 0.817416 8.91514 0.817416 8.38382V3.47932C0.817416 2.948 1.23975 2.52567 1.77107 2.52567H4.76826C4.99986 2.52567 5.17697 2.34856 5.17697 2.11696C5.17697 1.88536 4.99986 1.70825 4.76826 1.70825H1.77107C0.790169 1.70825 0 2.49842 0 3.47932V8.38382C0 9.36472 0.790169 10.1549 1.77107 10.1549Z" fill="#787B83"/>
<path d="M9.39343 3.76042V1.2673C9.39343 1.24006 9.39343 1.21281 9.3798 1.18556C9.3798 1.17194 9.3798 1.15831 9.36618 1.15831C9.36618 1.14469 9.35256 1.13107 9.35256 1.11744C9.35256 1.10382 9.33893 1.0902 9.32531 1.07657C9.32531 1.06295 9.31168 1.04932 9.31168 1.04932C9.28444 1.00845 9.24357 0.967583 9.2027 0.940336L9.17545 0.926712C9.1482 0.885841 9.12095 0.872218 9.09371 0.872218L9.05284 0.858594C9.02559 0.858594 8.99834 0.844971 8.97109 0.844971H6.47798C6.24637 0.844971 6.06927 1.02208 6.06927 1.25368C6.06927 1.48528 6.24637 1.66239 6.47798 1.66239H7.9902L4.24371 5.4225C4.08022 5.58599 4.08022 5.84483 4.24371 5.99469C4.40719 6.15818 4.66604 6.15818 4.8159 5.99469L8.57601 2.2482V3.76042C8.57601 3.99202 8.75312 4.16913 8.98472 4.16913C9.20269 4.16913 9.3798 3.9784 9.39343 3.76042Z" fill="#787B83"/>
</svg>
