<svg width="158" height="24" viewBox="0 0 158 24" fill="none" xmlns="http://www.w3.org/2000/svg">
<path d="M126 10.5H107V13.7143H126V10.5Z" fill="url(#paint0_linear_5_10)"/>
<path d="M128 3.03984e-06L102 0V24H128V21H105.401V3H128V3.03984e-06Z" fill="url(#paint1_linear_5_10)"/>
<path d="M73.5 0H70L81.5 24H86.5L98 0H94.5L84 21L73.5 0Z" fill="url(#paint2_linear_5_10)"/>
<path d="M66.4477 0H63.3303V24H66.4477V0Z" fill="url(#paint3_linear_5_10)"/>
<path d="M3 3V24H0V0H16.384C18.6524 0 20.956 0.461351 22.7654 1.82934C26.8109 4.88779 27.5 8.34933 27.5 12.5C27.5 18.71 24.7698 21.4846 21.8469 23.1074C20.6629 23.7647 19.3017 24 17.9474 24H5.10108V21H15.8132C17.9016 21 20.0352 20.5743 21.7151 19.3337C23.514 18.005 24.5 16.3618 24.5 12.5C24.5 8.6263 23.2495 6.41989 21.6905 4.93888C20.1136 3.44095 17.8511 3 15.6762 3H3Z" fill="url(#paint4_linear_5_10)"/>
<path d="M57.3791 24V0H42.6704C41.4576 0 40.2449 0.18634 39.1148 0.626556C35.5269 2.02415 33.9378 3.36574 32.5579 6.03948C31.8447 7.4214 31.5872 8.98568 31.5872 10.5408V24H34.671V10.2789C34.671 9.20215 34.8513 8.10947 35.4646 7.22445C36.8005 5.29663 38.8707 3.88226 40.198 3.28425C40.7151 3.05127 41.286 3 41.8532 3H54.5756V13.5491H36.0727V16.654H54.2953V24H57.3791Z" fill="url(#paint5_linear_5_10)"/>
<path d="M135 24L132 24V0H134.709C135.567 0 136.426 0.092575 137.252 0.324745C147.026 3.07192 153.187 9.80112 155 13V0H158V24H155C155 10.5714 140 3.5 135 3V24Z" fill="url(#paint6_linear_5_10)"/>
<defs>
<linearGradient id="paint0_linear_5_10" x1="84.4483" y1="0" x2="84.4483" y2="24" gradientUnits="userSpaceOnUse">
<stop stop-color="#333560"/>
<stop offset="1" stop-color="#464890"/>
</linearGradient>
<linearGradient id="paint1_linear_5_10" x1="79" y1="0" x2="79" y2="24" gradientUnits="userSpaceOnUse">
<stop stop-color="#333560"/>
<stop offset="1" stop-color="#46488F"/>
</linearGradient>
<linearGradient id="paint2_linear_5_10" x1="79" y1="0" x2="79" y2="24" gradientUnits="userSpaceOnUse">
<stop stop-color="#32345E"/>
<stop offset="1" stop-color="#464890"/>
</linearGradient>
<linearGradient id="paint3_linear_5_10" x1="79" y1="0" x2="79" y2="24" gradientUnits="userSpaceOnUse">
<stop stop-color="#31335D"/>
<stop offset="1" stop-color="#46488F"/>
</linearGradient>
<linearGradient id="paint4_linear_5_10" x1="79.8061" y1="0" x2="79.8061" y2="24" gradientUnits="userSpaceOnUse">
<stop stop-color="#2E3057"/>
<stop offset="1" stop-color="#464892"/>
</linearGradient>
<linearGradient id="paint5_linear_5_10" x1="79" y1="0" x2="79" y2="24" gradientUnits="userSpaceOnUse">
<stop stop-color="#30325B"/>
<stop offset="1" stop-color="#464891"/>
</linearGradient>
<linearGradient id="paint6_linear_5_10" x1="144.964" y1="-4.56161e-09" x2="144.964" y2="24" gradientUnits="userSpaceOnUse">
<stop stop-color="#343661"/>
<stop offset="1" stop-color="#46488F"/>
</linearGradient>
</defs>
</svg>
