<svg width="12" height="16" viewBox="0 0 12 16" fill="none" xmlns="http://www.w3.org/2000/svg">
<path d="M6 0.5C2.69074 0.5 0 3.19102 0 6.50061C0 8.1183 0.788992 9.68905 1.74609 10.7315L5.71582 15.3697C5.75102 15.4106 5.79464 15.4434 5.84368 15.4659C5.89273 15.4884 5.94604 15.5 6 15.5C6.05395 15.5 6.10727 15.4884 6.15631 15.4659C6.20536 15.4434 6.24897 15.4106 6.28418 15.3697L10.2539 10.7315C11.211 9.68905 12 8.1183 12 6.50061C12 3.19102 9.30925 0.5 6 0.5ZM6 4.25038C7.2382 4.25038 8.25 5.2623 8.25 6.50061C8.25 7.73893 7.2382 8.75084 6 8.75084C4.7618 8.75084 3.75 7.73893 3.75 6.50061C3.75 5.2623 4.7618 4.25038 6 4.25038Z" fill="#FC4739"/>
</svg>
