<svg width="28" height="24" viewBox="0 0 28 24" fill="none" xmlns="http://www.w3.org/2000/svg">
<path d="M2.98101 3V24H0V0H16.239C18.5198 0 20.8372 0.46573 22.6493 1.85066C26.6444 4.90388 27.3259 8.35898 27.3259 12.5C27.3259 18.696 24.6252 21.472 21.7283 23.0964C20.5403 23.7625 19.1709 24 17.8088 24H5.0688V21H15.6754C17.7748 21 19.9224 20.5722 21.6034 19.3144C23.3746 17.9892 24.3449 16.3432 24.3449 12.5C24.3449 8.6455 23.1147 6.4418 21.5762 4.96095C20.001 3.44474 17.7242 3 15.5378 3H2.98101Z" fill="url(#paint0_linear_5_10)"/>
<defs>
<linearGradient id="paint0_linear_5_10" x1="13.8024" y1="0" x2="13.8024" y2="24" gradientUnits="userSpaceOnUse">
<stop stop-color="#2E3057"/>
<stop offset="1" stop-color="#464892"/>
</linearGradient>
</defs>
</svg>
