<svg width="30" height="30" viewBox="0 0 30 30" xmlns="http://www.w3.org/2000/svg">
<path d="M28.6903 29.3491C28.4712 29.5689 28.2091 29.7409 27.9202 29.8544C27.6314 29.9678 27.3223 30.0203 27.0122 30.0084L2.15592 28.982C1.55987 28.9572 0.998082 28.6966 0.594172 28.2576C0.190262 27.8185 -0.0227034 27.237 0.00213209 26.641C0.0269675 26.0449 0.287569 25.4832 0.726602 25.0792C1.16564 24.6753 1.74715 24.4624 2.3432 24.4872L21.4462 25.2363L1.4423 3.88165C1.2215 3.6759 1.04439 3.42779 0.92156 3.15211C0.798726 2.87643 0.732678 2.57883 0.727353 2.27707C0.722029 1.97531 0.777538 1.67557 0.890571 1.39572C1.0036 1.11588 1.17184 0.861668 1.38525 0.64826C1.59867 0.434849 1.85287 0.266607 2.13272 0.153576C2.41256 0.0405426 2.7123 -0.0149651 3.01406 -0.00964165C3.31582 -0.00431633 3.61342 0.0617294 3.8891 0.184565C4.16478 0.3074 4.4129 0.484505 4.61865 0.705313L24.615 22.0975L23.8658 2.99446C23.8415 2.39953 24.0542 1.81925 24.4573 1.38102C24.8604 0.942799 25.421 0.682457 26.0159 0.657154H26.1132C26.694 0.656689 27.2525 0.881086 27.6714 1.28331C28.0904 1.68553 28.3374 2.23433 28.3607 2.81467L29.3795 27.671C29.3875 27.9833 29.3304 28.2938 29.2117 28.5827C29.093 28.8716 28.9155 29.1327 28.6903 29.3491Z" />
</svg>
