<svg width="10" height="7" viewBox="0 0 10 7" xmlns="http://www.w3.org/2000/svg">
<path d="M3.08703 5.65701L1.01589 3.72532C0.904285 3.62124 0.752921 3.56276 0.595093 3.56276C0.437264 3.56276 0.2859 3.62124 0.174299 3.72532C0.0626971 3.82941 0 3.97058 0 4.11778C0 4.19067 0.0153926 4.26284 0.0452989 4.33018C0.0752051 4.39752 0.119039 4.4587 0.174299 4.51024L2.66922 6.83717C2.902 7.05428 3.27803 7.05428 3.51081 6.83717L9.8257 0.947483C9.9373 0.843396 10 0.702224 10 0.555023C10 0.407822 9.9373 0.266649 9.8257 0.162562C9.7141 0.0584756 9.56274 0 9.40491 0C9.24708 0 9.09572 0.0584756 8.98411 0.162562L3.08703 5.65701Z" />
</svg>
