<svg width="18" height="16" viewBox="0 0 18 16" fill="none" xmlns="http://www.w3.org/2000/svg">
<path d="M1.36303 1.36302C3.18036 -0.454334 6.13591 -0.454339 7.95327 1.363L16.7402 10.15C18.036 11.4458 18.036 13.5615 16.7402 14.8573C15.4444 16.1531 13.3287 16.1531 12.0329 14.8573L3.24596 6.07034C2.47175 5.29611 2.47173 4.02016 3.24596 3.24594C4.02016 2.47173 5.29611 2.47173 6.07034 3.24594L13.9159 11.0915C13.9792 11.153 14.0297 11.2264 14.0643 11.3076C14.099 11.3887 14.1172 11.476 14.1179 11.5642C14.1185 11.6525 14.1016 11.74 14.0681 11.8217C14.0347 11.9033 13.9853 11.9775 13.9229 12.0399C13.8605 12.1024 13.7863 12.1517 13.7046 12.1852C13.6229 12.2187 13.5354 12.2356 13.4472 12.2349C13.3589 12.2343 13.2717 12.2161 13.1905 12.1814C13.1093 12.1467 13.0359 12.0963 12.9744 12.0329L5.12886 4.18741C4.85994 3.91848 4.45636 3.91846 4.18741 4.18741C3.91848 4.45633 3.91848 4.85994 4.18741 5.12886L12.9744 13.9159C13.7649 14.7064 15.0083 14.7064 15.7988 13.9159C16.5893 13.1253 16.5893 11.8819 15.7988 11.0914L7.01179 2.30448C5.69971 0.992423 3.61654 0.992423 2.30448 2.30448C0.992401 3.61654 0.992423 5.69974 2.30448 7.01179L10.15 14.8573C10.2132 14.9188 10.2635 14.9923 10.298 15.0734C10.3325 15.1545 10.3506 15.2417 10.3512 15.3299C10.3518 15.418 10.3348 15.5054 10.3014 15.587C10.2679 15.6686 10.2186 15.7427 10.1562 15.805C10.0939 15.8673 10.0198 15.9167 9.9382 15.9502C9.85663 15.9836 9.76923 16.0006 9.68107 16C9.5929 15.9994 9.50573 15.9813 9.42461 15.9468C9.34349 15.9122 9.27004 15.862 9.20852 15.7988L1.36303 7.95325C-0.454353 6.13591 -0.454331 3.18038 1.36303 1.36302Z" fill="#A8A8A8"/>
</svg>
