<svg width="51" height="62" viewBox="0 0 51 62" fill="none" xmlns="http://www.w3.org/2000/svg">
<path d="M6.14489 38.6458V43.2888C6.14489 43.5077 6.06002 43.7176 5.90897 43.8724C5.75791 44.0271 5.55303 44.1141 5.3394 44.1141C5.12578 44.1141 4.9209 44.0271 4.76984 43.8724C4.61879 43.7176 4.53393 43.5077 4.53393 43.2888V38.6458C4.53393 38.4269 4.61879 38.217 4.76984 38.0623C4.9209 37.9075 5.12578 37.8205 5.3394 37.8205C5.55303 37.8205 5.75791 37.9075 5.90897 38.0623C6.06002 38.217 6.14489 38.4269 6.14489 38.6458ZM8.1958 39.2839C8.09002 39.2839 7.98528 39.3052 7.88756 39.3467C7.78983 39.3882 7.70104 39.4489 7.62624 39.5256C7.55145 39.6022 7.49211 39.6932 7.45163 39.7933C7.41116 39.8935 7.39032 40.0008 7.39032 40.1092V44.7521C7.38737 44.8624 7.40602 44.9721 7.44515 45.0748C7.48429 45.1776 7.54313 45.2712 7.61819 45.3503C7.69325 45.4293 7.78301 45.4921 7.88216 45.535C7.98132 45.5779 8.08786 45.6 8.1955 45.6C8.30313 45.6 8.40968 45.5779 8.50883 45.535C8.60799 45.4921 8.69775 45.4293 8.77281 45.3503C8.84787 45.2712 8.90671 45.1776 8.94584 45.0748C8.98498 44.9721 9.00363 44.8624 9.00068 44.7521V40.1092C9.00076 40.0008 8.98 39.8935 8.93958 39.7934C8.89917 39.6932 8.8399 39.6023 8.76515 39.5256C8.6904 39.449 8.60164 39.3882 8.50395 39.3467C8.40626 39.3052 8.30155 39.2839 8.1958 39.2839ZM11.0522 40.7472C10.8386 40.7472 10.6337 40.8341 10.4826 40.9889C10.3316 41.1437 10.2467 41.3536 10.2467 41.5725V46.2155C10.2438 46.3257 10.2624 46.4354 10.3015 46.5382C10.3407 46.6409 10.3995 46.7346 10.4746 46.8136C10.5496 46.8926 10.6394 46.9555 10.7386 46.9984C10.8377 47.0413 10.9443 47.0634 11.0519 47.0634C11.1595 47.0634 11.2661 47.0413 11.3652 46.9984C11.4644 46.9555 11.5541 46.8926 11.6292 46.8136C11.7043 46.7346 11.7631 46.6409 11.8022 46.5382C11.8414 46.4354 11.86 46.3257 11.8571 46.2155V41.5725C11.8571 41.3537 11.7723 41.1439 11.6214 40.9891C11.4704 40.8344 11.2657 40.7474 11.0522 40.7472ZM15.1558 30.3495C15.2616 30.3495 15.3664 30.3281 15.4641 30.2867C15.5618 30.2452 15.6506 30.1844 15.7254 30.1078C15.8002 30.0311 15.8595 29.9401 15.9 29.84C15.9405 29.7399 15.9613 29.6326 15.9613 29.5242V24.8812C15.9643 24.771 15.9456 24.6612 15.9065 24.5585C15.8674 24.4558 15.8085 24.3621 15.7335 24.2831C15.6584 24.204 15.5686 24.1412 15.4695 24.0983C15.3703 24.0554 15.2638 24.0333 15.1562 24.0333C15.0485 24.0333 14.942 24.0554 14.8428 24.0983C14.7437 24.1412 14.6539 24.204 14.5788 24.2831C14.5038 24.3621 14.4449 24.4558 14.4058 24.5585C14.3667 24.6612 14.348 24.771 14.351 24.8812V29.5242C14.3509 29.6325 14.3717 29.7398 14.4121 29.84C14.4525 29.9401 14.5118 30.0311 14.5865 30.1077C14.6612 30.1844 14.75 30.2452 14.8477 30.2867C14.9454 30.3281 15.0501 30.3495 15.1558 30.3495ZM18.0122 31.8128C18.2259 31.8128 18.4307 31.7259 18.5818 31.5711C18.7329 31.4163 18.8177 31.2064 18.8177 30.9875V26.3445C18.8207 26.2343 18.802 26.1246 18.7629 26.0218C18.7238 25.9191 18.6649 25.8255 18.5899 25.7464C18.5148 25.6674 18.425 25.6045 18.3259 25.5616C18.2267 25.5187 18.1202 25.4966 18.0125 25.4966C17.9049 25.4966 17.7984 25.5187 17.6992 25.5616C17.6001 25.6045 17.5103 25.6674 17.4352 25.7464C17.3602 25.8255 17.3013 25.9191 17.2622 26.0218C17.2231 26.1246 17.2044 26.2343 17.2074 26.3445V30.9875C17.2073 31.0959 17.2281 31.2032 17.2685 31.3033C17.3089 31.4034 17.3682 31.4944 17.4429 31.5711C17.5176 31.6477 17.6064 31.7085 17.7041 31.75C17.8018 31.7915 17.9065 31.8128 18.0122 31.8128ZM20.8686 33.2755C20.9744 33.2756 21.0791 33.2543 21.1768 33.2129C21.2746 33.1715 21.3634 33.1108 21.4382 33.0342C21.513 32.9576 21.5723 32.8667 21.6128 32.7666C21.6533 32.6665 21.6741 32.5592 21.6741 32.4509V27.8079C21.6741 27.589 21.5893 27.3791 21.4382 27.2243C21.2871 27.0695 21.0823 26.9826 20.8686 26.9826C20.655 26.9826 20.4501 27.0695 20.2991 27.2243C20.148 27.3791 20.0632 27.589 20.0632 27.8079V32.4509C20.0632 32.5592 20.084 32.6665 20.1245 32.7666C20.165 32.8667 20.2243 32.9576 20.2991 33.0342C20.3739 33.1108 20.4627 33.1715 20.5604 33.2129C20.6582 33.2543 20.7629 33.2756 20.8686 33.2755ZM51 32.8415V52.0489C50.9999 52.1978 50.9604 52.3438 50.8858 52.4715C50.8112 52.5992 50.7043 52.7039 50.5764 52.7744L34.1158 61.8985C34.0867 61.9144 34.0568 61.9287 34.0262 61.9413L34.0069 61.9481C33.9839 61.9568 33.9609 61.9642 33.9379 61.9711L33.9131 61.9773C33.8903 61.9828 33.8673 61.9872 33.8441 61.9903L33.8205 61.994C33.7602 62.002 33.6992 62.002 33.6389 61.994L33.6153 61.9903C33.5921 61.9871 33.5691 61.9828 33.5463 61.9773L33.5221 61.9711C33.4985 61.9642 33.4755 61.9568 33.4531 61.9481L33.4344 61.9407C33.4037 61.9282 33.3738 61.9139 33.3448 61.8979L16.8903 52.7769L16.8812 52.7713L0.423618 43.649C0.295638 43.5784 0.188689 43.4737 0.11411 43.3458C0.0395308 43.218 0.000100651 43.0719 0 42.923V23.7155C0.000289289 23.6815 0.00271503 23.6475 0.00726208 23.6138L0.0108931 23.5878C0.0151293 23.5611 0.0199707 23.5345 0.0266275 23.509L0.0320739 23.4873C0.0499788 23.4223 0.0758002 23.3598 0.10893 23.3013L0.121639 23.2796C0.135558 23.2573 0.150082 23.2356 0.165816 23.2176L0.178525 23.1996C0.19846 23.1743 0.219882 23.1503 0.242672 23.1277L0.259012 23.1122C0.277772 23.0942 0.297138 23.0775 0.319529 23.0614L0.34071 23.0452C0.368102 23.0252 0.396592 23.0068 0.426039 22.9901L9.81886 17.7816V9.95091C9.81923 9.91692 9.82146 9.88297 9.82552 9.84922L9.82976 9.82256C9.83343 9.79621 9.83868 9.77012 9.84549 9.74443L9.85094 9.72273C9.86892 9.6578 9.89452 9.59533 9.92719 9.53672L9.9405 9.51501C9.95412 9.49234 9.96886 9.4704 9.98468 9.44929L9.99739 9.43193C10.0171 9.40666 10.0384 9.38264 10.0609 9.36L10.0773 9.3445C10.0966 9.32652 10.116 9.30978 10.1378 9.29365L10.159 9.27753C10.1864 9.25749 10.2149 9.23906 10.2443 9.22235L26.7031 0.0994765C26.8207 0.0341909 26.9524 0 27.0861 0C27.2199 0 27.3516 0.0341909 27.4692 0.0994765L43.9298 9.22421C43.9593 9.24092 43.9877 9.25935 44.0151 9.27939L44.0363 9.29551C44.0569 9.31164 44.0763 9.32838 44.0968 9.34636L44.1138 9.36186C44.1353 9.38459 44.1555 9.40861 44.1743 9.43379L44.187 9.45115C44.2027 9.47223 44.2173 9.49455 44.2312 9.51687L44.2439 9.53858C44.277 9.59703 44.3028 9.65953 44.3207 9.72459L44.3262 9.74629C44.3327 9.77205 44.338 9.79812 44.3419 9.82442L44.3462 9.85108C44.3502 9.88483 44.3525 9.91878 44.3528 9.95277V28.666L50.5746 32.116C50.6047 32.1327 50.6338 32.1513 50.6617 32.1718L50.6817 32.1873C50.7028 32.2035 50.723 32.2209 50.7422 32.2394L50.7579 32.2537C50.7807 32.2765 50.8022 32.3007 50.8221 32.3262L50.8342 32.343C50.8503 32.3642 50.8653 32.3863 50.879 32.4093L50.8917 32.4304C50.9248 32.4888 50.9506 32.5513 50.9685 32.6164L50.974 32.6381C50.9806 32.6642 50.9855 32.6902 50.9897 32.7169L50.9933 32.7429C50.9976 32.7758 50.9998 32.8083 51 32.8415ZM7.16944 35.8097L8.22788 35.3571C8.40166 35.2826 8.59542 35.2728 8.7755 35.3294C8.95559 35.3861 9.11063 35.5055 9.2137 35.6671L9.81886 36.6213V25.82L7.17004 27.2883L7.16944 35.8097ZM32.6416 4.84352L16.9841 13.5243V22.0451L18.0431 21.5924C18.2168 21.5177 18.4105 21.5079 18.5906 21.5645C18.7706 21.6212 18.9255 21.7408 19.0283 21.9025L19.6335 22.8567V15.3931C19.6335 15.3851 19.6335 15.3776 19.6335 15.3702C19.6335 15.3497 19.6335 15.3299 19.6365 15.3082L19.6395 15.2896C19.6395 15.2691 19.6444 15.2487 19.6486 15.2276C19.6529 15.2065 19.6553 15.1984 19.6589 15.1842C19.6625 15.1699 19.6631 15.1662 19.6656 15.1569V15.1513L19.6825 15.103C19.6855 15.0949 19.688 15.0868 19.691 15.0794V15.0757C19.697 15.0614 19.7037 15.0484 19.7097 15.0347C19.7158 15.0211 19.7188 15.0149 19.7237 15.0056C19.7285 14.9963 19.737 14.9827 19.7436 14.9709C19.7503 14.9591 19.7569 14.9473 19.7642 14.9355L19.7684 14.9287C19.7733 14.9219 19.7781 14.9163 19.7824 14.9095C19.7866 14.9027 19.8011 14.8835 19.8114 14.8704L19.815 14.8655C19.8217 14.8574 19.829 14.85 19.8356 14.8425C19.8423 14.8351 19.8538 14.8208 19.8635 14.8109L19.8677 14.8066C19.8762 14.7979 19.8852 14.7898 19.8943 14.7818C19.9034 14.7737 19.9119 14.765 19.9209 14.7576L19.9331 14.7545C19.9439 14.7452 19.9554 14.7371 19.9669 14.7284L19.9899 14.7111L19.9966 14.7067C20.0069 14.6993 20.0178 14.6931 20.0281 14.6869L20.0607 14.6671L35.2105 6.26717L32.6416 4.84352ZM11.4286 11.3355V28.666L14.1839 30.1939L17.6522 32.116L17.6582 32.1197L23.2113 35.1977H23.2143L26.2831 36.8985V19.5692L21.2481 16.779V25.6457C21.248 25.8237 21.1919 25.9968 21.088 26.1394C20.984 26.282 20.8379 26.3863 20.6714 26.4368C20.5049 26.4874 20.3269 26.4814 20.164 26.4199C20.001 26.3583 19.8619 26.2445 19.7672 26.0953L18.0449 23.3807L16.4909 24.0448C16.3685 24.0972 16.2354 24.1178 16.1033 24.1048C15.9713 24.0918 15.8445 24.0455 15.7341 23.9702C15.6237 23.8948 15.5332 23.7927 15.4707 23.6729C15.4081 23.553 15.3754 23.4192 15.3755 23.2833V13.5237L11.4286 11.3355ZM42.7431 11.3355L27.8916 19.5692V36.8991L40.0967 30.1318L42.7437 28.6642L42.7431 11.3355ZM23.6318 44.9363L24.6909 44.4836C24.8645 44.4089 25.0583 44.3991 25.2383 44.4557C25.4184 44.5124 25.5733 44.632 25.6761 44.7937L26.2813 45.7479V38.7754L23.6324 37.3071L23.6318 44.9363ZM18.0746 51.5572L32.9266 59.7903V42.4598L27.8916 39.6695V48.5363C27.8916 48.7143 27.8354 48.8874 27.7315 49.03C27.6276 49.1725 27.4815 49.2769 27.315 49.3274C27.1485 49.378 26.9705 49.372 26.8075 49.3105C26.6446 49.2489 26.5054 49.1351 26.4108 48.9859L24.6909 46.2719L23.1368 46.9353C23.0144 46.9876 22.8814 47.0081 22.7494 46.995C22.6174 46.9819 22.4907 46.9357 22.3803 46.8604C22.27 46.785 22.1795 46.683 22.1169 46.5632C22.0543 46.4435 22.0215 46.3098 22.0215 46.1739V36.4142L18.7384 34.5962L18.0728 34.2285L18.0746 51.5572ZM48.5025 32.8421L43.5486 30.0959L38.1523 33.0877L28.7782 38.2837L33.7309 41.0299L48.5025 32.8421ZM41.8565 9.95091L36.9026 7.20531L22.1322 15.3931L27.0861 18.1394L41.8565 9.95091ZM12.3158 9.95091L16.181 12.0938L30.9514 3.90351L27.0861 1.76308L12.3158 9.95091ZM2.49874 23.7161L6.36396 25.859L9.81826 23.9443V19.6585L2.49874 23.7161ZM1.61217 42.4306L16.4642 50.6643V33.3338L11.4286 30.5436V39.4104C11.4286 39.5882 11.3725 39.7614 11.2687 39.9039C11.1649 40.0465 11.0189 40.1509 10.8525 40.2015C10.7781 40.2236 10.7011 40.2349 10.6237 40.235C10.4895 40.2351 10.3574 40.2007 10.2395 40.1351C10.1215 40.0694 10.0214 39.9746 9.94837 39.8593L8.22848 37.1459L6.6738 37.81C6.55142 37.8622 6.41835 37.8827 6.28639 37.8697C6.15443 37.8566 6.02765 37.8103 5.91732 37.735C5.80699 37.6597 5.71651 37.5576 5.65392 37.4379C5.59132 37.3181 5.55853 37.1844 5.55848 37.0486V27.2883L1.61217 25.1001V42.4306ZM49.389 51.5572V34.2242L34.537 42.4598V59.7903L49.389 51.5572ZM21.8018 46.9471C21.6961 46.947 21.5914 46.9683 21.4937 47.0097C21.396 47.0511 21.3073 47.1119 21.2325 47.1885C21.1577 47.2651 21.0985 47.356 21.058 47.4561C21.0176 47.5562 20.9969 47.6635 20.9969 47.7718V52.4154C21.0027 52.6303 21.09 52.8344 21.2404 52.9843C21.3908 53.1342 21.5923 53.2181 21.8021 53.2181C22.0119 53.2181 22.2134 53.1342 22.3638 52.9843C22.5142 52.8344 22.6015 52.6303 22.6073 52.4154V47.7718C22.6073 47.6634 22.5865 47.5562 22.546 47.4561C22.5055 47.356 22.4461 47.265 22.3713 47.1884C22.2965 47.1119 22.2077 47.0511 22.11 47.0097C22.0123 46.9683 21.9076 46.947 21.8018 46.9471ZM24.6582 48.4105C24.5525 48.4104 24.4477 48.4316 24.35 48.473C24.2523 48.5145 24.1635 48.5752 24.0887 48.6518C24.0139 48.7284 23.9545 48.8193 23.9141 48.9194C23.8736 49.0195 23.8527 49.1268 23.8527 49.2351V53.88C23.8527 54.0988 23.9376 54.3088 24.0886 54.4635C24.2397 54.6183 24.4446 54.7053 24.6582 54.7053C24.8718 54.7053 25.0767 54.6183 25.2278 54.4635C25.3788 54.3088 25.4637 54.0988 25.4637 53.88V49.2351C25.4637 49.1268 25.4429 49.0195 25.4024 48.9194C25.3619 48.8193 25.3025 48.7284 25.2277 48.6518C25.1529 48.5752 25.0641 48.5145 24.9664 48.473C24.8687 48.4316 24.764 48.4104 24.6582 48.4105ZM27.5146 49.8732C27.3013 49.8737 27.0969 49.9608 26.9462 50.1155C26.7956 50.2703 26.7109 50.4799 26.7109 50.6985V55.3414C26.7109 55.4498 26.7318 55.5571 26.7723 55.6573C26.8127 55.7574 26.8721 55.8484 26.9469 55.925C27.0217 56.0016 27.1105 56.0624 27.2082 56.1039C27.3059 56.1454 27.4106 56.1667 27.5164 56.1667C27.6222 56.1667 27.7269 56.1454 27.8247 56.1039C27.9224 56.0624 28.0112 56.0016 28.086 55.925C28.1608 55.8484 28.2201 55.7574 28.2606 55.6573C28.3011 55.5571 28.3219 55.4498 28.3219 55.3414V50.6985C28.3219 50.5899 28.301 50.4825 28.2604 50.3822C28.2198 50.2819 28.1603 50.1909 28.0853 50.1142C28.0104 50.0376 27.9213 49.9768 27.8234 49.9354C27.7255 49.8941 27.6205 49.8729 27.5146 49.8732Z" fill="white"/>
</svg>
