<svg width="19" height="15" viewBox="0 0 19 15" fill="none" xmlns="http://www.w3.org/2000/svg">
<path d="M17.7775 4.19743L15.4705 1.44705C15.2375 1.16901 14.8843 1.00366 14.5161 1.00366H11.6003C10.909 1.00366 10.3529 1.55975 10.3529 2.25114V7.30856H1.28259C0.591241 7.30856 0.0351562 7.86464 0.0351562 8.55599V10.8179C0.0351562 11.5093 0.591241 12.0654 1.28259 12.0654H2.21441C2.37976 13.4406 3.54454 14.5002 4.95731 14.5002C6.37009 14.5002 7.54239 13.4406 7.7077 12.0654H11.187C11.3524 13.4406 12.5172 14.5002 13.9299 14.5002C15.3427 14.5002 16.515 13.4406 16.6803 12.0654H16.8231C17.5145 12.0654 18.0706 11.5093 18.0706 10.8179V5.00152C18.0706 4.70843 17.9654 4.42287 17.7775 4.19743ZM4.95731 12.9972C4.26756 12.9972 3.69484 12.4273 3.69484 11.7272C3.69484 11.0284 4.25845 10.4572 4.95731 10.4572C5.65618 10.4572 6.22731 11.0284 6.22731 11.7272C6.22731 12.4413 5.63613 12.9972 4.95731 12.9972ZM12.1039 3.40087C12.1039 3.03266 12.4044 2.72453 12.7802 2.72453H14.0652C14.2606 2.72453 14.4485 2.81474 14.5762 2.97253L16.1618 4.85121C16.267 4.97148 16.3196 5.12926 16.3196 5.28708V5.79808C16.3196 6.1663 16.019 6.47443 15.6433 6.47443H12.7802C12.4044 6.47443 12.1039 6.1663 12.1039 5.79808V3.40087ZM13.9299 12.9972C13.2402 12.9972 12.6675 12.4273 12.6675 11.7272C12.6675 11.0284 13.2311 10.4572 13.9299 10.4572C14.6288 10.4572 15.1999 11.0284 15.1999 11.7272C15.1999 12.4413 14.6088 12.9972 13.9299 12.9972Z" fill="#8EA2D3"/>
<path d="M5.02842 0.793247C5.32204 0.406898 5.92237 0.397381 6.22324 0.793247L7.37302 2.28868C7.54584 2.52163 7.57588 2.8222 7.44815 3.08524C7.32793 3.34072 7.06489 3.49854 6.77932 3.49854H6.38106V4.9038C6.38106 5.3171 6.05041 5.65527 5.62959 5.65527C5.21628 5.65527 4.87811 5.3171 4.87811 4.9038V3.49854H4.48733C4.20176 3.49854 3.93877 3.34072 3.81103 3.08524C3.68324 2.82972 3.71333 2.52163 3.88616 2.2962L5.02842 0.793247Z" fill="#8EA2D3"/>
</svg>
