<svg width="13" height="12" viewBox="0 0 13 12" fill="none" xmlns="http://www.w3.org/2000/svg">
<path d="M1.29855 4.28571H0.441406V10.7143C0.443549 11.4236 1.01783 11.9979 1.72712 12H11.1557C11.865 11.9979 12.4393 11.4236 12.4414 10.7143V4.28571H1.29855ZM9.01283 5.14286H9.86998C10.1068 5.14286 10.2985 5.33464 10.2985 5.57143C10.2985 5.80822 10.1068 6 9.86998 6H9.01283C8.77604 6 8.58426 5.80822 8.58426 5.57143C8.58426 5.33464 8.77604 5.14286 9.01283 5.14286ZM9.01283 7.28571H9.86998C10.1068 7.28571 10.2985 7.47749 10.2985 7.71429C10.2985 7.95108 10.1068 8.14286 9.86998 8.14286H9.01283C8.77604 8.14286 8.58426 7.95108 8.58426 7.71429C8.58426 7.47749 8.77604 7.28571 9.01283 7.28571ZM9.01283 9.42857H9.86998C10.1068 9.42857 10.2985 9.62035 10.2985 9.85714C10.2985 10.0939 10.1068 10.2857 9.86998 10.2857H9.01283C8.77604 10.2857 8.58426 10.0939 8.58426 9.85714C8.58426 9.62035 8.77604 9.42857 9.01283 9.42857ZM6.01283 5.14286H6.86998C7.10677 5.14286 7.29855 5.33464 7.29855 5.57143C7.29855 5.80822 7.10677 6 6.86998 6H6.01283C5.77604 6 5.58426 5.80822 5.58426 5.57143C5.58426 5.33464 5.77604 5.14286 6.01283 5.14286ZM6.01283 7.28571H6.86998C7.10677 7.28571 7.29855 7.47749 7.29855 7.71429C7.29855 7.95108 7.10677 8.14286 6.86998 8.14286H6.01283C5.77604 8.14286 5.58426 7.95108 5.58426 7.71429C5.58426 7.47749 5.77604 7.28571 6.01283 7.28571ZM6.01283 9.42857H6.86998C7.10677 9.42857 7.29855 9.62035 7.29855 9.85714C7.29855 10.0939 7.10677 10.2857 6.86998 10.2857H6.01283C5.77604 10.2857 5.58426 10.0939 5.58426 9.85714C5.58426 9.62035 5.77604 9.42857 6.01283 9.42857ZM3.01283 5.14286H3.86998C4.10677 5.14286 4.29855 5.33464 4.29855 5.57143C4.29855 5.80822 4.10677 6 3.86998 6H3.01283C2.77604 6 2.58426 5.80822 2.58426 5.57143C2.58426 5.33464 2.77604 5.14286 3.01283 5.14286ZM3.01283 7.28571H3.86998C4.10677 7.28571 4.29855 7.47749 4.29855 7.71429C4.29855 7.95108 4.10677 8.14286 3.86998 8.14286H3.01283C2.77604 8.14286 2.58426 7.95108 2.58426 7.71429C2.58426 7.47749 2.77604 7.28571 3.01283 7.28571ZM3.01283 9.42857H3.86998C4.10677 9.42857 4.29855 9.62035 4.29855 9.85714C4.29855 10.0939 4.10677 10.2857 3.86998 10.2857H3.01283C2.77604 10.2857 2.58426 10.0939 2.58426 9.85714C2.58426 9.62035 2.77604 9.42857 3.01283 9.42857ZM12.4414 2.14286V3.42857H0.441406V2.14286C0.443549 1.43357 1.01783 0.859282 1.72712 0.857143H2.15569V0.428571C2.15569 0.191781 2.34747 0 2.58426 0C2.82105 0 3.01283 0.191781 3.01283 0.428571V0.857143H9.86998V0.428571C9.86998 0.191781 10.0618 0 10.2985 0C10.5353 0 10.7271 0.191781 10.7271 0.428571V0.857143H11.1557C11.865 0.859286 12.4393 1.43357 12.4414 2.14286Z" fill="#787B83"/>
</svg>
