<svg width="19" height="16" viewBox="0 0 19 16"xmlns="http://www.w3.org/2000/svg">
<path d="M9.74837 3.73029L11.4249 4.78629V0H6.85352V4.78629L8.53009 3.73029C8.71248 3.61539 8.92366 3.55442 9.13923 3.55442C9.3548 3.55442 9.56598 3.61539 9.74837 3.73029Z" />
<path d="M3.42857 0C2.51926 0 1.64719 0.361223 1.0042 1.0042C0.361223 1.64719 0 2.51926 0 3.42857V12.5714C0 13.4807 0.361223 14.3528 1.0042 14.9958C1.64719 15.6388 2.51926 16 3.42857 16H14.8571C15.7665 16 16.6385 15.6388 17.2815 14.9958C17.9245 14.3528 18.2857 13.4807 18.2857 12.5714V3.42857C18.2857 2.51926 17.9245 1.64719 17.2815 1.0042C16.6385 0.361223 15.7665 0 14.8571 0H13.7143V6.85714C13.7143 7.06148 13.6595 7.26208 13.5556 7.43804C13.4517 7.614 13.3025 7.75888 13.1236 7.85761C12.9447 7.95634 12.7426 8.0053 12.5384 7.99939C12.3341 7.99348 12.1352 7.93291 11.9623 7.824L9.14286 6.048L6.32343 7.824C6.15054 7.93291 5.9516 7.99348 5.74735 7.99939C5.5431 8.0053 5.341 7.95634 5.16209 7.85761C4.98319 7.75888 4.83403 7.614 4.73015 7.43804C4.62626 7.26208 4.57145 7.06148 4.57143 6.85714V0H3.42857Z" />
</svg>
