<svg width="20" height="20" viewBox="0 0 20 20" xmlns="http://www.w3.org/2000/svg">
<path d="M19.892 2.09587L13.3072 18.9787C13.1917 19.2791 12.988 19.5375 12.7228 19.7198C12.4576 19.9021 12.1434 19.9998 11.8216 20H11.7431C11.4229 19.9886 11.1149 19.8739 10.8652 19.6731C10.6155 19.4723 10.4375 19.1962 10.3576 18.8859L8.37927 11.68C8.37581 11.6662 8.36867 11.6536 8.35861 11.6435C8.34854 11.6334 8.33594 11.6263 8.32213 11.6228L1.11598 9.6446C0.805689 9.5647 0.529546 9.38662 0.328756 9.13693C0.127967 8.88724 0.013295 8.57932 0.00185036 8.25912C-0.0143111 7.92409 0.0757223 7.59251 0.259113 7.31166C0.442503 7.03081 0.709887 6.81503 1.02314 6.69509L17.9065 0.110487C18.1842 -0.00123619 18.4885 -0.0289843 18.7818 0.0306851C19.0751 0.0903545 19.3444 0.234815 19.5563 0.446144C19.766 0.659053 19.9094 0.928308 19.969 1.22118C20.0286 1.51405 20.0018 1.81793 19.892 2.09587Z" />
</svg>
