<svg width="22" height="22" viewBox="0 0 22 22" fill="none" xmlns="http://www.w3.org/2000/svg">
<path d="M19.4968 5.61202C19.8548 5.25404 19.8548 4.67364 19.4968 4.31566C19.1388 3.95768 18.5584 3.95768 18.2005 4.31566L9.12593 13.3902C8.76795 13.7482 8.76795 14.3286 9.12593 14.6865C9.48391 15.0445 10.0643 15.0445 10.4223 14.6865L19.4968 5.61202Z" fill="#FC4739"/>
<path d="M10.4198 13.3898L6.53075 9.50072C6.17277 9.14274 5.59237 9.14274 5.23439 9.50072C4.87641 9.8587 4.87641 10.4391 5.23439 10.7971L9.12347 14.6862C9.48145 15.0441 10.0619 15.0441 10.4198 14.6862C10.7778 14.3282 10.7778 13.7478 10.4198 13.3898Z" fill="#FC4739"/>
<path fill-rule="evenodd" clip-rule="evenodd" d="M13.8489 2.28729C12.0083 1.68543 10.0243 1.68194 8.1816 2.27736C6.33883 2.87277 4.73203 4.03647 3.59157 5.60156C2.4511 7.16668 1.8356 9.05272 1.83334 10.9893C1.83107 12.9258 2.44217 14.8133 3.57897 16.3811C4.71577 17.9489 6.31986 19.1163 8.16125 19.716C10.0026 20.3157 11.9865 20.3169 13.8285 19.7193C15.6706 19.1217 17.276 17.9562 18.4147 16.3897C19.5533 14.8233 20.1666 12.9365 20.1666 11C20.1666 10.4937 20.577 10.0833 21.0833 10.0833C21.5896 10.0833 22 10.4937 22 11C22 13.3238 21.264 15.588 19.8977 17.4677C18.5313 19.3474 16.6048 20.7461 14.3943 21.4632C12.1839 22.1803 9.80309 22.1789 7.59347 21.4592C5.38386 20.7396 3.45893 19.3386 2.09477 17.4573C0.730608 15.576 -0.00270583 13.311 7.50258e-06 10.9872C0.00272083 8.66332 0.741324 6.39998 2.10988 4.52188C3.47844 2.64377 5.40664 1.24733 7.61795 0.532831C9.82922 -0.181664 12.21 -0.177484 14.4187 0.544748C14.8999 0.702093 15.1625 1.21972 15.0051 1.70092C14.8478 2.1821 14.3301 2.44463 13.8489 2.28729Z" fill="#FC4739"/>
</svg>
