<svg width="10" height="11" viewBox="0 0 10 11" fill="none" xmlns="http://www.w3.org/2000/svg">
<path d="M1.76716 10.1549H6.67166C7.65256 10.1549 8.44273 9.36472 8.44273 8.38382V5.38663C8.44273 5.15502 8.26562 4.97792 8.03402 4.97792C7.80242 4.97792 7.62531 5.15502 7.62531 5.38663V8.38382C7.62531 8.91514 7.20298 9.33747 6.67166 9.33747H1.76716C1.23584 9.33747 0.81351 8.91514 0.81351 8.38382V3.47932C0.81351 2.948 1.23584 2.52567 1.76716 2.52567H4.76435C4.99595 2.52567 5.17306 2.34856 5.17306 2.11696C5.17306 1.88536 4.99595 1.70825 4.76435 1.70825H1.76716C0.786262 1.70825 -0.00390625 2.49842 -0.00390625 3.47932V8.38382C-0.00390625 9.36472 0.786262 10.1549 1.76716 10.1549Z" fill="#2E3645"/>
<path d="M9.38757 3.76042V1.2673C9.38757 1.24006 9.38757 1.21281 9.37394 1.18556C9.37394 1.17194 9.37394 1.15831 9.36032 1.15831C9.36032 1.14469 9.3467 1.13107 9.3467 1.11744C9.3467 1.10382 9.33307 1.0902 9.31945 1.07657C9.31945 1.06295 9.30582 1.04932 9.30582 1.04932C9.27858 1.00845 9.23771 0.967583 9.19684 0.940336L9.16959 0.926712C9.14234 0.885841 9.11509 0.872218 9.08785 0.872218L9.04698 0.858594C9.01973 0.858594 8.99248 0.844971 8.96523 0.844971H6.47212C6.24051 0.844971 6.06341 1.02208 6.06341 1.25368C6.06341 1.48528 6.24051 1.66239 6.47212 1.66239H7.98434L4.23785 5.4225C4.07436 5.58599 4.07436 5.84483 4.23785 5.99469C4.40133 6.15818 4.66018 6.15818 4.81004 5.99469L8.57015 2.2482V3.76042C8.57015 3.99202 8.74726 4.16913 8.97886 4.16913C9.19684 4.16913 9.37394 3.9784 9.38757 3.76042Z" fill="#2E3645"/>
</svg>
