<svg width="18" height="19" viewBox="0 0 18 19" fill="none" xmlns="http://www.w3.org/2000/svg">
<path d="M8.9082 18.4998L17.099 14.2638V5.30933L8.9082 9.80503V18.4998ZM11.3201 10.161L11.8844 9.92976L12.4184 9.8936C14.048 9.68722 14.1864 11.193 14.4641 12.5095C14.5863 13.096 15.7412 13.0298 15.3835 13.5758C14.9165 14.2887 14.1133 14.8081 13.1812 15.0016C13.1562 15.0067 13.1322 15.0093 13.1081 15.0093C12.9413 15.0093 14.4994 14.8288 14.4641 14.6594C14.4237 14.465 15.9897 13.4099 16.184 13.3695C16.9304 13.2147 15.8202 13.0642 16.184 12.5095C16.4403 12.1191 15.1298 12.3728 15.0455 11.9695C14.8469 11.027 13.7092 10.4336 12.4606 10.6091C12.4399 10.6116 12.4219 10.6065 12.4021 10.6056L16.614 12.0796L13.6042 8.92704L10.1843 10.161H11.3201Z" fill="#9A9CA2"/>
<path d="M11.0097 1.84579L8.34565 0.5L0.396484 4.71106L3.14567 6.22024L11.0097 1.84579Z" fill="#9A9CA2"/>
<path d="M5.9206 10.7006C5.9206 10.7134 5.91458 10.7246 5.91372 10.7367C5.91114 10.7616 5.90684 10.7857 5.8991 10.8098C5.89222 10.8313 5.88362 10.851 5.87244 10.87C5.86127 10.8906 5.84923 10.9087 5.83375 10.9267C5.81827 10.9456 5.80107 10.9611 5.78215 10.9766C5.77183 10.9852 5.76581 10.9964 5.75463 11.0032C5.74775 11.0075 5.74002 11.0058 5.734 11.0093C5.6824 11.0385 5.6265 11.0591 5.56373 11.0591C5.50698 11.0591 5.45452 11.0437 5.40722 11.0196C5.39347 11.0127 5.38229 11.0024 5.36939 10.9946C5.33499 10.9723 5.30575 10.9456 5.28167 10.913C5.2748 10.9052 5.26448 10.9018 5.25932 10.8932L4.21708 9.25845L3.31244 9.72539C3.20065 9.78301 3.06736 9.77871 2.96073 9.71335C2.8541 9.648 2.78874 9.53191 2.78874 9.40636V6.84464L0 5.31396V14.2632L8.19081 18.4992V9.80967L5.9206 8.56363V10.7006Z" fill="#9A9CA2"/>
<path d="M3.50781 8.81711L4.18028 8.4697C4.34624 8.3837 4.54832 8.43874 4.64808 8.59611L5.20445 9.46893V8.16872L3.50781 7.23828V8.81711Z" fill="#9A9CA2"/>
<path d="M5.54849 7.54195L13.2741 2.99294L11.7778 2.23706L3.88281 6.62785L5.54849 7.54195Z" fill="#9A9CA2"/>
<path d="M14.0352 3.37744L6.28125 7.94452L8.54372 9.18539L16.6864 4.71721L14.0352 3.37744Z" fill="#9A9CA2"/>
</svg>
