<svg width="20" height="19" viewBox="0 0 20 19" fill="none" xmlns="http://www.w3.org/2000/svg">
<path d="M9.65603 0.5L19.2828 4.36072V5.63927H0.0292969V4.36072L9.65603 0.5ZM18.6059 16.5696C18.7814 16.5696 18.9569 16.6448 19.0822 16.7702C19.2076 16.8955 19.2828 17.046 19.2828 17.2214V18.5H0.0292969V17.2214C0.0292969 17.046 0.104503 16.8955 0.229851 16.7702C0.355199 16.6448 0.530685 16.5696 0.706172 16.5696H18.6059ZM2.58639 6.94289H5.1435V14.6393H6.42205V6.94289H8.97915V14.6393H10.2577V6.94289H12.8148V14.6393H14.0934V6.94289H16.6505V14.6393H17.2521C17.4276 14.6393 17.6031 14.7145 17.7285 14.8398C17.8538 14.9652 17.929 15.1156 17.929 15.2911V15.9429H1.23264V15.266C1.23264 15.0905 1.30785 14.9401 1.4332 14.8148C1.55855 14.6894 1.73403 14.6142 1.90952 14.6142H2.51119V6.94289H2.58639Z" fill="#9A9CA2"/>
</svg>
