<svg width="21" height="19" viewBox="0 0 21 19" fill="none" xmlns="http://www.w3.org/2000/svg">
<path d="M5.16908 18.5003C6.58925 18.5003 7.74051 17.349 7.74051 15.9289C7.74051 14.5087 6.58925 13.3574 5.16908 13.3574C3.74892 13.3574 2.59766 14.5087 2.59766 15.9289C2.59766 17.349 3.74892 18.5003 5.16908 18.5003Z" fill="#9A9CA2"/>
<path d="M16.3117 18.5003C17.7318 18.5003 18.8831 17.349 18.8831 15.9289C18.8831 14.5087 17.7318 13.3574 16.3117 13.3574C14.8915 13.3574 13.7402 14.5087 13.7402 15.9289C13.7402 17.349 14.8915 18.5003 16.3117 18.5003Z" fill="#9A9CA2"/>
<path d="M20.5972 8.05983C20.5972 7.83714 20.5029 7.62286 20.3486 7.45126L17.0743 4.19429C16.9114 4.03151 16.6886 3.93689 16.4571 3.93689H12.8829C12.8744 3.93689 12.8744 3.93689 12.8657 3.93689V1.35714C12.8657 0.885457 12.48 0.5 12.0086 0.5H0.857143C0.377143 0.5 0 0.885457 0 1.35714V14.2143C0 14.6855 0.377143 15.0714 0.857143 15.0714H1.85143C2.23714 13.5886 3.58286 12.5 5.16866 12.5C6.76286 12.5 8.10866 13.5886 8.4858 15.0714H12.9943C13.38 13.5886 14.7257 12.5 16.3115 12.5C17.9057 12.5 19.2515 13.5886 19.6287 15.0714H19.7401C20.2115 15.0714 20.5972 14.6855 20.5972 14.2143V8.05983ZM18.8829 9.10571H14.5972V5.65117H16.1057L18.8829 8.41974V9.10571Z" fill="#9A9CA2"/>
</svg>
