<svg width="24" height="18" viewBox="0 0 24 18" fill="none" xmlns="http://www.w3.org/2000/svg">
<path d="M0.311911 8.83639V14.2496C0.311911 15.7091 1.49613 16.9032 2.94349 16.9032H3.16278C3.26805 15.541 4.39961 14.4619 5.77681 14.4619C7.15402 14.4619 8.29437 15.541 8.39084 16.9032H16.3207C16.4259 15.541 17.5575 14.4619 18.9347 14.4619C20.3119 14.4619 21.4522 15.541 21.5487 16.9032H22.2417C23.2066 16.9032 23.9961 16.1071 23.9961 15.1342V12.4806H19.6101C18.6452 12.4806 17.8558 11.6845 17.8558 10.7116V8.94253C17.8558 7.96957 18.6452 7.1735 19.6101 7.1735H22.8997L21.7155 5.58137C21.2242 4.91797 20.4348 4.51995 19.6102 4.51995H15.9437C15.584 3.49391 14.6103 2.75092 13.47 2.75092H9.96123V5.30716C9.96123 7.74842 7.99632 9.72974 5.57527 9.72974H2.9437C1.95248 9.72974 1.03999 9.40248 0.311911 8.83639ZM2.94349 0H3.40838C3.39084 0.0619162 3.38206 0.123832 3.38206 0.194594V3.63529C3.38206 4.12179 3.77679 4.51981 4.25926 4.51981C4.74173 4.51981 5.13645 4.12179 5.13645 3.63529V0.194594C5.13645 0.123832 5.12768 0.0619162 5.11013 0H5.57503C7.02238 0 8.20661 1.18525 8.20661 2.65355V5.3071C8.20661 6.76654 7.02238 7.96065 5.57503 7.96065H2.94346C1.49611 7.96065 0.311882 6.76654 0.311882 5.3071V2.65355C0.311882 1.18525 1.49613 0 2.94349 0ZM19.6101 8.94253H23.9961V10.7116H19.6101V8.94253ZM4.92608 16.9032C4.92608 16.9032 4.94362 16.8236 4.96117 16.7882C4.96117 16.7794 4.96994 16.7794 4.96994 16.7705C4.97871 16.744 4.99625 16.7086 5.0138 16.6821C5.02257 16.6644 5.03134 16.6555 5.04011 16.6378C5.04011 16.629 5.04889 16.629 5.04889 16.6201L5.15415 16.4875C5.31204 16.3282 5.54011 16.231 5.77697 16.231C5.83837 16.231 5.89977 16.2398 5.95241 16.2486C6.02258 16.2663 6.08399 16.284 6.14539 16.3194C6.17171 16.3282 6.20679 16.3459 6.23311 16.3636C6.25942 16.3813 6.29451 16.399 6.32083 16.4255C6.35592 16.4521 6.391 16.4875 6.42609 16.5228C6.48749 16.5936 6.54012 16.6732 6.58398 16.7617C6.60153 16.8147 6.61907 16.859 6.62784 16.9032C6.64539 16.9739 6.65416 17.0447 6.65416 17.1155C6.65416 17.3631 6.55767 17.5754 6.39977 17.7435C6.24188 17.9027 6.01381 18 5.77695 18C5.29449 18 4.89976 17.602 4.89976 17.1155C4.89976 17.0447 4.90854 16.9739 4.92608 16.9032ZM18.084 16.9032C18.084 16.9032 18.1015 16.8236 18.119 16.7882C18.119 16.7794 18.1278 16.7794 18.1278 16.7705C18.1366 16.744 18.1541 16.7086 18.1717 16.6821C18.1804 16.6644 18.1892 16.6555 18.198 16.6378C18.2331 16.5848 18.2682 16.5317 18.312 16.4875C18.4699 16.3282 18.698 16.231 18.9348 16.231C19.1366 16.231 19.3296 16.3017 19.4787 16.4255C19.5138 16.4521 19.5489 16.4875 19.584 16.5228C19.6366 16.5848 19.6805 16.6467 19.7155 16.7263C19.7243 16.7351 19.7331 16.7528 19.7419 16.7617C19.7594 16.8147 19.7769 16.859 19.7857 16.9032C19.8033 16.9739 19.812 17.0447 19.812 17.1155C19.812 17.3631 19.7155 17.5754 19.5576 17.7435C19.3998 17.9027 19.1717 18 18.9348 18C18.4524 18 18.0576 17.602 18.0576 17.1155C18.0576 17.0447 18.0664 16.9739 18.084 16.9032Z" fill="#9A9CA2"/>
</svg>
