<svg width="19" height="15" viewBox="0 0 19 15" fill="none" xmlns="http://www.w3.org/2000/svg">
<path d="M17.7423 4.19743L15.4353 1.44705C15.2023 1.16901 14.8491 1.00366 14.4809 1.00366H11.5652C10.8738 1.00366 10.3178 1.55975 10.3178 2.25114V7.30856H1.24743C0.556085 7.30856 0 7.86464 0 8.55599V10.8179C0 11.5093 0.556085 12.0654 1.24743 12.0654H2.17925C2.3446 13.4406 3.50938 14.5002 4.92216 14.5002C6.33494 14.5002 7.50724 13.4406 7.67254 12.0654H11.1519C11.3172 13.4406 12.482 14.5002 13.8948 14.5002C15.3076 14.5002 16.4799 13.4406 16.6452 12.0654H16.7879C17.4793 12.0654 18.0354 11.5093 18.0354 10.8179V5.00152C18.0354 4.70843 17.9302 4.42287 17.7423 4.19743ZM4.92216 12.9972C4.23241 12.9972 3.65968 12.4273 3.65968 11.7272C3.65968 11.0284 4.22329 10.4572 4.92216 10.4572C5.62103 10.4572 6.19215 11.0284 6.19215 11.7272C6.19215 12.4413 5.60098 12.9972 4.92216 12.9972ZM12.0687 3.40087C12.0687 3.03266 12.3693 2.72453 12.745 2.72453H14.03C14.2254 2.72453 14.4133 2.81474 14.541 2.97253L16.1266 4.85121C16.2319 4.97148 16.2845 5.12926 16.2845 5.28708V5.79808C16.2845 6.1663 15.9839 6.47443 15.6081 6.47443H12.745C12.3693 6.47443 12.0687 6.1663 12.0687 5.79808V3.40087ZM13.8948 12.9972C13.205 12.9972 12.6323 12.4273 12.6323 11.7272C12.6323 11.0284 13.1959 10.4572 13.8948 10.4572C14.5937 10.4572 15.1648 11.0284 15.1648 11.7272C15.1648 12.4413 14.5736 12.9972 13.8948 12.9972Z" fill="#787B83"/>
<path d="M4.99326 5.3619C5.28689 5.74825 5.88722 5.75777 6.18808 5.3619L7.33786 3.86647C7.51069 3.63352 7.54073 3.33296 7.41299 3.06991C7.29277 2.81444 7.02973 2.65661 6.74416 2.65661H6.34591V1.25135C6.34591 0.838051 6.01526 0.499878 5.59443 0.499878C5.18113 0.499878 4.84295 0.838051 4.84295 1.25135V2.65661H4.45217C4.16661 2.65661 3.90361 2.81444 3.77587 3.06991C3.64809 3.32543 3.67818 3.63352 3.851 3.85895L4.99326 5.3619Z" fill="#787B83"/>
</svg>
