<svg width="16" height="20" viewBox="0 0 16 20" xmlns="http://www.w3.org/2000/svg">
<path d="M13.75 7.16667L12.9567 15.0981C12.8367 16.3004 12.7772 16.9011 12.5033 17.3553C12.2631 17.7552 11.9098 18.075 11.4881 18.2743C11.0092 18.5 10.4067 18.5 9.19778 18.5H6.96889C5.76094 18.5 5.15745 18.5 4.67861 18.2733C4.25649 18.0742 3.90286 17.7544 3.66239 17.3544C3.39039 16.9011 3.32994 16.3004 3.20906 15.0981L2.41667 7.16667M9.5 13.3056V8.58333M6.66667 13.3056V8.58333M1 4.80556H5.35861M5.35861 4.80556L5.72317 2.282C5.82894 1.823 6.2105 1.5 6.64872 1.5H9.51794C9.95617 1.5 10.3368 1.823 10.4435 2.282L10.8081 4.80556M5.35861 4.80556H10.8081M10.8081 4.80556H15.1667" stroke-width="1.5" stroke-linecap="round" stroke-linejoin="round"/>
</svg>
