<svg width="15" height="19" viewBox="0 0 15 19" fill="none" xmlns="http://www.w3.org/2000/svg">
<path d="M2.7647 19H12.2353C14.0815 19 15 18.0695 15 16.2262V8.17964H8.54333C7.40183 8.17964 6.86685 7.63895 6.86685 6.50462V0H2.7647C0.927655 0 0 0.939224 0 2.78289V16.2262C0 18.0782 0.927655 19 2.7647 19ZM8.57034 6.96553H14.9018C14.8394 6.60217 14.5807 6.2475 14.1618 5.81343L9.23888 0.84205C8.8287 0.416677 8.45429 0.159562 8.0795 0.0971741V6.48722C8.0795 6.80597 8.2492 6.96553 8.57034 6.96553ZM4.06676 12.0171C3.70111 12.0171 3.44237 11.76 3.44237 11.4144C3.44237 11.0684 3.70111 10.8117 4.06638 10.8117H10.942C11.2989 10.8117 11.5755 11.0688 11.5755 11.414C11.5755 11.76 11.2989 12.0167 10.9424 12.0167L4.06676 12.0171ZM4.06676 15.3932C3.70111 15.3932 3.44237 15.1361 3.44237 14.7905C3.44237 14.4449 3.70111 14.1878 4.06638 14.1878H10.942C11.2989 14.1878 11.5755 14.4449 11.5755 14.7905C11.5755 15.1361 11.2989 15.3932 10.9424 15.3932H4.06676Z" fill="#787B83"/>
</svg>
