<svg width="20" height="15" viewBox="0 0 20 15" fill="none" xmlns="http://www.w3.org/2000/svg">
<path d="M18.3333 2.83333V12.1667C18.3333 12.5203 18.1929 12.8594 17.9428 13.1095C17.6928 13.3595 17.3536 13.5 17 13.5H2.33333C1.97971 13.5 1.64057 13.3595 1.39052 13.1095C1.14048 12.8594 1 12.5203 1 12.1667V2.83333M18.3333 2.83333C18.3333 2.47971 18.1929 2.14057 17.9428 1.89052C17.6928 1.64048 17.3536 1.5 17 1.5H2.33333C1.97971 1.5 1.64057 1.64048 1.39052 1.89052C1.14048 2.14057 1 2.47971 1 2.83333M18.3333 2.83333L10.4253 8.308C10.2024 8.46225 9.93776 8.54488 9.66667 8.54488C9.39558 8.54488 9.13093 8.46225 8.908 8.308L1 2.83333" stroke="white" stroke-width="1.5" stroke-linecap="round" stroke-linejoin="round"/>
</svg>
