<svg width="14" height="16" viewBox="0 0 14 16" xmlns="http://www.w3.org/2000/svg">
<path d="M11.5238 13.8581C11.53 13.8041 11.5245 13.7494 11.5076 13.6977C11.4907 13.646 11.4629 13.5986 11.426 13.5587C11.3891 13.5187 11.344 13.4873 11.2938 13.4664C11.2436 13.4455 11.1894 13.4357 11.1351 13.4377H10.4709C10.2377 13.4377 10.0566 13.634 9.96528 13.8491C9.88441 14.0404 9.74892 14.2037 9.57576 14.3185C9.4026 14.4332 9.19944 14.4944 8.9917 14.4943H2.56604C2.41784 14.4943 2.2713 14.4632 2.13585 14.403L5.09585 12.5253C5.35341 12.3618 5.56551 12.136 5.71249 11.8687C5.85947 11.6014 5.93656 11.3013 5.9366 10.9962V4.52302C5.93657 4.18849 5.84389 3.8605 5.66885 3.57542C5.4938 3.29034 5.24323 3.0593 4.94491 2.90792L2.27547 1.54943C2.37 1.52266 2.46779 1.50919 2.56604 1.50943H8.9917C9.19936 1.50931 9.40245 1.57037 9.57561 1.685C9.74876 1.79963 9.8843 1.96275 9.96528 2.15396C10.0566 2.36906 10.2377 2.56604 10.4709 2.56604H11.1351C11.1895 2.56804 11.2437 2.55825 11.294 2.53734C11.3442 2.51642 11.3894 2.48488 11.4263 2.44487C11.4632 2.40486 11.4911 2.35734 11.5079 2.30556C11.5247 2.25378 11.5301 2.19898 11.5238 2.14491C11.424 1.54546 11.1148 1.00085 10.6511 0.608068C10.1874 0.215281 9.59939 -0.000196711 8.9917 1.34749e-07H2.56604C1.88548 1.34749e-07 1.2328 0.27035 0.751575 0.751575C0.27035 1.2328 0 1.88548 0 2.56604V13.434C0 14.1145 0.27035 14.7672 0.751575 15.2484C1.2328 15.7296 1.88548 16 2.56604 16H8.9917C9.59895 16.0003 10.1866 15.7853 10.6503 15.3931C11.1139 15.0009 11.4234 14.457 11.5238 13.8581Z"/>
<path d="M11.2696 8.77439L10.0319 10.0121C9.99256 10.0513 9.96134 10.0979 9.94004 10.1492C9.91875 10.2005 9.90778 10.2555 9.90778 10.311C9.90778 10.3665 9.91875 10.4215 9.94004 10.4728C9.96134 10.5241 9.99256 10.5707 10.0319 10.6099L10.5013 11.0793C10.5405 11.1186 10.5871 11.1499 10.6384 11.1712C10.6897 11.1925 10.7447 11.2034 10.8002 11.2034C10.8557 11.2034 10.9107 11.1925 10.962 11.1712C11.0133 11.1499 11.0599 11.1186 11.0991 11.0793L13.8606 8.32156C13.9397 8.2422 13.9841 8.13473 13.9841 8.0227C13.9841 7.91066 13.9397 7.80319 13.8606 7.72383L11.0991 4.96006C11.0599 4.92071 11.0133 4.8895 10.962 4.8682C10.9107 4.8469 10.8557 4.83594 10.8002 4.83594C10.7447 4.83594 10.6897 4.8469 10.6384 4.8682C10.5871 4.8895 10.5405 4.92071 10.5013 4.96006L10.0319 5.42949C9.99256 5.46869 9.96134 5.51526 9.94004 5.56655C9.91875 5.61784 9.90778 5.67282 9.90778 5.72836C9.90778 5.78389 9.91875 5.83888 9.94004 5.89017C9.96134 5.94145 9.99256 5.98803 10.0319 6.02723L11.2696 7.26496H8.25077C8.13868 7.26496 8.03118 7.30949 7.95191 7.38875C7.87265 7.46801 7.82812 7.57551 7.82812 7.6876V8.35175C7.82812 8.46384 7.87265 8.57135 7.95191 8.65061C8.03118 8.72987 8.13868 8.77439 8.25077 8.77439H11.2696Z"/>
</svg>
