
<svg version="1.1" xmlns="http://www.w3.org/2000/svg" xmlns:xlink="http://www.w3.org/1999/xlink" x="0px" y="0px"
	 viewBox="0 0 488.6 409.6" style="enable-background:new 0 0 488.6 409.6;" xml:space="preserve">
<g>
	<path d="M83.2,7.5c-10-10-26.2-10-36.2,0c-10,10-10,26.2,0,36.2l358.4,358.4c10,10,26.2,10,36.2,0
		c10-10,10-26.2,0-36.2l-37.7-37.7c39.4-31.4,69.3-74.2,84.7-123.4C455.9,100.9,358.9,25.6,244.3,25.6c-41.6,0-80.8,9.9-115.5,27.5
		L83.2,7.5z M192.3,116.6l38.8,38.8c4.2-1.1,8.7-1.7,13.3-1.7c28.3,0,51.2,22.9,51.2,51.2c0,4.6-0.6,9-1.7,13.3l38.8,38.8
		c9-15.2,14.2-33,14.2-52c0-56.6-45.8-102.4-102.4-102.4C225.3,102.4,207.5,107.6,192.3,116.6L192.3,116.6z"/>
	<path d="M307.1,376.2L237.9,307c-51.4-3.2-92.6-44.3-95.8-95.8l-94-94c-21.4,25.5-37.9,55.1-48,87.6
		C32.6,308.7,129.7,384,244.3,384C266,384,287,381.3,307.1,376.2L307.1,376.2z"/>
</g>
</svg>
