<svg width="30" height="20" viewBox="0 0 30 20" fill="none" xmlns="http://www.w3.org/2000/svg">
<path fill-rule="evenodd" clip-rule="evenodd" d="M5.68905 2.88398C2.94648 4.76288 0.940929 7.34566 0 10C0.940761 12.6545 2.94511 15.2372 5.68905 17.116C11.2995 20.9613 18.7002 20.9613 24.3109 17.116C27.0535 15.2371 29.0591 12.6543 30 10C29.0592 7.34552 27.0549 4.76284 24.3109 2.88398C18.7005 -0.961326 11.2998 -0.961326 5.68905 2.88398ZM18.2964 6.70589C20.1165 8.52472 20.1165 11.4757 18.2964 13.2944C15.367 16.2218 10.3378 14.1379 10.3378 10.0002C10.3378 5.86242 15.3669 3.77862 18.2964 6.70589ZM14.9998 3.3359C20.9214 3.3359 23.907 10.5238 19.7155 14.7124C15.524 18.901 8.33105 15.9175 8.33105 10C8.33105 6.31915 11.3167 3.33556 15.0002 3.33556L14.9998 3.3359Z" fill="#FC4739"/>
</svg>
