<svg width="10" height="13" viewBox="0 0 10 13" fill="none" xmlns="http://www.w3.org/2000/svg">
<path d="M8.27857 5.15353H7.14286V8.68294C7.14286 9.07118 6.82143 9.38882 6.42857 9.38882H3.57143C3.17857 9.38882 2.85714 9.07118 2.85714 8.68294V5.15353H1.72143C1.08571 5.15353 0.764286 4.39118 1.21429 3.94647L4.49286 0.706471C4.77143 0.431176 5.22143 0.431176 5.5 0.706471L8.77857 3.94647C9.22857 4.39118 8.91429 5.15353 8.27857 5.15353ZM0 11.7941C0 12.1824 0.321429 12.5 0.714286 12.5H9.28571C9.67857 12.5 10 12.1824 10 11.7941C10 11.4059 9.67857 11.0882 9.28571 11.0882H0.714286C0.321429 11.0882 0 11.4059 0 11.7941Z" fill="#787B83"/>
</svg>
