<svg width="28" height="31" viewBox="0 0 28 31" fill="none" xmlns="http://www.w3.org/2000/svg">
<path fill-rule="evenodd" clip-rule="evenodd" d="M14 3.34371e-08H4.66667C3.42899 3.34371e-08 2.242 0.489909 1.36684 1.36195C0.491665 2.234 0 3.41674 0 4.65V26.35C0 27.5833 0.491665 28.766 1.36684 29.638C2.242 30.5101 3.42899 31 4.66667 31H23.3333C24.571 31 25.758 30.5101 26.6332 29.638C27.5083 28.766 28 27.5833 28 26.35V13.95H18.6667C17.429 13.95 16.242 13.4601 15.3668 12.588C14.4917 11.716 14 10.5333 14 9.3V3.34371e-08ZM28 10.85V10.5834C27.9993 9.35078 27.5075 8.16886 26.6327 7.2974L20.678 1.3609C19.8028 0.489364 18.616 -0.000147717 17.3787 3.34371e-08H17.1111V9.3C17.1111 9.71109 17.275 10.1053 17.5667 10.396C17.8584 10.6867 18.2541 10.85 18.6667 10.85H28Z" fill="#787B83"/>
</svg>
