<svg width="18" height="18" viewBox="0 0 18 18" fill="none" xmlns="http://www.w3.org/2000/svg">
<path d="M8.9082 17.9998L17.099 13.7638V4.80939L8.9082 9.30509V17.9998ZM11.3201 9.6611L11.8844 9.42982L12.4184 9.39366C14.048 9.18728 14.1864 10.6931 14.4641 12.0096C14.5863 12.5961 15.7412 12.5298 15.3835 13.0759C14.9165 13.7887 14.1133 14.3081 13.1812 14.5016C13.1562 14.5068 13.1322 14.5094 13.1081 14.5094C12.9413 14.5094 14.4994 14.3288 14.4641 14.1594C14.4237 13.9651 15.9897 12.9099 16.184 12.8695C16.9304 12.7147 15.8202 12.5643 16.184 12.0096C16.4403 11.6192 15.1298 11.8728 15.0455 11.4695C14.8469 10.527 13.7092 9.93369 12.4606 10.1091C12.4399 10.1117 12.4219 10.1065 12.4021 10.1057L16.614 11.5796L13.6042 8.4271L10.1843 9.6611H11.3201Z" fill="#9A9CA2"/>
<path d="M11.0097 1.34579L8.34565 0L0.396484 4.21106L3.14567 5.72024L11.0097 1.34579Z" fill="#9A9CA2"/>
<path d="M5.9206 10.2006C5.9206 10.2135 5.91458 10.2247 5.91372 10.2367C5.91114 10.2617 5.90684 10.2857 5.8991 10.3098C5.89222 10.3313 5.88362 10.3511 5.87244 10.37C5.86127 10.3907 5.84923 10.4087 5.83375 10.4268C5.81827 10.4457 5.80107 10.4612 5.78215 10.4766C5.77183 10.4852 5.76581 10.4964 5.75463 10.5033C5.74775 10.5076 5.74002 10.5059 5.734 10.5093C5.6824 10.5386 5.6265 10.5592 5.56373 10.5592C5.50698 10.5592 5.45452 10.5437 5.40722 10.5196C5.39347 10.5128 5.38229 10.5024 5.36939 10.4947C5.33499 10.4723 5.30575 10.4457 5.28167 10.413C5.2748 10.4053 5.26448 10.4018 5.25932 10.3932L4.21708 8.75851L3.31244 9.22545C3.20065 9.28307 3.06736 9.27877 2.96073 9.21341C2.8541 9.14806 2.78874 9.03197 2.78874 8.90642V6.3447L0 4.81403V13.7633L8.19081 17.9993V9.30973L5.9206 8.06369V10.2006Z" fill="#9A9CA2"/>
<path d="M3.50781 8.31717L4.18028 7.96976C4.34624 7.88377 4.54832 7.9388 4.64808 8.09617L5.20445 8.96899V7.66878L3.50781 6.73834V8.31717Z" fill="#9A9CA2"/>
<path d="M5.54849 7.04195L13.2741 2.49294L11.7778 1.73706L3.88281 6.12785L5.54849 7.04195Z" fill="#9A9CA2"/>
<path d="M14.0352 2.8775L6.28125 7.44458L8.54372 8.68545L16.6864 4.21727L14.0352 2.8775Z" fill="#9A9CA2"/>
</svg>
