<svg width="29" height="25" viewBox="0 0 29 25" fill="none" xmlns="http://www.w3.org/2000/svg">
<path d="M25.3104 19.0832C24.9971 19.0829 24.6857 19.1331 24.3884 19.2319L21.7708 14.7108C22.2677 14.2637 22.5958 13.6595 22.7002 12.9993C22.8047 12.3391 22.6791 11.6631 22.3445 11.0845C22.0099 10.5059 21.4866 10.0599 20.8623 9.82118C20.238 9.58244 19.5506 9.56548 18.9153 9.77316L16.1788 5.01402C16.5973 4.61079 16.8857 4.09168 17.007 3.52335C17.1283 2.95502 17.0769 2.3634 16.8595 1.82447C16.6421 1.28554 16.2686 0.823887 15.7869 0.498793C15.3052 0.173699 14.7373 0 14.1562 0C13.5751 0 13.0072 0.173699 12.5255 0.498793C12.0438 0.823887 11.6703 1.28554 11.4529 1.82447C11.2355 2.3634 11.1841 2.95502 11.3054 3.52335C11.4267 4.09168 11.7151 4.61079 12.1336 5.01402L9.39707 9.77316C8.76178 9.56548 8.07441 9.58244 7.45012 9.82118C6.82584 10.0599 6.30256 10.5059 5.96795 11.0845C5.63335 11.6631 5.50774 12.3391 5.61217 12.9993C5.7166 13.6595 6.04473 14.2637 6.54159 14.7108L3.92406 19.2617C3.36601 19.0558 2.75832 19.0255 2.18257 19.175C1.60683 19.3244 1.09058 19.6464 0.703142 20.0978C0.315704 20.5491 0.0756191 21.1082 0.0151191 21.6999C-0.0453808 22.2917 0.0765997 22.8878 0.364685 23.4082C0.652771 23.9286 1.09317 24.3484 1.62676 24.6113C2.16035 24.8742 2.7616 24.9675 3.34977 24.8788C3.93795 24.7901 4.4849 24.5235 4.91721 24.115C5.34951 23.7064 5.64647 23.1753 5.76823 22.5931H11.3007C11.4201 23.2676 11.7732 23.8785 12.2981 24.3186C12.823 24.7588 13.4861 25 14.1711 25C14.8561 25 15.5192 24.7588 16.0441 24.3186C16.5689 23.8785 16.922 23.2676 17.0414 22.5931H22.4252C22.5377 23.1325 22.8006 23.6289 23.1837 24.0249C23.5668 24.4209 24.0542 24.7002 24.5896 24.8305C25.1249 24.9608 25.6862 24.9367 26.2084 24.761C26.7306 24.5853 27.1923 24.2652 27.54 23.8378C27.8877 23.4104 28.1072 22.8932 28.173 22.3462C28.2387 21.7992 28.1481 21.2447 27.9117 20.7471C27.6752 20.2495 27.3025 19.829 26.8369 19.5346C26.3712 19.2401 25.8317 19.0836 25.2807 19.0832H25.3104ZM21.5329 12.5692C21.5329 12.9104 21.4317 13.2439 21.2421 13.5276C21.0526 13.8113 20.7831 14.0324 20.4679 14.163C20.1526 14.2936 19.8058 14.3278 19.4711 14.2612C19.1365 14.1946 18.8291 14.0303 18.5878 13.789C18.3465 13.5478 18.1822 13.2404 18.1156 12.9057C18.0491 12.5711 18.0832 12.2242 18.2138 11.909C18.3444 11.5937 18.5655 11.3243 18.8492 11.1347C19.1329 10.9451 19.4665 10.844 19.8077 10.844C20.2652 10.844 20.704 11.0257 21.0276 11.3493C21.3511 11.6728 21.5329 12.1116 21.5329 12.5692ZM15.346 19.3212C14.9758 19.1581 14.5756 19.0739 14.1711 19.0739C13.7665 19.0739 13.3664 19.1581 12.9962 19.3212L10.4084 14.8297C10.7283 14.5689 10.9892 14.2432 11.1738 13.874C11.3584 13.5048 11.4625 13.1006 11.4792 12.6881H16.863C16.8796 13.1006 16.9837 13.5048 17.1683 13.874C17.3529 14.2432 17.6138 14.5689 17.9338 14.8297L15.346 19.3212ZM14.1562 1.14722C14.6177 1.14722 15.0603 1.33055 15.3866 1.65688C15.7129 1.9832 15.8963 2.42579 15.8963 2.88728C15.8963 3.34878 15.7129 3.79137 15.3866 4.11769C15.0603 4.44402 14.6177 4.62734 14.1562 4.62734C13.6947 4.62734 13.2521 4.44402 12.9258 4.11769C12.5995 3.79137 12.4161 3.34878 12.4161 2.88728C12.4161 2.42579 12.5995 1.9832 12.9258 1.65688C13.2521 1.33055 13.6947 1.14722 14.1562 1.14722ZM13.1449 5.63866C13.797 5.88272 14.5154 5.88272 15.1675 5.63866L17.8743 10.3383C17.5057 10.6508 17.2197 11.0492 17.0414 11.4983H11.271C11.0928 11.0492 10.8067 10.6508 10.4381 10.3383L13.1449 5.63866ZM8.53448 10.8142C8.87569 10.8142 9.20924 10.9154 9.49294 11.105C9.77665 11.2945 9.99777 11.564 10.1283 11.8792C10.2589 12.1944 10.2931 12.5413 10.2265 12.876C10.1599 13.2106 9.99564 13.518 9.75437 13.7593C9.5131 14.0006 9.2057 14.1649 8.87104 14.2314C8.53639 14.298 8.18951 14.2638 7.87428 14.1333C7.55904 14.0027 7.2896 13.7816 7.10004 13.4979C6.91047 13.2142 6.80929 12.8806 6.80929 12.5394C6.80929 12.0819 6.99105 11.6431 7.31459 11.3195C7.63812 10.996 8.07693 10.8142 8.53448 10.8142ZM2.883 23.7531C2.54179 23.7531 2.20824 23.6519 1.92454 23.4624C1.64083 23.2728 1.41971 23.0034 1.28914 22.6881C1.15856 22.3729 1.1244 22.026 1.19096 21.6914C1.25753 21.3567 1.42184 21.0493 1.66311 20.808C1.90438 20.5668 2.21178 20.4025 2.54643 20.3359C2.88109 20.2693 3.22797 20.3035 3.5432 20.4341C3.85844 20.5646 4.12788 20.7858 4.31744 21.0695C4.50701 21.3532 4.60819 21.6867 4.60819 22.0279C4.60819 22.4855 4.42643 22.9243 4.10289 23.2478C3.77936 23.5714 3.34055 23.7531 2.883 23.7531ZM4.93538 19.8863L7.55291 15.3354C8.12614 15.5455 8.75163 15.5664 9.33758 15.3949L12.0146 20.0351C11.658 20.4187 11.4114 20.8914 11.3007 21.4033H5.76823C5.65057 20.825 5.36016 20.296 4.93538 19.8863ZM14.1562 23.7531C13.815 23.7531 13.4815 23.6519 13.1977 23.4624C12.914 23.2728 12.6929 23.0034 12.5623 22.6881C12.4318 22.3729 12.3976 22.026 12.4642 21.6914C12.5307 21.3567 12.695 21.0493 12.9363 20.808C13.1776 20.5668 13.485 20.4025 13.8196 20.3359C14.1543 20.2693 14.5012 20.3035 14.8164 20.4341C15.1316 20.5646 15.4011 20.7858 15.5906 21.0695C15.7802 21.3532 15.8814 21.6867 15.8814 22.0279C15.8814 22.4855 15.6996 22.9243 15.3761 23.2478C15.0526 23.5714 14.6138 23.7531 14.1562 23.7531ZM22.4252 21.4033H17.0117C16.901 20.8914 16.6544 20.4187 16.2978 20.0351L18.9748 15.3949C19.5608 15.5664 20.1863 15.5455 20.7595 15.3354L23.3473 19.8268C22.879 20.24 22.5558 20.7926 22.4252 21.4033ZM25.3104 23.7531C24.9692 23.7531 24.6357 23.6519 24.352 23.4624C24.0683 23.2728 23.8471 23.0034 23.7166 22.6881C23.586 22.3729 23.5518 22.026 23.6184 21.6914C23.685 21.3567 23.8493 21.0493 24.0905 20.808C24.3318 20.5668 24.6392 20.4025 24.9739 20.3359C25.3085 20.2693 25.6554 20.3035 25.9706 20.4341C26.2859 20.5646 26.5553 20.7858 26.7449 21.0695C26.9344 21.3532 27.0356 21.6867 27.0356 22.0279C27.0356 22.2545 26.991 22.4788 26.9043 22.6881C26.8176 22.8974 26.6905 23.0876 26.5303 23.2478C26.3701 23.408 26.1799 23.5351 25.9706 23.6218C25.7613 23.7085 25.537 23.7531 25.3104 23.7531Z" fill="white"/>
</svg>
