<svg width="22" height="25" viewBox="0 0 22 25" fill="none" xmlns="http://www.w3.org/2000/svg">
<path fill-rule="evenodd" clip-rule="evenodd" d="M18.3123 7.11762H18.9514C19.5622 7.11762 20.146 7.36031 20.5774 7.7931C21.0116 8.22455 21.2543 8.8097 21.2543 9.42047V22.6971C21.2543 23.3079 21.0116 23.893 20.5774 24.3259C20.146 24.7573 19.5622 25 18.9514 25H2.3015C1.69074 25 1.10693 24.7573 0.675481 24.3259C0.241337 23.8931 0 23.3079 0 22.6971V9.42047C0 8.8097 0.241344 8.22455 0.675481 7.7931C1.10693 7.3603 1.69074 7.11762 2.3015 7.11762H2.94061V4.75136C2.94061 3.49207 3.44216 2.28266 4.33068 1.39142C5.22323 0.500208 6.43264 0 7.69331 0H13.5597C14.8203 0 16.0297 0.500208 16.9223 1.39142C17.8149 2.28262 18.3124 3.49204 18.3124 4.75136L18.3123 7.11762ZM18.9514 8.11534H2.3015C1.955 8.11534 1.62468 8.25287 1.37927 8.49692C1.13388 8.74231 0.996344 9.07399 0.996344 9.4205V22.6972C0.996344 23.0437 1.13387 23.3753 1.37927 23.6207C1.62466 23.8648 1.955 24.0037 2.3015 24.0037H18.9514C19.2979 24.0037 19.6282 23.8648 19.8737 23.6207C20.119 23.3753 20.2566 23.0437 20.2566 22.6972V9.4205C20.2566 9.07399 20.1191 8.74233 19.8737 8.49692C19.6283 8.25288 19.2979 8.11534 18.9514 8.11534ZM17.3159 7.11762V4.75136C17.3159 3.75633 16.9222 2.8004 16.2157 2.09658C15.5119 1.39276 14.5573 0.997725 13.5596 0.997725H7.69324C6.69552 0.997725 5.74094 1.39276 5.03712 2.09658C4.33061 2.8004 3.93692 3.75633 3.93692 4.75136V7.11762H17.3159Z" fill="white"/>
</svg>
