
<svg version="1.1" xmlns="http://www.w3.org/2000/svg" xmlns:xlink="http://www.w3.org/1999/xlink" x="0px" y="0px"
	 viewBox="0 0 22.4 16" style="enable-background:new 0 0 22.4 16;" xml:space="preserve">
<path  d="M8.2,11.7c0.2,0.3,0.3,0.7,0.3,1.1h5.4v-1.1H8.2z"/>
<path  d="M1.4,11.7H0v0.5c0,0.3,0.2,0.5,0.5,0.5h0.6C1.2,12.4,1.3,12.1,1.4,11.7z"/>
<path  d="M21.3,12.8h0.6c0.1,0,0.3-0.1,0.4-0.2c0.1-0.1,0.2-0.2,0.2-0.4V8.5h-4.8c-0.9,0-1.6-0.7-1.6-1.6V3.2h-1.1v7.5
	c0.7-0.7,1.6-1.1,2.7-1.1C19.5,9.6,21,11,21.3,12.8z"/>
<path  d="M7.4,10.7h6.5V0.5c0-0.3-0.2-0.5-0.5-0.5H0.5C0.2,0,0,0.2,0,0.5v10.1h2.2C2.9,10,3.8,9.6,4.8,9.6
	S6.7,10,7.4,10.7z"/>
<path  d="M17.1,3.2v3.7c0,0.3,0.2,0.5,0.5,0.5h4.8c-0.1-1.1-0.6-2.1-1.4-2.9c-0.9-0.9-2.1-1.4-3.4-1.4H17.1z"/>
<path  d="M17.6,10.7c1.5,0,2.7,1.2,2.7,2.7S19.1,16,17.6,16s-2.7-1.2-2.7-2.7S16.1,10.7,17.6,10.7z M17.6,11.7
	c-0.9,0-1.6,0.7-1.6,1.6c0,0.9,0.7,1.6,1.6,1.6s1.6-0.7,1.6-1.6C19.2,12.4,18.5,11.7,17.6,11.7z M17.6,12.8c0.3,0,0.5,0.2,0.5,0.5
	c0,0.3-0.2,0.5-0.5,0.5s-0.5-0.2-0.5-0.5C17.1,13,17.3,12.8,17.6,12.8z"/>
<path  d="M4.8,10.7c1.5,0,2.7,1.2,2.7,2.7S6.3,16,4.8,16s-2.7-1.2-2.7-2.7S3.3,10.7,4.8,10.7z M4.8,11.7
	c-0.9,0-1.6,0.7-1.6,1.6c0,0.9,0.7,1.6,1.6,1.6s1.6-0.7,1.6-1.6C6.4,12.4,5.7,11.7,4.8,11.7z M4.8,12.8c0.3,0,0.5,0.2,0.5,0.5
	c0,0.3-0.2,0.5-0.5,0.5c-0.3,0-0.5-0.2-0.5-0.5C4.3,13,4.5,12.8,4.8,12.8z"/>
</svg>
