
<svg version="1.1"  xmlns="http://www.w3.org/2000/svg" xmlns:xlink="http://www.w3.org/1999/xlink" x="0px" y="0px"
	 viewBox="0 0 16 16" xml:space="preserve">
<path d="M5.5,0H1.9C0.8,0,0,0.8,0,1.9v3.7c0,0.8,0.8,1.9,1.9,1.9h3.7c1,0,1.9-0.8,1.9-1.9V1.9C7.4,1,6.5,0,5.5,0z"/>
<path d="M5.5,8.6H1.9c-1,0-1.9,0.8-1.9,1.9v3.7C0,15,0.8,16,1.9,16h3.7c1,0,1.9-0.8,1.9-1.9v-3.7
	C7.4,9.6,6.5,8.6,5.5,8.6z"/>
<path d="M14.1,0h-3.7c-1,0-1.9,0.8-1.9,1.9v3.7c0,0.8,0.8,1.9,1.9,1.9h3.7c1,0,1.9-0.8,1.9-1.9V1.9C16,1,15.2,0,14.1,0z
	"/>
<path d="M12.3,16c2,0,3.7-1.6,3.7-3.7s-1.6-3.7-3.7-3.7s-3.7,1.6-3.7,3.7S10.3,16,12.3,16z"/>
</svg>
