<svg width="12" height="16" viewBox="0 0 12 16"  xmlns="http://www.w3.org/2000/svg">
<path fill-rule="evenodd" clip-rule="evenodd" d="M5.4465 15.2961C5.4465 15.2961 0 10.8015 0 6.37904C0 4.81982 0.632141 3.32446 1.75736 2.22193C2.88258 1.1194 4.4087 0.5 6 0.5C7.5913 0.5 9.11742 1.1194 10.2426 2.22193C11.3679 3.32446 12 4.81982 12 6.37904C12 10.8015 6.5535 15.2961 6.5535 15.2961C6.2505 15.5694 5.75175 15.5665 5.4465 15.2961ZM6 8.95112C6.34472 8.95112 6.68606 8.88459 7.00454 8.75533C7.32302 8.62607 7.6124 8.43661 7.85616 8.19777C8.09991 7.95893 8.29327 7.67539 8.42518 7.36333C8.5571 7.05127 8.625 6.71681 8.625 6.37904C8.625 6.04127 8.5571 5.70681 8.42518 5.39475C8.29327 5.08269 8.09991 4.79914 7.85616 4.5603C7.6124 4.32146 7.32302 4.13201 7.00454 4.00275C6.68606 3.87349 6.34472 3.80696 6 3.80696C5.30381 3.80696 4.63613 4.07794 4.14384 4.5603C3.65156 5.04266 3.375 5.69688 3.375 6.37904C3.375 7.0612 3.65156 7.71541 4.14384 8.19777C4.63613 8.68013 5.30381 8.95112 6 8.95112Z"/>
</svg>
