<svg width="16" height="16" viewBox="0 0 16 16" xmlns="http://www.w3.org/2000/svg">
<path d="M14.8825 12.0754C15.6145 10.8432 16 9.44226 16 8C16 3.58856 12.4114 0 8 0C3.58856 0 0 3.58856 0 8C0 12.4107 3.58856 16 8 16C9.4422 16 10.8432 15.6145 12.0755 14.8825L14.9187 15.949C15.0102 15.9835 15.1054 16 15.1999 16C15.4084 16 15.6131 15.919 15.7654 15.7652C15.9874 15.5433 16.0594 15.2118 15.9491 14.9185L14.8825 12.0754ZM9.59963 10.4H4.79979C4.35805 10.4 3.99956 10.0423 3.99956 9.59977C3.99956 9.15728 4.35805 8.79954 4.79979 8.79954H9.59963C10.0421 8.79954 10.3999 9.15728 10.3999 9.59977C10.3999 10.0423 10.0421 10.4 9.59963 10.4ZM11.2001 7.19984H4.79977C4.35803 7.19984 3.99954 6.84135 3.99954 6.39961C3.99954 5.95787 4.35803 5.59938 4.79977 5.59938H11.1993C11.6418 5.59938 11.9995 5.95787 11.9995 6.39961C11.9995 6.8421 11.6418 7.19984 11.2001 7.19984Z"/>
</svg>
