<svg width="18" height="17" viewBox="0 0 18 17" fill="none" xmlns="http://www.w3.org/2000/svg">
<path d="M12.5403 7.41842C13.3666 7.41836 14.1788 7.6336 14.8966 8.04293C15.6145 8.45226 16.2134 9.04156 16.6342 9.75277C17.055 10.464 17.2832 11.2726 17.2964 12.0988C17.3096 12.9251 17.1073 13.7405 16.7095 14.4648L17.0433 15.5986C17.0874 15.7484 17.0904 15.9074 17.0518 16.0587C17.0132 16.2101 16.9346 16.3483 16.8241 16.4587C16.7137 16.5692 16.5755 16.6478 16.4242 16.6864C16.2728 16.7249 16.1139 16.722 15.964 16.6779L14.8311 16.344C14.1955 16.6931 13.4884 16.8922 12.764 16.9261C12.0395 16.9599 11.317 16.8277 10.6515 16.5395C9.98602 16.2513 9.39526 15.8147 8.92438 15.2632C8.4535 14.7116 8.11498 14.0597 7.93469 13.3573C7.7544 12.6549 7.73712 11.9205 7.88417 11.2104C8.03123 10.5002 8.33872 9.8331 8.78314 9.26002C9.22756 8.68695 9.79714 8.22308 10.4483 7.90389C11.0995 7.58471 11.8151 7.41865 12.5403 7.41842ZM7.78385 0.5C9.50474 0.500236 11.1771 1.07054 12.5395 2.1218C13.902 3.17307 14.8778 4.64606 15.3146 6.31061C14.0057 5.69021 12.5268 5.52579 11.1136 5.84356C9.70042 6.16133 8.43427 6.94299 7.51695 8.06397C6.59963 9.18495 6.08394 10.5807 6.05206 12.0288C6.02019 13.477 6.47397 14.8941 7.34107 16.0543C6.08958 15.9848 4.87371 15.6123 3.79798 14.969L1.50625 15.6436C1.35593 15.6879 1.19644 15.6909 1.04456 15.6522C0.892686 15.6136 0.754042 15.5347 0.643223 15.4239C0.532404 15.313 0.453511 15.1744 0.414847 15.0225C0.376183 14.8706 0.379178 14.7111 0.423517 14.5608L1.09806 12.2691C0.393623 11.0876 0.0148889 9.74052 0.00043009 8.36503C-0.0140287 6.98955 0.336305 5.6348 1.01575 4.43876C1.6952 3.24272 2.67949 2.24811 3.86838 1.55622C5.05727 0.864334 6.40829 0.499889 7.78385 0.5Z" fill="#9A9CA2"/>
</svg>
