<svg width="13" height="20" viewBox="0 0 13 20" fill="none" xmlns="http://www.w3.org/2000/svg">
<path d="M0.85509 1.80372C4.5483 1.80773 8.24068 1.80773 11.9339 1.80372C12.358 1.79731 12.7035 1.45981 12.7195 1.03494C12.7347 0.699046 12.5688 0.380785 12.285 0.199613C12.1135 0.0697453 11.905 4.02653e-08 11.6902 4.02653e-08C8.15972 0.00320666 4.62844 -0.00320657 1.09715 0.00240486C1.00015 4.74001e-08 0.902349 0.00641328 0.806944 0.0224464C0.579269 0.0705467 0.374846 0.193199 0.22495 0.370362C-0.000323691 0.628493 -0.0620345 0.990836 0.0654218 1.3083C0.183265 1.63618 0.508775 1.8406 0.85509 1.80372Z" fill="#9A9CA2"/>
<path d="M2.88086 14.033C3.26725 13.4405 3.76748 12.9315 4.3527 12.5355C4.61483 12.3479 4.90584 12.2036 5.15917 12.0024C5.73636 11.5053 6.049 10.7686 6.00572 10.0086C5.98487 9.44428 5.75881 8.90637 5.36999 8.49592C5.15114 8.30433 4.90904 8.14078 4.64931 8.00852C4.05609 7.67023 3.53581 7.21728 3.11816 6.67696C2.69008 6.14868 2.39025 5.52898 2.24275 4.86523C2.04635 4.11007 2.11208 3.32605 2.10086 2.55482C2.09124 2.5452 2.072 2.52516 2.06238 2.51554C1.7746 2.51073 1.48759 2.51393 1.1998 2.51233V2.51313C1.13006 2.50992 1.06032 2.52516 0.997787 2.55722C0.968126 2.60853 0.954497 2.66705 0.956902 2.72557C0.92243 3.44785 0.964919 4.17176 1.08356 4.88452C1.30964 5.9932 1.8323 7.01926 2.59549 7.85391C3.05164 8.33089 3.57833 8.73493 4.15712 9.05237C4.3944 9.17262 4.60044 9.34498 4.76156 9.55661C4.93232 9.78348 4.99966 10.0721 4.94675 10.351C4.85375 10.7206 4.61886 11.0389 4.29259 11.2377C4.03927 11.3988 3.77793 11.5495 3.52941 11.7195C3.20875 11.9448 2.91054 12.2005 2.64038 12.4843C2.30849 12.817 2.02391 13.1937 1.79223 13.6026C1.42266 14.2271 1.16934 14.9133 1.04429 15.6284C0.964126 16.2031 0.93687 16.7827 0.961723 17.3623C0.960119 17.3984 0.973747 17.4329 0.9994 17.4577C1.02505 17.4826 1.06032 17.4946 1.0956 17.4914C1.385 17.4938 1.67359 17.493 1.963 17.4954C2.0111 17.497 2.05759 17.4874 2.10088 17.4673V16.8068C2.08645 16.1366 2.2043 15.4704 2.4464 14.8451C2.56825 14.5629 2.71331 14.2911 2.88086 14.033Z" fill="#9A9CA2"/>
<path d="M8.47422 9.06925C9.01373 8.76541 9.51477 8.39666 9.9645 7.97017C10.4792 7.44668 10.8952 6.83421 11.1926 6.16323C11.4556 5.56519 11.6287 4.93109 11.7057 4.28174C11.7418 3.84404 11.753 3.40474 11.7402 2.96622C11.7458 2.85158 11.741 2.73774 11.7257 2.6239C11.7041 2.55015 11.6311 2.50285 11.555 2.51328C11.2447 2.52129 10.9329 2.50526 10.6243 2.5229C10.5713 2.54454 10.5842 2.61028 10.5818 2.65517C10.6202 3.3526 10.5818 4.05326 10.4679 4.74271C10.3397 5.368 10.0847 5.96122 9.71759 6.48391C9.3312 7.02342 8.84699 7.48437 8.28985 7.84431C7.86498 8.1233 7.36794 8.34135 7.08256 8.78305V8.78385C6.43483 9.80677 6.60156 11.1447 7.47938 11.9775C7.6846 12.1467 7.90346 12.2974 8.13433 12.4289C8.47342 12.6309 8.78848 12.8706 9.07467 13.1424C9.9597 13.9897 10.4976 15.1361 10.5842 16.3586C10.5922 16.7041 10.5858 17.0504 10.589 17.396C10.5858 17.436 10.6098 17.4914 10.6579 17.4898C10.9562 17.4994 11.2552 17.4922 11.5542 17.4994V17.4986C11.6031 17.505 11.6528 17.489 11.6889 17.4545C11.7249 17.42 11.7434 17.3719 11.7402 17.3222C11.753 16.85 11.7346 16.3779 11.6849 15.9081C11.4484 14.033 10.3461 12.3768 8.70748 11.4348C8.4309 11.2873 8.1832 11.0909 7.97717 10.8544C7.77756 10.6067 7.69579 10.2845 7.7519 9.97101C7.85611 9.58302 8.11748 9.25602 8.47422 9.06925Z" fill="#9A9CA2"/>
<path d="M6.92228 7.85784C7.10266 7.72236 7.29826 7.60771 7.50428 7.51472C8.01334 7.25659 8.47107 6.90628 8.85426 6.483C9.25668 6.05413 9.55732 5.54107 9.73369 4.9799C9.88921 4.45161 9.95094 3.90008 9.91486 3.35014C9.90765 3.27799 9.81065 3.28119 9.75693 3.27719V3.27639C9.30321 3.26997 8.85508 3.3814 8.45746 3.59865C7.74158 3.98104 7.22772 4.63199 6.56394 5.08732C6.11902 5.43043 5.58993 5.64608 5.03199 5.71182C4.45479 5.77996 3.872 5.65009 3.37817 5.34385C3.30602 5.29415 3.22826 5.25246 3.14649 5.21959C3.12164 5.22681 3.1016 5.24525 3.09278 5.2701C3.08396 5.29495 3.08717 5.32221 3.1016 5.34385C3.35173 5.96432 3.75735 6.51026 4.28004 6.92793C4.67205 7.24379 5.10173 7.50913 5.55868 7.71997C5.79998 7.83301 5.99718 8.02301 6.11905 8.25949C6.20963 8.47994 6.28338 8.70601 6.3395 8.93689C6.39641 8.82065 6.4373 8.69719 6.46135 8.57052C6.54231 8.29314 6.70263 8.04543 6.92228 7.85784Z" fill="#9A9CA2"/>
<path d="M6.67737 12.186C6.60041 11.9503 6.50742 11.7194 6.40079 11.4958C6.37594 11.4838 6.35189 11.4725 6.32784 11.4613C6.19557 11.7796 5.95027 12.0922 6.0144 12.4554C6.03204 12.5628 6.09858 12.6558 6.19397 12.7071C6.29017 12.7592 6.404 12.764 6.50341 12.7215C6.67897 12.6053 6.75112 12.3832 6.67737 12.186Z" fill="#9A9CA2"/>
<path d="M6.21542 13.265C6.12083 13.3067 6.05509 13.3957 6.04307 13.4983C6.03185 13.5969 6.06712 13.6947 6.13686 13.7645C6.20741 13.8334 6.30601 13.8671 6.40462 13.8551C6.48639 13.8422 6.55934 13.7965 6.60744 13.7284C6.65473 13.6603 6.67237 13.5753 6.65554 13.4943C6.63389 13.4013 6.57216 13.3228 6.48799 13.2787C6.40382 13.2346 6.3044 13.2298 6.21542 13.265Z" fill="#9A9CA2"/>
<path d="M2.8524 17.4923C5.15398 17.4947 7.45639 17.4907 9.75776 17.4931C9.81949 17.4931 9.9221 17.4802 9.9181 17.3985C9.9181 17.2053 9.87401 17.0153 9.78983 16.8421C9.54133 16.3908 9.17096 16.018 8.72043 15.7671C8.18172 15.4112 7.65823 15.0312 7.11232 14.6857C6.83494 14.4829 6.48942 14.3963 6.14953 14.446C5.94831 14.4836 5.75671 14.5614 5.58597 14.6744C4.98072 15.052 4.39953 15.4665 3.80308 15.8569V15.8561C3.53373 16.0316 3.29243 16.2465 3.0864 16.4934C2.88759 16.7539 2.77216 17.069 2.75451 17.3961C2.75131 17.4225 2.76093 17.4498 2.78017 17.4682C2.79941 17.4866 2.82594 17.4963 2.8524 17.4923Z" fill="#9A9CA2"/>
<path d="M12.3664 18.3411C12.1788 18.22 11.9544 18.1711 11.7339 18.2016C11.6393 18.2048 11.5439 18.2056 11.4493 18.2064C7.987 18.2032 4.52467 18.2032 1.06234 18.2056C0.911627 18.1968 0.760907 18.2032 0.611812 18.224C0.274322 18.3098 0.0290176 18.6008 0.000942992 18.9479C-0.0110819 19.2261 0.0923312 19.4962 0.286327 19.6942C0.48113 19.8931 0.748881 20.0021 1.02626 19.9965C4.59367 20.0013 8.16025 20.0013 11.7268 19.9957H11.7276C12.2784 19.9812 12.7185 19.5323 12.7225 18.9816C12.7081 18.725 12.5765 18.4886 12.3664 18.3411Z" fill="#9A9CA2"/>
</svg>
