<svg width="16" height="16" viewBox="0 0 16 16" xmlns="http://www.w3.org/2000/svg">
<path d="M13.3333 1.77749H11.5558V0.44416C11.5558 0.198336 11.3566 0 11.1116 0C10.8658 0 10.6675 0.199166 10.6675 0.44416V1.77749H5.33414V0.44416C5.33414 0.198336 5.13498 0 4.88998 0C4.64416 0 4.44582 0.199166 4.44582 0.44416V1.77749H2.66667C1.19584 1.77749 0 2.97333 0 4.44416V13.3333C0 14.8033 1.19584 16 2.66667 16H13.3333C14.8042 16 16 14.8033 16 13.3333V4.44416C16 2.97417 14.8041 1.77749 13.3333 1.77749ZM2.66662 2.66667H4.44412V3.11083C4.44412 3.35665 4.64328 3.55499 4.88828 3.55499C5.1341 3.55499 5.33244 3.35582 5.33244 3.11083L5.33327 2.66667H10.6666V3.11083C10.6666 3.35665 10.8658 3.55499 11.1108 3.55499C11.3566 3.55499 11.5549 3.35582 11.5549 3.11083V2.66667H13.3333C14.3149 2.66667 15.1107 3.46251 15.1107 4.44416V5.33333H0.889089V4.44416C0.889089 3.46249 1.68497 2.66667 2.66662 2.66667ZM13.3333 15.1108H2.66662C1.68495 15.1108 0.88913 14.315 0.88913 13.3333V6.22251H15.1116V13.3333C15.1108 14.315 14.3149 15.1108 13.3333 15.1108Z" />
</svg>
