<svg width="18" height="16" viewBox="0 0 18 16" fill="none" xmlns="http://www.w3.org/2000/svg">
<path d="M15.431 1.29556H13.8602V0.578662C13.8602 0.259112 13.6011 0 13.2816 0C12.962 0 12.7029 0.259112 12.7029 0.578662V1.29556H5.30054V0.578662C5.30054 0.259112 5.04143 0 4.72188 0C4.40233 0 4.14322 0.259112 4.14322 0.578662V1.29556H2.57183C1.15089 1.29556 0 2.44645 0 3.86739V4.73538H18.0028V3.86739C18.0028 2.44645 16.8519 1.29556 15.431 1.29556Z" fill="#AEAEAE"/>
<path d="M0 5.89331V13.4281C0 14.8491 1.15089 16 2.57183 16H15.431C16.8519 16 18.0028 14.8491 18.0028 13.4281V5.89331H0ZM4.90319 12.9658H4.63829C4.31874 12.9658 4.05963 12.7067 4.05963 12.3872C4.05963 12.0676 4.31874 11.8085 4.63829 11.8085H4.90319C5.22274 11.8085 5.48185 12.0676 5.48185 12.3872C5.48185 12.7067 5.22274 12.9658 4.90319 12.9658ZM4.90319 9.50994H4.63829C4.31874 9.50994 4.05963 9.25083 4.05963 8.93128C4.05963 8.61173 4.31874 8.35262 4.63829 8.35262H4.90319C5.22274 8.35262 5.48185 8.61173 5.48185 8.93128C5.48185 9.25083 5.22274 9.50994 4.90319 9.50994ZM9.13385 12.9658H8.86895C8.5494 12.9658 8.29029 12.7067 8.29029 12.3872C8.29029 12.0676 8.5494 11.8085 8.86895 11.8085H9.13385C9.4534 11.8085 9.71251 12.0676 9.71251 12.3872C9.71251 12.7067 9.4534 12.9658 9.13385 12.9658ZM9.13385 9.50994H8.86895C8.5494 9.50994 8.29029 9.25083 8.29029 8.93128C8.29029 8.61173 8.5494 8.35262 8.86895 8.35262H9.13385C9.4534 8.35262 9.71251 8.61173 9.71251 8.93128C9.71251 9.25083 9.4534 9.50994 9.13385 9.50994ZM13.3645 12.9658H13.0996C12.7801 12.9658 12.5209 12.7067 12.5209 12.3872C12.5209 12.0676 12.7801 11.8085 13.0996 11.8085H13.3645C13.6841 11.8085 13.9432 12.0676 13.9432 12.3872C13.9432 12.7067 13.6841 12.9658 13.3645 12.9658ZM13.3645 9.50994H13.0996C12.7801 9.50994 12.5209 9.25083 12.5209 8.93128C12.5209 8.61173 12.7801 8.35262 13.0996 8.35262H13.3645C13.6841 8.35262 13.9432 8.61173 13.9432 8.93128C13.9432 9.25083 13.6841 9.50994 13.3645 9.50994Z" fill="#AEAEAE"/>
</svg>
