<svg width="16" height="19" viewBox="0 0 16 19" xmlns="http://www.w3.org/2000/svg">
<path d="M7.8383 14.5362C6.03328 14.5362 4.2277 14.5395 2.42267 14.5351C1.23913 14.5317 0.349948 13.8081 0.112795 12.6556C-0.0188326 12.0147 0.0605885 11.3799 0.481021 10.8811C1.08584 10.163 1.25413 9.33326 1.34743 8.44296C1.45518 7.41216 1.47184 6.36024 1.79897 5.36609C2.63872 2.81462 4.37043 1.23231 7.0502 0.843531C9.70609 0.458089 12.2676 1.89211 13.4639 4.30251C13.8832 5.14727 14.0831 6.04422 14.1731 6.97562C14.247 7.74095 14.3369 8.50461 14.4314 9.26717C14.5008 9.82534 14.7546 10.3002 15.1023 10.7406C15.8282 11.6592 15.7704 12.9555 14.984 13.8114C14.513 14.3235 13.9182 14.5378 13.2328 14.5378C11.4345 14.5367 9.63666 14.5378 7.8383 14.5378V14.5362ZM7.82275 13.2055C8.11433 13.2055 8.40591 13.2055 8.6975 13.2055C10.2043 13.2055 11.7105 13.2066 13.2173 13.2049C13.8121 13.2043 14.2142 12.8528 14.2775 12.2802C14.3125 11.963 14.1803 11.702 13.9843 11.4637C13.5483 10.9339 13.2628 10.3285 13.1479 9.65483C13.0629 9.1572 13.0262 8.65124 12.9618 8.15027C12.8685 7.42993 12.8191 6.69848 12.6624 5.99202C12.2192 3.99427 10.5547 2.46972 8.54865 2.16203C6.58589 1.86101 4.61647 2.82961 3.56456 4.59909C3.04693 5.4705 2.88865 6.43244 2.79423 7.41827C2.72425 8.14861 2.64594 8.8795 2.53653 9.60485C2.43156 10.3019 2.13498 10.9267 1.68511 11.4732C1.48795 11.7126 1.36021 11.9747 1.39908 12.2918C1.46906 12.8628 1.87117 13.2049 2.46988 13.2055C4.25436 13.2071 6.03828 13.2055 7.82275 13.2055Z"/>
<path d="M7.82809 18.0807C6.39129 18.0763 5.10334 17.2321 4.58238 15.9525C4.42187 15.5587 4.55794 15.1799 4.91395 15.0305C5.2744 14.8789 5.62985 15.0428 5.80757 15.4354C6.20468 16.3107 6.90614 16.7456 7.8492 16.7423C8.78337 16.7389 9.47816 16.3035 9.87027 15.4354C10.048 15.0428 10.4046 14.8789 10.7639 15.0305C11.1193 15.1805 11.2554 15.5587 11.0949 15.9525C10.5701 17.241 9.27489 18.0846 7.82809 18.0807Z"/>
</svg>
