<svg width="20" height="22" viewBox="0 0 20 22" fill="none" xmlns="http://www.w3.org/2000/svg">
<path d="M10.3594 21.2152L19.8844 16.2892V5.87622L10.3594 11.1042V21.2152ZM13.1641 11.5182L13.8203 11.2493L14.4414 11.2072C16.3364 10.9672 16.4973 12.7183 16.8203 14.2493C16.9623 14.9313 18.3054 14.8542 17.8894 15.4892C17.3464 16.3182 16.4124 16.9222 15.3284 17.1472C15.2994 17.1532 15.2714 17.1562 15.2434 17.1562C15.0494 17.1562 16.8613 16.9463 16.8203 16.7493C16.7733 16.5233 18.5943 15.2963 18.8203 15.2493C19.6883 15.0693 18.3973 14.8943 18.8203 14.2493C19.1183 13.7953 17.5944 14.0902 17.4964 13.6212C17.2654 12.5252 15.9424 11.8352 14.4904 12.0392C14.4664 12.0422 14.4454 12.0362 14.4224 12.0352L19.3203 13.7493L15.8203 10.0832L11.8434 11.5182H13.1641Z" fill="#141F2A"/>
<path d="M12.799 1.8482L9.70103 0.283203L0.457031 5.1802L3.65403 6.9352L12.799 1.8482Z" fill="#141F2A"/>
<path d="M6.885 12.1451C6.885 12.1601 6.878 12.1731 6.877 12.1871C6.874 12.2161 6.869 12.2441 6.86 12.2721C6.852 12.2971 6.842 12.3201 6.829 12.3421C6.816 12.3661 6.802 12.3871 6.784 12.4081C6.766 12.4301 6.746 12.4481 6.724 12.4661C6.712 12.4761 6.705 12.4891 6.692 12.4971C6.684 12.5021 6.675 12.5001 6.668 12.5041C6.608 12.5381 6.543 12.5621 6.47 12.5621C6.404 12.5621 6.343 12.5441 6.288 12.5161C6.272 12.5081 6.259 12.4961 6.244 12.4871C6.204 12.4611 6.17 12.4301 6.142 12.3921C6.134 12.3831 6.122 12.3791 6.116 12.3691L4.904 10.4681L3.852 11.0111C3.722 11.0781 3.567 11.0731 3.443 10.9971C3.319 10.9211 3.243 10.7861 3.243 10.6401V7.6611L0 5.8811V16.2881L9.525 21.2141V11.1091L6.885 9.6601V12.1451Z" fill="#141F2A"/>
<path d="M4.07812 9.95514L4.86013 9.55114C5.05313 9.45114 5.28812 9.51514 5.40412 9.69814L6.05113 10.7131V9.20114L4.07812 8.11914V9.95514Z" fill="#141F2A"/>
<path d="M6.45653 8.47222L15.4405 3.18222L13.7005 2.30322L4.51953 7.40922L6.45653 8.47222Z" fill="#141F2A"/>
<path d="M16.3256 3.62915L7.30859 8.94015L9.93959 10.3832L19.4086 5.18715L16.3256 3.62915Z" fill="#141F2A"/>
</svg>
