<svg width="11" height="13" viewBox="0 0 11 13" fill="none" xmlns="http://www.w3.org/2000/svg">
<path d="M3.66667 1.23809V0H7.33333V1.23809H3.66667ZM4.88889 8.04762H6.11111V4.33333H4.88889V8.04762ZM5.5 13C4.7463 13 4.03578 12.8531 3.36844 12.5592C2.70111 12.2654 2.11811 11.8655 1.61944 11.3595C1.12078 10.8536 0.726204 10.2628 0.435722 9.58719C0.145241 8.9116 0 8.19206 0 7.42857C0 6.66508 0.145241 5.94533 0.435722 5.26933C0.726204 4.59333 1.12078 4.00276 1.61944 3.49762C2.11811 2.99248 2.70131 2.59278 3.36906 2.29852C4.0368 2.00427 4.74711 1.85714 5.5 1.85714C6.13148 1.85714 6.7375 1.96032 7.31806 2.16667C7.89861 2.37302 8.44352 2.67222 8.95278 3.06428L9.80833 2.19762L10.6639 3.06428L9.80833 3.93095C10.1954 4.44682 10.4907 4.99881 10.6944 5.5869C10.8981 6.175 11 6.78889 11 7.42857C11 8.19206 10.8548 8.91181 10.5643 9.58781C10.2738 10.2638 9.87922 10.8544 9.38056 11.3595C8.88189 11.8647 8.29869 12.2646 7.63094 12.5592C6.9632 12.8539 6.25289 13.0008 5.5 13Z" fill="#787B83"/>
</svg>
