<svg width="16" height="17" viewBox="0 0 16 17" fill="none" xmlns="http://www.w3.org/2000/svg">
<circle cx="8" cy="8.5" r="8" fill="#787B83"/>
<path fill-rule="evenodd" clip-rule="evenodd" d="M7.7 8.18421H5.3C5.1344 8.18421 5 8.32568 5 8.5C5 8.67432 5.1344 8.81579 5.3 8.81579H7.7V11.1842C7.7 11.3585 7.8344 11.5 8 11.5C8.1656 11.5 8.3 11.3585 8.3 11.1842V8.81579H10.7C10.8656 8.81579 11 8.67432 11 8.5C11 8.32568 10.8656 8.18421 10.7 8.18421H8.3V5.81579C8.3 5.64147 8.1656 5.5 8 5.5C7.8344 5.5 7.7 5.64147 7.7 5.81579V8.18421Z" fill="white"/>
</svg>
