<svg width="15" height="15" viewBox="0 0 15 15" xmlns="http://www.w3.org/2000/svg">
<path d="M4.77754 0H0.571819C0.256546 0.00124411 0 0.256696 0 0.573206V13.5001C0 13.8154 0.256708 14.0709 0.571972 14.0721H4.40127L3.09662 12.2329C2.97325 12.0846 2.94706 11.8777 3.02933 11.7033C3.1116 11.5288 3.28728 11.4167 3.48043 11.4167H4.75892V7.25335C4.76141 6.78608 5.13898 6.40727 5.60626 6.40602H8.4648C8.93208 6.40851 9.30965 6.78608 9.31214 7.25335V11.4167H10.5906V11.4179C10.7763 11.4191 10.9458 11.5238 11.0305 11.6883C11.1152 11.8528 11.1015 12.0509 10.9956 12.2029L9.66978 14.0721H13.4991C13.8144 14.0709 14.071 13.8154 14.0723 13.5001V0.573215C14.0711 0.256698 13.8143 0.00124602 13.4991 0H9.29208V3.51891C9.29208 3.65101 9.23975 3.77687 9.14629 3.87033C9.05282 3.96378 8.92696 4.01737 8.79363 4.01737H5.27599C5.1439 4.01737 5.01679 3.9638 4.92334 3.87033C4.82988 3.77685 4.77754 3.651 4.77754 3.51891V0Z" />
<path d="M5.77442 3.02057V0H8.29527V3.02057H5.77442Z" />
</svg>
