<svg width="25" height="25" viewBox="0 0 25 25" fill="none" xmlns="http://www.w3.org/2000/svg">
<path d="M21.7595 0C20.9277 0 20.0961 0.315953 19.4652 0.946816C13.8054 6.60637 8.14584 12.2663 2.48606 17.9262C2.42181 17.9903 2.37172 18.0671 2.33901 18.1518L0.044747 24.1166C-0.156847 24.6411 0.35805 25.1565 0.882773 24.9555L6.84911 22.6614C6.93376 22.6286 7.01064 22.5785 7.07472 22.5143L24.0537 5.53517C25.3154 4.27345 25.3154 2.20858 24.0537 0.946855C23.4228 0.315993 22.5913 0 21.7595 0ZM21.7595 1.29031C22.2564 1.29031 22.7532 1.48162 23.136 1.86448C23.9018 2.63021 23.9018 3.85174 23.136 4.61747L20.8416 6.91274L18.0883 4.15864L20.3826 1.86448C20.7654 1.48162 21.2626 1.29031 21.7595 1.29031ZM17.171 5.0763L19.9242 7.8304L6.61629 21.1378L3.86318 18.3848L17.171 5.0763ZM3.19248 19.5498L5.45125 21.8085L1.78042 23.2204L3.19248 19.5498Z" fill="white"/>
</svg>
