<svg width="30" height="14" viewBox="0 0 30 14" xmlns="http://www.w3.org/2000/svg">
<path d="M13.8502 0.224631C14.9692 -0.231205 16.2579 0.0194516 17.116 0.860863C18.2868 2.01061 18.2868 3.87672 17.116 5.0266C16.2578 5.86802 14.9692 6.11864 13.8502 5.66283C12.7313 5.20703 12.0007 4.13425 12.0007 2.94304C12.0007 1.75322 12.7312 0.680467 13.8502 0.224631Z" />
<path d="M5.13835 1.56319C6.01614 1.20653 7.02573 1.40346 7.6974 2.06172C8.61166 2.96374 8.61166 4.4221 7.6974 5.32274C7.02573 5.98238 6.01614 6.17931 5.13835 5.82264C4.26053 5.46594 3.68985 4.6259 3.68985 3.69223C3.68985 2.7599 4.26057 1.91986 5.13835 1.56319Z" />
<path d="M9.32959 7.97522L9.33099 7.97385L9.34083 7.97517C7.61061 6.8776 5.43282 6.71236 3.55104 7.53449C1.66926 8.35662 0.33715 10.0559 0.00762854 12.0541C-0.0176105 12.1932 0.0202498 12.3364 0.114199 12.4438C0.206755 12.5512 0.344175 12.6132 0.488603 12.6104H6.53075C6.93039 10.8093 7.91195 9.18296 9.32959 7.97522Z" />
<path d="M23.0543 1.56319C23.9321 1.20653 24.9417 1.40346 25.612 2.06172C26.5276 2.96374 26.5276 4.4221 25.612 5.32274C24.9417 5.98238 23.9321 6.17931 23.0543 5.82264C22.1765 5.46594 21.6058 4.6259 21.6058 3.69223C21.6058 2.7599 22.1766 1.91986 23.0543 1.56319Z" />
<path d="M20.6593 7.97526C22.077 9.18282 23.0599 10.8092 23.4582 12.6105L29.5004 12.6105C29.6462 12.616 29.7864 12.5568 29.8818 12.448C29.9785 12.3392 30.0178 12.1946 29.9925 12.0542C29.663 10.0561 28.3309 8.35671 26.4491 7.53458C24.5674 6.71245 22.3897 6.87769 20.6593 7.97526Z"/>
<path d="M22.349 13.7686C22.4864 13.6213 22.5538 13.423 22.5327 13.2233C22.5117 13.2068 22.5116 13.185 22.5074 13.1643C22.2073 11.4194 21.2874 9.83573 19.9119 8.69409C15.3533 4.89052 8.38994 7.53459 7.45605 13.2274C7.43642 13.4257 7.50372 13.6227 7.64114 13.77C7.77715 13.9174 7.97067 14 8.17399 14H21.8148C22.0181 14 22.213 13.916 22.349 13.7686Z" />
</svg>
