<svg width="15" height="16" viewBox="0 0 15 16" xmlns="http://www.w3.org/2000/svg">
<path d="M14.9998 7.95632L14.6527 8.02959C14.5128 8.0592 14.3707 7.98814 14.3093 7.8601L13.9088 7.03113C13.6661 6.5256 13.0836 6.28506 12.5566 6.47084L10.3814 7.22654C10.2889 7.25837 10.1882 7.24652 10.1068 7.19323L7.21144 5.31029C7.13446 5.2607 7.08487 5.18373 7.07303 5.09491C7.05897 5.0061 7.08265 4.9195 7.14038 4.84992L7.9834 3.83147C8.17509 3.60054 8.25947 3.30819 8.22839 3.01657L8.10775 1.8797C8.09221 1.72945 8.18472 1.58957 8.32906 1.54811L10.1979 1.00336C12.9912 2.08471 14.9822 4.79065 15 7.95626L14.9998 7.95632ZM8.7433 0.604376L8.10751 0.790153C7.59607 0.938183 7.26671 1.43186 7.32222 1.96255L7.44287 3.10311C7.45249 3.18379 7.42732 3.26521 7.37551 3.33034L6.5325 4.34878C6.3334 4.58932 6.24607 4.90537 6.29344 5.21549C6.3408 5.52561 6.51844 5.8017 6.78119 5.9734L9.67884 7.85634C9.96527 8.04212 10.3161 8.08504 10.6403 7.97255L12.8155 7.21685C12.9635 7.16578 13.1271 7.23239 13.1966 7.3745L13.5971 8.20568C13.7843 8.59055 14.1736 8.8274 14.5881 8.8274C14.6629 8.8274 14.7361 8.81926 14.8109 8.80372L14.9589 8.77189C14.9175 9.17231 14.8442 9.56311 14.7421 9.94207L13.9923 9.41138C13.811 9.28111 13.5956 9.20191 13.3743 9.18268L12.8473 9.13309C12.4921 9.09978 12.1368 9.21821 11.8726 9.45653C11.6083 9.69707 11.4559 10.0405 11.4559 10.4002V11.5549C11.4559 11.7184 11.4855 11.8768 11.5447 12.0263L12.253 13.7946C11.7238 14.229 11.1361 14.5917 10.5026 14.87C10.6351 14.6235 10.7098 14.3511 10.7098 14.0684V12.9056C10.7098 12.4971 10.5618 12.104 10.2953 11.7984L8.52491 9.76526C8.28438 9.49067 7.96833 9.30563 7.61084 9.22866L6.76411 9.0451C5.9433 8.86747 5.10841 9.32932 4.82426 10.1205L4.54819 10.8844C4.48084 11.0701 4.3565 11.2241 4.19292 11.3322L1.80893 12.8776C1.51881 12.5378 1.25604 12.173 1.02956 11.7859L2.13682 10.7578C2.5772 10.3492 2.73115 9.71936 2.5254 9.15314L2.14054 8.09917C2.02581 7.78758 2.15016 7.4323 2.43438 7.25836L3.10124 6.85203C3.39951 6.67069 3.62599 6.38648 3.74072 6.05266L4.60742 3.47689C4.76951 2.99505 4.67625 2.47029 4.36466 2.07727L3.86507 1.44148C4.94198 0.843448 6.1818 0.5 7.49998 0.5C7.92409 0.5 8.33844 0.537022 8.7433 0.604376ZM3.19297 1.86558L3.74586 2.56798C3.89389 2.75375 3.93534 3.00021 3.86058 3.22745L2.99388 5.80322C2.94059 5.96087 2.83401 6.09558 2.6919 6.17996L2.02504 6.5863C1.41886 6.95563 1.15686 7.70763 1.39961 8.3708L1.78448 9.42256C1.88143 9.689 1.80816 9.9873 1.60092 10.1783L0.653541 11.0568C0.234628 10.1235 0 9.08945 0 7.99995C0 5.46568 1.26482 3.22376 3.19297 1.86558ZM2.36401 13.4594L4.62371 11.9931C4.92791 11.794 5.16475 11.4957 5.29057 11.1545L5.56663 10.3885C5.71836 9.96806 6.16096 9.72161 6.59913 9.81783L7.44586 10.0014C7.63755 10.0428 7.80482 10.1413 7.93361 10.2878L9.7018 12.3188C9.84391 12.4809 9.92311 12.6896 9.92311 12.9087V14.0715C9.92311 14.241 9.87574 14.4053 9.78692 14.5489L9.32877 15.2772C8.74109 15.4215 8.12974 15.5 7.49989 15.5C5.51418 15.5 3.70797 14.7229 2.36401 13.4594ZM12.8761 13.2225L12.2803 11.7363C12.2589 11.6793 12.247 11.6201 12.247 11.5564V10.4018C12.247 10.2634 12.304 10.1353 12.4047 10.0428C12.5053 9.9503 12.6378 9.90664 12.774 9.9207L13.3047 9.97029C13.3854 9.97843 13.4683 10.008 13.5356 10.0569L14.483 10.7282C14.1174 11.6652 13.5667 12.512 12.8761 13.2225Z"/>
</svg>
