<svg width="16" height="16" viewBox="0 0 16 16" xmlns="http://www.w3.org/2000/svg">
<path d="M5.53521 0H1.85068C0.824394 0 0 0.824394 0 1.85068V5.53521C0 6.35961 0.824394 7.38589 1.85068 7.38589H5.53521C6.5615 7.38589 7.38589 6.5615 7.38589 5.53521V1.85068C7.36907 1.02629 6.54468 0 5.53521 0Z" />
<path d="M5.53521 8.61426H1.85068C0.824394 8.61426 0 9.43865 0 10.4649V14.1495C0 14.9739 0.824394 16.0002 1.85068 16.0002H5.53521C6.5615 16.0002 7.38589 15.1758 7.38589 14.1495V10.4481C7.36907 9.62372 6.54468 8.61426 5.53521 8.61426Z" />
<path d="M14.1329 0H10.4483C9.42205 0 8.59766 0.824394 8.59766 1.85068V5.53521C8.59766 6.35961 9.42205 7.38589 10.4483 7.38589H14.1329C15.1592 7.38589 15.9836 6.5615 15.9836 5.53521V1.85068C15.9836 1.02629 15.1592 0 14.1329 0Z" />
<path d="M12.2978 15.9833C14.3327 15.9833 15.9824 14.3337 15.9824 12.2988C15.9824 10.2639 14.3327 8.61426 12.2978 8.61426C10.2629 8.61426 8.61328 10.2639 8.61328 12.2988C8.61328 14.3337 10.2629 15.9833 12.2978 15.9833Z" />
</svg>
