<svg width="11" height="12" viewBox="0 0 11 12" xmlns="http://www.w3.org/2000/svg">
<path fill-rule="evenodd" clip-rule="evenodd" d="M1.5 9.39571e-07C1.10218 9.39571e-07 0.720644 0.158036 0.43934 0.439341C0.158035 0.720645 0 1.10218 0 1.5V10.5C0 10.8978 0.158035 11.2794 0.43934 11.5607C0.720644 11.842 1.10218 12 1.5 12H9.5C9.89782 12 10.2794 11.842 10.5607 11.5607C10.842 11.2794 11 10.8978 11 10.5V4.621C10.9997 4.22331 10.8414 3.84204 10.56 3.561L7.44 0.439001C7.30052 0.299615 7.13494 0.189096 6.95271 0.113768C6.77048 0.0384399 6.57518 -0.000219753 6.378 9.39571e-07H1.5ZM8.213 4.16C8.36947 4.2828 8.47076 4.46273 8.49457 4.6602C8.51839 4.85767 8.46279 5.05652 8.34 5.213L5.59 8.713C5.52748 8.79258 5.4495 8.85869 5.36076 8.90734C5.27201 8.95599 5.17434 8.98617 5.07362 8.99608C4.97291 9.00598 4.87123 8.9954 4.77471 8.96496C4.67819 8.93453 4.58882 8.88488 4.512 8.819L2.762 7.319C2.68359 7.25606 2.61864 7.178 2.571 7.08946C2.52337 7.00091 2.49402 6.90369 2.48471 6.80358C2.4754 6.70347 2.48631 6.60251 2.5168 6.5067C2.54729 6.41089 2.59673 6.32218 2.66218 6.24586C2.72764 6.16954 2.80777 6.10716 2.89782 6.06243C2.98786 6.0177 3.08599 5.99153 3.18635 5.98548C3.28671 5.97943 3.38726 5.99362 3.48203 6.02721C3.5768 6.0608 3.66385 6.1131 3.738 6.181L4.894 7.171L7.16 4.287C7.2828 4.13053 7.46272 4.02924 7.6602 4.00543C7.85767 3.98161 8.05652 4.03721 8.213 4.16Z"/>
</svg>
