<svg width="26" height="26" viewBox="0 0 26 26" xmlns="http://www.w3.org/2000/svg">
<path d="M18.5316 18.5316C19.4853 17.578 20.2417 16.4458 20.7578 15.1999C21.2739 13.9539 21.5396 12.6184 21.5396 11.2698C21.5396 9.92114 21.2739 8.5857 20.7578 7.33971C20.2417 6.09372 19.4853 4.96159 18.5316 4.00795C17.578 3.05431 16.4458 2.29785 15.1999 1.78174C13.9539 1.26564 12.6184 1 11.2698 1C9.92114 1 8.5857 1.26564 7.33971 1.78174C6.09372 2.29785 4.96159 3.05431 4.00795 4.00795C2.08199 5.93391 1 8.54607 1 11.2698C1 13.9935 2.08199 16.6057 4.00795 18.5316C5.93391 20.4576 8.54607 21.5396 11.2698 21.5396C13.9935 21.5396 16.6057 20.4576 18.5316 18.5316ZM18.5316 18.5316L25 25"  stroke-width="2" stroke-linecap="round" stroke-linejoin="round"/>
</svg>
