<svg width="24" height="21" viewBox="0 0 24 21" fill="none" xmlns="http://www.w3.org/2000/svg">
<path fill-rule="evenodd" clip-rule="evenodd" d="M23.6137 4.28184L17.8514 0.184644C17.1979 -0.187828 16.8415 0.0127341 16.7524 0.700375V3.62285H1.0396C0.475245 3.62285 0 4.08128 0 4.65431C0 5.22735 0.475245 5.68578 1.0396 5.68578H16.7524V8.86612C16.7821 9.84028 17.1682 9.98353 17.8514 9.61106L23.584 4.99813C23.8514 4.76892 23.8811 4.53971 23.6137 4.28184Z" fill="#787B83"/>
<path fill-rule="evenodd" clip-rule="evenodd" d="M0.187042 15.4819L5.94939 11.3847C6.60285 11.0122 6.95928 11.2127 7.04839 11.9004V14.8229H22.7612C23.3255 14.8229 23.8008 15.2813 23.8008 15.8543C23.8008 16.4274 23.3255 16.8858 22.7612 16.8858H7.04839V20.0661C7.01869 21.0403 6.63255 21.1835 5.94939 20.8111L0.216745 16.1981C-0.050581 15.9689 -0.0802822 15.7397 0.187042 15.4819Z" fill="#787B83"/>
</svg>
