<svg width="18" height="18" viewBox="0 0 18 18" fill="none" xmlns="http://www.w3.org/2000/svg">
<path d="M12.6877 12.6877C13.3235 12.052 13.8278 11.2972 14.1719 10.4666C14.516 9.63592 14.693 8.74562 14.693 7.84652C14.693 6.94743 14.516 6.05713 14.1719 5.22647C13.8278 4.39581 13.3235 3.64106 12.6877 3.0053C12.052 2.36954 11.2972 1.86523 10.4666 1.52116C9.63592 1.17709 8.74562 1 7.84652 1C6.94743 1 6.05713 1.17709 5.22647 1.52116C4.39581 1.86523 3.64106 2.36954 3.0053 3.0053C1.72133 4.28927 1 6.03071 1 7.84652C1 9.66233 1.72133 11.4038 3.0053 12.6877C4.28927 13.9717 6.03071 14.693 7.84652 14.693C9.66233 14.693 11.4038 13.9717 12.6877 12.6877ZM12.6877 12.6877L17 17" stroke="#C8C8C8" stroke-width="2" stroke-linecap="round" stroke-linejoin="round"/>
</svg>
