<svg width="26" height="27" viewBox="0 0 26 27" fill="none" xmlns="http://www.w3.org/2000/svg">
<path fill-rule="evenodd" clip-rule="evenodd" d="M11.621 0.827026C10.6453 0.827026 9.84636 1.62594 9.84636 2.60164V3.62116C9.09434 3.83608 8.3694 4.13606 7.68539 4.51539L6.96554 3.79559C6.27545 3.1055 5.14508 3.10549 4.45501 3.79559L2.96858 5.28197C2.27847 5.97206 2.27847 7.10241 2.96858 7.7925L3.68843 8.51235C3.30911 9.19634 3.00911 9.92131 2.7942 10.6733H1.77467C0.798966 10.6733 0 11.4723 0 12.448V14.5518C0 15.5275 0.798966 16.3265 1.77467 16.3265H2.7942C3.00911 17.0785 3.3091 17.8035 3.68843 18.4875L2.96858 19.2073C2.27847 19.8974 2.27847 21.0278 2.96858 21.7179L4.45501 23.2043C5.14508 23.8944 6.27545 23.8944 6.96554 23.2043L7.68539 22.4844C8.3694 22.8638 9.09434 23.1637 9.84636 23.3787V24.3982C9.84636 25.3739 10.6453 26.1729 11.621 26.1729H13.7249C14.7006 26.1729 15.4995 25.3739 15.4995 24.3982V23.3787C16.2516 23.1637 16.9765 22.8638 17.6605 22.4844L18.3804 23.2043C19.0705 23.8944 20.2008 23.8944 20.8909 23.2043L22.3773 21.7179C23.0674 21.0278 23.0674 19.8974 22.3773 19.2073L21.6575 18.4875C22.0368 17.8035 22.3368 17.0785 22.5517 16.3265H23.5712C24.5469 16.3265 25.3458 15.5275 25.3458 14.5518V12.448C25.3458 11.4723 24.5469 10.6733 23.5712 10.6733H22.5563C22.3409 9.92033 22.0402 9.19453 21.66 8.50981L22.3773 7.7925C23.0674 7.10241 23.0674 5.97206 22.3773 5.28197L20.8909 3.79559C20.2008 3.10551 19.0705 3.10551 18.3804 3.79559L17.6631 4.5129C16.9784 4.13265 16.2525 3.83197 15.4995 3.61655V2.60164C15.4995 1.62594 14.7006 0.827026 13.7249 0.827026H11.621ZM11.621 1.70099H13.7249C14.232 1.70099 14.6255 2.09447 14.6255 2.60164V3.95112C14.6255 4.04854 14.6581 4.14317 14.718 4.21997C14.778 4.29677 14.8619 4.35134 14.9564 4.375C15.8553 4.60003 16.716 4.95667 17.5106 5.4333C17.5942 5.48342 17.6921 5.50417 17.7889 5.49226C17.8856 5.48034 17.9755 5.43644 18.0445 5.36753L18.9984 4.41356C19.3569 4.05509 19.9144 4.05509 20.2729 4.41356L21.7593 5.9C22.1177 6.25846 22.1178 6.81604 21.7593 7.17449L20.8054 8.12846C20.7365 8.19737 20.6926 8.28732 20.6807 8.38403C20.6688 8.48073 20.6895 8.57865 20.7397 8.66221C21.2163 9.45687 21.5729 10.3176 21.7979 11.2165C21.8216 11.311 21.8761 11.3949 21.9529 11.4548C22.0298 11.5148 22.1244 11.5473 22.2218 11.5473H23.5713C24.0784 11.5473 24.4719 11.9408 24.4719 12.448V14.5518C24.4719 15.059 24.0784 15.4525 23.5713 15.4525H22.2171C22.1196 15.4525 22.025 15.4851 21.9482 15.5451C21.8713 15.605 21.8168 15.689 21.7931 15.7835C21.5686 16.6815 21.2128 17.5414 20.7372 18.3355C20.6871 18.4191 20.6664 18.5169 20.6784 18.6136C20.6903 18.7103 20.7342 18.8002 20.8031 18.869L21.7594 19.8254C22.1178 20.1838 22.1178 20.7414 21.7594 21.0999L20.273 22.5863C19.9145 22.9447 19.3569 22.9447 18.9985 22.5863L18.0422 21.63C17.9733 21.5611 17.8834 21.5172 17.7867 21.5053C17.6901 21.4934 17.5922 21.5141 17.5086 21.5641C16.7145 22.0397 15.8546 22.3956 14.9566 22.6201C14.862 22.6438 14.7781 22.6983 14.7181 22.7751C14.6582 22.852 14.6256 22.9466 14.6256 23.0441V24.3982C14.6256 24.9054 14.2321 25.2988 13.7249 25.2988H11.6211C11.1139 25.2988 10.7205 24.9054 10.7205 24.3982V23.0441C10.7205 22.9466 10.6879 22.8519 10.6279 22.7751C10.5679 22.6983 10.484 22.6437 10.3894 22.6201C9.49143 22.3956 8.63153 22.0397 7.83746 21.5641C7.7539 21.5141 7.65602 21.4934 7.55936 21.5053C7.4627 21.5172 7.37279 21.5611 7.30391 21.63L6.34759 22.5863C5.98914 22.9447 5.43151 22.9447 5.07305 22.5863L3.58667 21.0999C3.2282 20.7414 3.2282 20.1838 3.58667 19.8254L4.54297 18.869C4.61184 18.8002 4.65573 18.7103 4.66767 18.6136C4.67961 18.5169 4.65891 18.4191 4.60887 18.3355C4.13323 17.5414 3.77745 16.6815 3.55293 15.7835C3.52929 15.689 3.47471 15.605 3.39787 15.545C3.32102 15.485 3.22634 15.4525 3.12885 15.4525H1.77467C1.2675 15.4525 0.874016 15.059 0.874016 14.5518V12.448C0.874016 11.9408 1.2675 11.5473 1.77467 11.5473H3.12885C3.22631 11.5473 3.32096 11.5148 3.39778 11.4548C3.47459 11.3948 3.52916 11.3109 3.55281 11.2164C3.77734 10.3184 4.13312 9.45842 4.60876 8.66434C4.6588 8.58077 4.67949 8.48289 4.66755 8.38623C4.65561 8.28957 4.61173 8.19966 4.54286 8.13079L3.58656 7.17449C3.22809 6.81602 3.22809 6.25846 3.58656 5.89999L5.07294 4.41356C5.43139 4.0551 5.98902 4.0551 6.34748 4.41356L7.30379 5.36987C7.37267 5.43874 7.46257 5.48263 7.55923 5.49457C7.6559 5.50652 7.75378 5.48583 7.83734 5.43579C8.63142 4.96015 9.49131 4.60431 10.3893 4.37978C10.4839 4.35615 10.5678 4.30158 10.6278 4.22477C10.6878 4.14796 10.7203 4.0533 10.7203 3.95584V2.60165C10.7203 2.09448 11.1139 1.70099 11.621 1.70099ZM12.673 7.28361C9.24495 7.28361 6.4566 10.0719 6.4566 13.4999C6.4566 16.9279 9.24495 19.7163 12.673 19.7163C16.101 19.7163 18.8893 16.9279 18.8893 13.4999C18.8893 10.0719 16.101 7.28361 12.673 7.28361ZM12.673 8.15758C15.6286 8.15758 18.0153 10.5442 18.0153 13.4999C18.0153 16.4556 15.6286 18.8422 12.673 18.8422C9.71729 18.8422 7.33062 16.4556 7.33062 13.4999C7.33062 10.5442 9.71729 8.15758 12.673 8.15758Z" fill="white"/>
</svg>
