<svg width="16" height="15" viewBox="0 0 16 15" fill="none" xmlns="http://www.w3.org/2000/svg">
<path d="M5.50506 4.9246L7.28264 1.3448C7.33439 1.2412 7.41397 1.15407 7.51246 1.09316C7.61096 1.03226 7.72447 1 7.84027 1C7.95608 1 8.06959 1.03226 8.16809 1.09316C8.26658 1.15407 8.34616 1.2412 8.39791 1.3448L10.1755 4.9246L14.1494 5.50207C14.264 5.51797 14.3719 5.56577 14.4606 5.64002C14.5494 5.71427 14.6155 5.81198 14.6514 5.92199C14.6872 6.032 14.6915 6.14989 14.6636 6.2622C14.6357 6.3745 14.5768 6.4767 14.4935 6.55713L11.6185 9.34187L12.2972 13.2761C12.3841 13.781 11.8504 14.1656 11.3941 13.9275L7.84027 12.0691L4.28579 13.9275C3.83011 14.1662 3.29642 13.781 3.38332 13.2754L4.06206 9.34118L1.187 6.55644C1.1042 6.47596 1.04564 6.37387 1.01798 6.26176C0.99031 6.14966 0.99465 6.03204 1.0305 5.92228C1.06635 5.81252 1.13228 5.71501 1.22078 5.64085C1.30928 5.56669 1.41682 5.51885 1.53116 5.50276L5.50506 4.9246Z" stroke="#787B83" stroke-linecap="round" stroke-linejoin="round"/>
</svg>
