<svg width="39" height="37" viewBox="0 0 39 37" fill="none" xmlns="http://www.w3.org/2000/svg">
<path d="M12.8417 11.17L17.9087 0.981363C18.0562 0.686501 18.2831 0.438495 18.5638 0.265156C18.8446 0.0918174 19.1681 0 19.4982 0C19.8283 0 20.1519 0.0918174 20.4327 0.265156C20.7134 0.438495 20.9403 0.686501 21.0878 0.981363L26.1548 11.17L37.4824 12.8136C37.8091 12.8588 38.1166 12.9949 38.3696 13.2062C38.6226 13.4175 38.811 13.6956 38.9133 14.0087C39.0156 14.3219 39.0276 14.6574 38.9481 14.977C38.8685 15.2967 38.7006 15.5875 38.4634 15.8164L30.2681 23.7422L32.2028 34.9396C32.4505 36.3768 30.9292 37.4712 29.6284 36.7935L19.4982 31.5045L9.36618 36.7935C8.06724 37.4731 6.54597 36.3768 6.79367 34.9377L8.72841 23.7403L0.533047 15.8145C0.297028 15.5854 0.130101 15.2948 0.0512403 14.9758C-0.0276201 14.6567 -0.0152509 14.322 0.0869416 14.0096C0.189134 13.6972 0.377051 13.4197 0.629333 13.2086C0.881614 12.9975 1.18814 12.8613 1.51407 12.8155L12.8417 11.17Z" fill="#FC4739"/>
</svg>
