<svg width="30" height="30" viewBox="0 0 30 30" fill="none" xmlns="http://www.w3.org/2000/svg">
<path fill-rule="evenodd" clip-rule="evenodd" d="M27.9185 2.7893C27.9172 2.50227 27.7431 2.24314 27.4773 2.13285C27.2116 2.02256 26.9046 2.08369 26.7013 2.287L13.2709 15.7202C12.9891 16.0019 12.9891 16.459 13.2709 16.7407C13.5526 17.0224 14.0097 17.0224 14.2914 16.7407L27.714 3.29666C27.8469 3.16112 27.9198 2.97933 27.9185 2.7893Z" fill="#FC4739"/>
<path fill-rule="evenodd" clip-rule="evenodd" d="M21.1145 6.48465L25.6566 1.93878L25.5064 0L20.9619 4.54451C21.0098 5.19165 21.06 5.82422 21.1145 6.48465Z" fill="#FC4739"/>
<path fill-rule="evenodd" clip-rule="evenodd" d="M20.0937 6.31451C16.5017 3.92125 11.9545 3.47877 7.96923 5.13448C3.98398 6.79022 1.08732 10.3236 0.247405 14.5572C-0.59244 18.7895 0.735093 23.1615 3.786 26.214C6.83836 29.265 11.2102 30.5925 15.4427 29.7526C19.6763 28.9127 23.2098 26.016 24.8655 22.0307C26.5212 18.0455 26.0787 13.4982 23.6854 9.90624L22.5971 9.82518L19.4943 12.928V12.9267C20.8736 15.1033 21.0862 17.8209 20.0617 20.1849C19.0372 22.5475 16.9097 24.2511 14.3783 24.7335C11.8481 25.2158 9.24353 24.4132 7.42185 22.5914C5.59999 20.7708 4.79872 18.1649 5.27974 15.6349C5.76212 13.1048 7.4657 10.9761 9.8297 9.95285C12.1924 8.92832 14.91 9.1396 17.0865 10.5189L20.1893 7.4161L20.0937 6.31451Z" fill="#FC4739"/>
<path fill-rule="evenodd" clip-rule="evenodd" d="M12.9237 14.2266C13.0606 14.2266 13.1988 14.2372 13.3343 14.2571L16.3694 11.222V11.2234C14.4545 10.0885 12.1052 9.96231 10.0787 10.8845C8.05358 11.808 6.60783 13.6631 6.20778 15.8529C5.80779 18.0428 6.50411 20.2899 8.07216 21.8701C9.64153 23.4501 11.8832 24.1623 14.0757 23.777C16.2683 23.3929 18.1341 21.9605 19.071 19.9407C20.0091 17.9222 19.8988 15.5714 18.7773 13.6487L15.7422 16.6838H15.7435C15.7635 16.8193 15.7741 16.9575 15.7741 17.0944C15.7754 18.2491 15.0804 19.2923 14.0134 19.7348C12.9463 20.1773 11.7185 19.9328 10.9012 19.1169C10.0854 18.2996 9.84083 17.0718 10.2833 16.0047C10.7259 14.9377 11.7677 14.2427 12.9237 14.244L12.9237 14.2266Z" fill="#FC4739"/>
<path fill-rule="evenodd" clip-rule="evenodd" d="M23.5156 8.88579L25.4544 9.03196L30.0003 4.49391L28.0615 4.34375L23.5156 8.88579Z" fill="#FC4739"/>
</svg>
