<svg width="31" height="25" viewBox="0 0 31 25" fill="none" xmlns="http://www.w3.org/2000/svg">
<path d="M15.4464 0.00119407C13.7039 0.00119407 12.2787 1.41066 12.2787 3.14358C12.2787 4.18017 12.7879 5.10089 13.5699 5.6741C11.679 6.41503 10.3395 8.24324 10.3395 10.384V11.5497V11.5485C10.3395 11.6764 10.3902 11.7995 10.4807 11.8912C10.5712 11.9817 10.6931 12.0324 10.8222 12.0336H20.0754H20.0742C20.3409 12.0324 20.5569 11.8152 20.5557 11.5485V10.3828C20.5557 8.24202 19.215 6.41371 17.3228 5.67291C18.106 5.0997 18.6176 4.17898 18.6176 3.14238C18.6176 1.4095 17.1901 0 15.4474 0L15.4464 0.00119407ZM15.4464 0.966583C16.6725 0.966583 17.6511 1.938 17.6511 3.14354C17.6511 4.34906 16.6724 5.32171 15.4464 5.32171C14.2204 5.32171 13.2405 4.3503 13.2405 3.14354C13.2405 1.93803 14.2204 0.966583 15.4464 0.966583ZM19.9403 3.25819C19.8776 3.25577 19.8136 3.26663 19.7545 3.28956C19.6338 3.33421 19.5361 3.42592 19.4842 3.54297C19.3744 3.78553 19.483 4.07031 19.7255 4.18013C22.8148 5.57993 25.0171 8.40128 25.6288 11.7343C25.6517 11.861 25.7241 11.9732 25.8303 12.0456C25.9365 12.118 26.0668 12.1458 26.1935 12.1228C26.319 12.0999 26.4313 12.0275 26.5037 11.9213C26.5773 11.8163 26.605 11.686 26.5809 11.5593C25.9124 7.91613 23.5001 4.82936 20.1238 3.30049H20.125C20.067 3.27394 20.0043 3.25939 19.9403 3.25819ZM10.9537 3.26181C10.891 3.26422 10.8294 3.2787 10.7715 3.30525C7.3962 4.83538 4.98288 7.91873 4.31437 11.5606H4.31557C4.29144 11.6873 4.31919 11.8177 4.39281 11.9227C4.46521 12.0289 4.57744 12.1013 4.70414 12.1242C4.966 12.17 5.21578 11.9963 5.26407 11.7356C5.87589 8.40388 8.083 5.58247 11.171 4.18273V4.18152C11.4124 4.07171 11.5186 3.78573 11.4087 3.54437C11.3569 3.42731 11.2591 3.3356 11.1384 3.29095V3.28974C11.0793 3.26923 11.0165 3.25939 10.9537 3.26181ZM15.4464 6.28711C17.7525 6.28711 19.5891 8.10927 19.5891 10.3841V11.0683H11.3062V10.3841C11.3062 8.10936 13.1404 6.28711 15.4464 6.28711ZM5.10949 12.9688C3.36697 12.9688 1.93807 14.3783 1.93807 16.1112C1.93807 17.1478 2.44851 18.0685 3.2329 18.6417C1.34073 19.3815 0 21.2097 0 23.3504V24.5161C0 24.644 0.0506822 24.7683 0.141188 24.8588C0.232901 24.9493 0.355986 25.0012 0.485114 25H9.73463C9.86375 25.0012 9.98683 24.9493 10.0773 24.8588C10.1691 24.7683 10.2197 24.644 10.2197 24.5161V23.3504C10.2197 21.2096 8.87907 19.3813 6.98685 18.6405C7.77003 18.0673 8.28167 17.1466 8.28167 16.11C8.28167 14.3771 6.8529 12.9676 5.11025 12.9676L5.10949 12.9688ZM25.7871 12.9688C24.0445 12.9688 22.6156 14.3783 22.6156 16.1112C22.6156 17.1478 23.1261 18.0685 23.9105 18.6417C22.0183 19.3827 20.6776 21.2109 20.6776 23.3516V24.5173V24.5161C20.6764 24.7828 20.8912 24.9988 21.1578 25H30.4123C30.6778 24.9988 30.8938 24.7828 30.8926 24.5161V23.3504C30.8926 21.2096 29.5543 19.3813 27.6634 18.6405C28.4466 18.0673 28.9582 17.1466 28.9582 16.11C28.9582 14.3771 27.5307 12.9676 25.788 12.9676L25.7871 12.9688ZM5.10949 13.9306C6.33555 13.9306 7.3154 14.9056 7.3154 16.1112C7.3154 17.3167 6.33552 18.2881 5.10949 18.2881C3.88346 18.2881 2.90479 17.3167 2.90479 16.1112C2.90479 14.9056 3.88346 13.9306 5.10949 13.9306ZM25.7871 13.9306C27.0131 13.9306 27.9918 14.9056 27.9918 16.1112C27.9918 17.3167 27.0131 18.2881 25.7871 18.2881C24.561 18.2881 23.5811 17.3167 23.5811 16.1112C23.5811 14.9056 24.561 13.9306 25.7871 13.9306ZM5.10949 19.2534C7.41555 19.2534 9.25341 21.0755 9.25341 23.3503V24.0345H0.966811V23.3503C0.966811 21.0756 2.80346 19.2534 5.10949 19.2534ZM25.7871 19.2534C28.0931 19.2534 29.9273 21.0755 29.9273 23.3503V24.0345H21.6431V23.3503C21.6431 21.0756 23.481 19.2534 25.7871 19.2534ZM11.7974 23.308H11.7962C11.5935 23.3092 11.4137 23.4371 11.3449 23.629C11.2556 23.8788 11.3871 24.1552 11.6369 24.2445C12.8605 24.6813 14.1469 24.9033 15.4466 24.9033C16.745 24.9033 18.0362 24.6813 19.2587 24.2445H19.2599C19.5109 24.1552 19.6412 23.8788 19.5519 23.629C19.4626 23.378 19.1863 23.2465 18.9353 23.3358C17.8166 23.7352 16.6353 23.9379 15.4466 23.9379C14.258 23.9379 13.0802 23.7352 11.9616 23.3358C11.9085 23.3177 11.8529 23.308 11.7974 23.308Z" fill="white"/>
</svg>
