<svg width="15" height="16" viewBox="0 0 15 16" fill="none" xmlns="http://www.w3.org/2000/svg">
<path fill-rule="evenodd" clip-rule="evenodd" d="M7.5 0.5C3.36016 0.5 0 3.86016 0 8C0 12.1398 3.36016 15.5 7.5 15.5C11.6398 15.5 15 12.1398 15 8C15 3.86016 11.6398 0.5 7.5 0.5ZM6.99979 4.00021V8C6.99979 8.2757 7.22368 8.50021 7.5 8.50021H11.4998C11.7761 8.50021 12 8.2757 12 8C12 7.7243 11.7761 7.49979 11.4998 7.49979H8.00021V4.00021C8.00021 3.72389 7.7757 3.5 7.5 3.5C7.2243 3.5 6.99979 3.72389 6.99979 4.00021Z" fill="#BDBDBD"/>
</svg>
