<svg width="19" height="17" viewBox="0 0 19 17" fill="none" xmlns="http://www.w3.org/2000/svg">
<path d="M4.59431 16.5C5.85667 16.5 6.88002 15.4767 6.88002 14.2143C6.88002 12.9519 5.85667 11.9286 4.59431 11.9286C3.33194 11.9286 2.30859 12.9519 2.30859 14.2143C2.30859 15.4767 3.33194 16.5 4.59431 16.5Z" fill="#787B83"/>
<path d="M14.5006 16.5C15.7629 16.5 16.7863 15.4767 16.7863 14.2143C16.7863 12.9519 15.7629 11.9286 14.5006 11.9286C13.2382 11.9286 12.2148 12.9519 12.2148 14.2143C12.2148 15.4767 13.2382 16.5 14.5006 16.5Z" fill="#787B83"/>
<path d="M18.3086 7.21985C18.3086 7.0219 18.2248 6.83143 18.0876 6.6789L15.1771 3.78381C15.0324 3.63912 14.8343 3.55501 14.6286 3.55501H11.4515C11.4439 3.55501 11.4439 3.55501 11.4362 3.55501V1.2619C11.4362 0.842629 11.0933 0.5 10.6743 0.5H0.761905C0.335238 0.5 0 0.842629 0 1.2619V12.6905C0 13.1094 0.335238 13.4524 0.761905 13.4524H1.64571C1.98857 12.1343 3.18476 11.1667 4.59436 11.1667C6.01143 11.1667 7.2077 12.1343 7.54293 13.4524H11.5505C11.8933 12.1343 13.0895 11.1667 14.4991 11.1667C15.9162 11.1667 17.1125 12.1343 17.4477 13.4524H17.5467C17.9658 13.4524 18.3086 13.1094 18.3086 12.6905V7.21985ZM16.7848 8.14952H12.9753V5.07882H14.3162L16.7848 7.53977V8.14952Z" fill="#787B83"/>
</svg>
