<svg width="16" height="16" viewBox="0 0 16 16" xmlns="http://www.w3.org/2000/svg">
<path d="M3.61913 11.7447C3.34301 10.6505 3.1923 9.52842 3.16991 8.40015H0C0.0786752 9.90952 0.610867 11.36 1.52702 12.5621C2.19157 12.2121 2.89334 11.9379 3.61913 11.7447Z" />
<path d="M0 7.6006H3.17467C3.19562 6.47199 3.34473 5.34943 3.61913 4.25449C2.89346 4.06226 2.19169 3.78911 1.52702 3.44019C0.610641 4.64156 0.0784035 6.09166 0 7.6006Z" />
<path d="M7.14098 8.40015H3.96631C3.98972 9.46554 4.13458 10.5248 4.39806 11.5574C5.29976 11.3731 6.21614 11.2701 7.13622 11.2494L7.14098 8.40015Z" />
<path d="M7.14044 15.5001V12.0476C6.29754 12.0675 5.45791 12.1599 4.63086 12.3238C5.21024 14.0397 6.11185 15.2477 7.14044 15.5001Z" />
<path d="M7.93945 12.0476V15.5001C8.9617 15.2477 9.86807 14.0397 10.449 12.3254C9.62214 12.1602 8.78245 12.0673 7.93945 12.0476Z" />
<path d="M10.6776 4.44312C9.77592 4.62733 8.85954 4.73039 7.93945 4.75106V7.60033H11.1141C11.0892 6.53475 10.9427 5.4755 10.6776 4.44312Z" />
<path d="M7.13964 7.59984V4.75057C6.21922 4.72748 5.30277 4.62123 4.40148 4.43311C4.13789 5.46619 3.99303 6.52598 3.96973 7.59191L7.13964 7.59984Z"/>
<path d="M7.14044 3.95246V0.5C6.11185 0.752387 5.21182 1.96829 4.63086 3.67468C5.45775 3.83985 6.29744 3.93279 7.14044 3.95246Z"/>
<path d="M7.93945 0.5V3.95246C8.78236 3.93261 9.62199 3.8402 10.449 3.67626C9.86966 1.96829 8.96805 0.752387 7.93945 0.5Z" />
<path d="M11.2334 12.511C11.0903 12.9523 10.9164 13.383 10.7128 13.7999C10.4651 14.3102 10.1507 14.7852 9.77783 15.2126C11.0145 14.8257 12.1311 14.1278 13.0208 13.1856C12.4496 12.9003 11.8507 12.6742 11.2334 12.511Z" />
<path d="M3.84545 3.48925C3.98854 3.04792 4.16252 2.61722 4.36609 2.20033C4.61377 1.69007 4.92817 1.215 5.30104 0.787598C4.06436 1.17452 2.94773 1.87248 2.05811 2.81463C2.62938 3.09973 3.22827 3.32577 3.84545 3.48925Z" />
<path d="M7.93945 8.40015V11.2494C8.85987 11.2725 9.77632 11.3788 10.6776 11.5669C10.9412 10.5338 11.0861 9.47401 11.1094 8.40808L7.93945 8.40015Z" />
<path d="M4.36512 13.8005C4.15937 13.3833 3.98327 12.952 3.83812 12.51C3.22102 12.6744 2.62218 12.901 2.05078 13.1862C2.94396 14.1302 4.06517 14.8283 5.30641 15.2132C4.93131 14.7862 4.61476 14.3111 4.36512 13.8005Z" />
<path d="M11.4609 4.25596C11.7371 5.35015 11.8878 6.47221 11.9102 7.60048H15.0848C15.0062 6.09111 14.474 4.64058 13.5578 3.43848C12.8921 3.78949 12.1886 4.06374 11.4609 4.25596Z" />
<path d="M15.0801 8.40015H11.9054C11.8845 9.52875 11.7353 10.6513 11.4609 11.7463C12.1866 11.9385 12.8884 12.2116 13.553 12.5606C14.4694 11.3592 15.0017 9.90909 15.0801 8.40015Z" />
<path d="M10.7138 2.20033C10.9195 2.61759 11.0956 3.04883 11.2407 3.49083C11.8578 3.32641 12.4567 3.09985 13.0281 2.81463C12.1349 1.87065 11.0137 1.17256 9.77246 0.787598C10.1476 1.21462 10.4641 1.68971 10.7138 2.20033Z"/>
</svg>
